<svg width="248" height="247" viewBox="0 0 248 247" fill="none" xmlns="http://www.w3.org/2000/svg">
<g filter="url(#filter0_d_231_175)">
<path d="M104.217 10C79.8871 10 58.6071 27.31 53.6171 51.14C52.7771 55.17 52.4071 59.26 52.5371 63.34C52.3171 63.43 52.0971 63.53 51.8871 63.63C47.0471 65.9 43.9471 70.66 43.8171 76.06C43.6671 82.2 43.2771 97.72 54.1471 107.13C52.0171 111.24 50.4571 115.59 49.5071 120.12C49.2571 121.33 49.0371 122.58 48.8671 123.83C46.6371 125.53 45.5171 125.63 45.2971 125.63C45.2671 125.63 45.2371 125.63 45.2071 125.63C45.1371 125.63 43.0671 125.29 39.7571 118.77C39.8371 118.57 40.0571 118.28 40.4671 117.73C41.5871 116.25 43.2771 114.02 44.3171 109.49C45.0671 106.23 44.1571 103.88 43.2671 102.48C41.7871 100.17 39.1471 98.54 35.6271 97.78C35.6871 96.98 35.7571 96.19 35.8571 95.41C36.0971 93.45 36.4271 91.7 36.7271 90.15C37.4971 86.1 38.0971 82.91 35.9771 80.35C34.7171 78.82 32.8071 78.05 30.3071 78.05C30.1871 78.05 30.0571 78.05 29.9271 78.05C28.0671 78.1 26.3571 78.94 25.1071 80.41C24.1371 81.56 23.4771 83.1 23.0371 84.84C21.3171 82.3 19.3171 80.48 16.4071 80.48C15.5471 80.48 14.6871 80.66 13.8571 81.01C12.0171 81.78 10.7371 83.25 10.2471 85.16C9.90714 86.49 9.07714 89.73 14.8371 98.05C12.7171 99.63 10.9971 102.84 11.7171 107.77C12.2171 111.2 13.5871 113.83 15.5371 115.25L15.7671 115.7C16.8771 117.88 19.1971 120.71 23.9171 121.78C24.4671 121.9 24.5371 122.01 24.6271 122.14C24.8671 122.49 25.1271 122.82 25.4171 123.13C28.6471 130.15 33.9771 139.14 43.3771 140.32C44.0471 140.4 44.7171 140.45 45.3771 140.45C46.6571 140.45 47.9471 140.29 49.2471 139.98C52.9871 160.43 68.9072 177.08 89.5371 181.4C90.9072 181.69 92.2871 181.92 93.6771 182.09C90.8372 186.76 88.6572 191.16 87.0172 194.98C80.7372 188.38 74.1371 184.46 68.9771 184.46C66.8371 184.46 64.9171 185.12 63.4071 186.36C63.3571 186.4 63.3171 186.44 63.2771 186.47C63.1771 186.54 63.0571 186.62 62.9371 186.71C60.2771 188.72 57.8071 192.82 61.1171 200.96C62.6171 204.64 65.1671 208.95 68.3171 213.11C72.2871 218.36 80.0071 227.17 87.0771 227.17C88.9872 227.17 90.7771 226.58 92.2471 225.47C92.6572 225.16 92.9971 224.83 93.2471 224.57C96.5971 221.68 97.0672 218.01 97.5572 214.13C97.8872 211.53 98.2671 208.58 99.4571 204.8C101.257 199.11 105.027 190.41 112.857 180.87C117.337 179.72 121.637 177.96 125.647 175.67C123.597 186.47 124.357 194.35 127.937 199.17C130.427 202.52 134.177 204.29 138.777 204.29C143.377 204.29 148.437 202.66 154.487 199.44C158.407 209.3 165.467 220.79 173.057 220.79C173.887 220.79 174.687 220.65 175.457 220.38C175.747 220.28 175.997 220.16 176.237 220.04L176.277 220.02C181.217 218.26 180.297 211.62 179.987 209.42C179.517 205.99 178.367 201.31 176.477 195.13C172.957 183.63 167.667 176.76 162.307 176.76C161.827 176.76 161.347 176.82 160.877 176.93C156.457 177.98 154.547 179.75 152.697 181.46C151.567 182.51 150.397 183.59 148.257 184.88C142.907 188.11 140.557 188.6 139.627 188.6C139.587 188.6 139.557 188.6 139.527 188.6C139.137 187.81 138.357 184.47 141.857 171.66C143.937 172.68 146.137 173.44 148.437 173.92C150.357 174.32 152.307 174.52 154.257 174.52C167.537 174.52 179.157 165.07 181.887 152.06C182.347 149.85 182.537 147.59 182.457 145.35C184.277 147.16 186.177 148.81 188.157 150.29C188.297 150.4 188.437 150.48 188.547 150.55C189.957 151.68 191.357 152.84 192.827 154.09C194.597 156.56 194.677 158.41 194.757 160.37C194.857 162.56 194.997 165.88 198.497 167.85C199.497 168.42 200.547 168.7 201.627 168.7C203.347 168.7 204.977 167.95 206.217 166.58C206.567 166.19 206.887 165.75 207.167 165.28C208.097 165.8 209.047 166.28 210.027 166.73C211.757 167.51 213.517 167.91 215.257 167.91C219.597 167.91 223.077 165.37 223.537 161.87C223.687 160.72 223.487 159.39 222.747 158.15C224.887 157.11 226.057 155.71 226.657 154.69C227.907 152.59 227.977 150.11 226.857 148.06C225.657 145.87 223.597 144.76 220.717 144.76C220.647 144.76 220.587 144.76 220.517 144.76C220.877 144.07 221.107 143.44 221.257 142.89C221.947 140.28 221.277 137.66 219.497 136.05C218.297 134.96 216.807 134.39 215.167 134.39C212.537 134.39 209.807 135.83 206.837 138.81C205.767 139.88 204.527 140.39 203.027 140.39C201.347 140.39 199.357 139.76 197.107 138.52C197.077 138.5 197.047 138.47 197.007 138.44C195.207 137.09 193.487 135.54 191.847 133.8C198.537 127.82 203.157 119.89 205.007 111.06C207.337 99.95 205.197 88.6 198.987 79.1C192.777 69.6 183.237 63.09 172.137 60.76C169.337 60.17 166.487 59.88 163.637 59.88C161.057 59.88 158.487 60.12 155.957 60.59C155.767 50.89 152.857 41.55 147.407 33.29C139.857 21.83 128.287 13.96 114.857 11.15C111.347 10.41 107.757 10.04 104.207 10.04L104.217 10Z" fill="white"/>
</g>
<path d="M60.4271 52.61C65.4971 28.43 89.1971 12.94 113.377 18.01C137.407 23.05 152.817 46.5 148.027 70.52C154.837 67.23 162.677 65.95 170.657 67.62C189.827 71.64 202.117 90.44 198.097 109.61C195.287 123.02 185.197 132.91 172.857 136.36C175.097 140.59 176.017 145.56 174.957 150.61C172.557 162.09 161.297 169.44 149.827 167.04C143.827 165.78 138.997 162.07 136.057 157.2C125.987 170.86 108.627 178.24 90.9271 174.53C66.7471 169.46 51.2571 145.76 56.3271 121.58C58.7071 110.21 65.3071 100.87 74.0471 94.58C62.8471 84.26 57.0771 68.6 60.4371 52.61H60.4271Z" fill="url(#paint0_radial_231_175)"/>
<path d="M186.047 123.27C194.187 115.97 198.267 105.84 198.167 95.7C200.337 107.36 196.557 119.84 187.077 128.35C184.457 130.7 181.577 132.59 178.537 134.01C177.947 132.47 177.197 130.98 176.247 129.57C179.737 128.05 183.057 125.96 186.047 123.27Z" fill="#FEE69B"/>
<path d="M137.797 148.21C138.697 151.05 140.177 153.74 142.297 156.1V156.09C149.737 164.38 162.127 165.57 170.967 159.21C170.187 160.23 169.317 161.19 168.327 162.07C159.667 169.85 146.347 169.13 138.567 160.47C137.597 159.38 136.757 158.23 136.047 157.02C134.677 158.92 133.137 160.74 131.427 162.45C114.997 178.88 88.9471 179.78 71.4471 165.19C90.1871 174.51 113.457 172.03 129.957 157.1C132.957 154.39 135.567 151.39 137.797 148.21Z" fill="#FEE69B"/>
<path fill-rule="evenodd" clip-rule="evenodd" d="M201.037 110.22C199.067 119.652 193.665 127.781 186.083 133.276C188.454 136.278 191.263 139.152 194.577 141.63C194.683 141.709 194.782 141.793 194.876 141.881C202.372 146.124 206.996 144.251 209.617 141.62C212.537 138.71 215.167 137.56 216.757 139C218.347 140.44 218.077 146.03 207.057 148.51C212.082 149.486 215.725 149.144 218.313 148.9C220.948 148.652 222.49 148.507 223.287 149.96H223.297C224.867 152.84 220.377 158.38 205.837 153.73C205.837 153.73 208.487 156.31 216.367 158.42C222.977 160.19 218.147 166.03 211.617 163.07C208.937 161.86 206.737 160.45 204.507 158.74C204.857 162.15 203.017 165.84 200.407 164.36C198.839 163.476 198.777 162.076 198.694 160.182C198.595 157.922 198.466 154.959 195.707 151.33C194.252 150.087 192.654 148.751 190.84 147.298C190.723 147.23 190.608 147.154 190.497 147.07C186.414 144.016 183.018 140.463 180.205 136.787C179.15 137.297 178.067 137.762 176.957 138.18C178.497 142.39 178.827 146.84 177.907 151.22C175.567 162.39 165.597 170.5 154.197 170.5C152.537 170.5 150.857 170.32 149.207 169.98C145.58 169.219 142.26 167.676 139.419 165.473C131.365 192.118 134.564 197.796 150.277 188.3V188.28C152.762 186.779 154.165 185.479 155.358 184.373C157.066 182.791 158.345 181.606 161.747 180.8C164.647 180.11 169.337 185.61 172.597 196.28C175.857 206.95 177.617 215.41 174.767 216.28C174.719 216.297 174.611 216.351 174.491 216.41C174.336 216.486 174.162 216.572 174.077 216.6C169.077 218.36 160.767 206.87 156.587 193.58C132.367 208.508 122.444 198.184 132.107 166.034C132.167 165.98 132.227 165.925 132.287 165.87C126.146 171.5 118.64 175.446 110.577 177.297C102.689 186.631 98.015 195.929 95.5971 203.6V203.59C94.2956 207.717 93.8821 210.981 93.5476 213.622C93.0812 217.304 92.7682 219.775 90.4162 221.685C90.226 221.897 90.013 222.092 89.7771 222.27C89.0071 222.85 88.0471 223.16 87.0171 223.16C81.1771 223.16 73.0271 212.77 71.4471 210.69C68.5071 206.81 66.1371 202.82 64.7671 199.45C62.8771 194.81 63.0571 191.59 65.2971 189.9C65.4279 189.802 65.5641 189.711 65.7052 189.628C65.7825 189.548 65.8536 189.476 65.8971 189.44C69.9971 186.07 79.7571 191.61 88.2571 202.65C90.6512 195.786 94.5872 187.241 100.77 178.485C100.539 178.488 100.308 178.49 100.077 178.49C96.8071 178.49 93.5171 178.15 90.2971 177.47C69.052 173.018 54.0598 155.007 52.4756 134.38C50.0077 135.776 47.649 136.45 45.3271 136.45C44.8271 136.45 44.3271 136.42 43.8271 136.36C37.9575 135.625 33.1345 130.675 28.6995 120.803C28.3787 120.552 28.0934 120.249 27.8571 119.9C27.1671 118.87 26.2271 118.22 24.7171 117.88C21.9071 117.24 20.1871 115.74 19.2471 113.89H19.2971C20.0171 113.77 20.6671 113.36 21.1171 112.69C22.0871 111.26 22.2071 108.41 19.6471 104.69C19.4071 104.35 18.9471 104.26 18.5971 104.5C18.2571 104.74 18.1671 105.21 18.4071 105.55C20.5471 108.64 20.5371 110.87 19.8771 111.84C19.5671 112.3 19.0971 112.49 18.5671 112.37C17.5171 112.13 16.1171 110.63 15.6171 107.2C15.0971 103.64 16.2671 101.68 17.5371 101.03C18.7371 100.42 20.2471 100.82 21.5771 102.11C21.8771 102.4 22.3571 102.39 22.6471 102.09C22.9372 101.79 22.9271 101.31 22.6271 101.02C22.1671 100.58 21.6771 100.21 21.1872 99.93C18.0671 96.03 11.0271 86.51 15.3471 84.7C17.9736 83.6051 19.7081 86.8342 22.1147 91.3146C23.4007 93.7087 24.8786 96.4601 26.7871 99.1C26.7871 99.1 24.4671 82.21 29.9771 82.06C34.1513 81.9466 33.6709 84.4806 32.7344 89.42C32.4325 91.0126 32.0832 92.8553 31.8271 94.94C31.6371 96.49 31.5171 98.12 31.4671 99.81C29.1371 99.79 27.3671 100.32 26.5071 101.4C25.9671 102.08 25.8671 102.92 26.2271 103.71C26.7571 104.85 28.1271 105.74 30.1171 106.28C28.0971 107.29 27.4171 108.88 27.1872 109.72C26.5472 112.07 27.6171 114.73 29.7171 116.04C29.8771 116.14 30.0671 116.17 30.2371 116.14C30.4471 116.1 30.6371 115.98 30.7571 115.79C30.9771 115.44 30.8671 114.97 30.5171 114.75C28.9871 113.8 28.1872 111.81 28.6471 110.11C29.1971 108.12 31.2971 106.93 34.3971 106.85C34.8071 106.84 35.1371 106.51 35.1371 106.1C35.1371 105.69 34.8171 105.35 34.4071 105.34C29.8071 105.2 27.9671 103.85 27.6071 103.07C27.4771 102.8 27.5071 102.58 27.6971 102.34C28.1271 101.79 29.6071 101.11 32.5571 101.36C33.2371 101.45 33.9771 101.55 34.6371 101.69L34.5971 101.68C37.8971 102.37 41.3171 104.24 40.3171 108.6C39.4674 112.298 38.1883 113.987 37.1763 115.323C36.4615 116.267 35.88 117.034 35.6771 118.21C35.6227 118.531 35.5309 118.839 35.4063 119.129C38.5156 125.715 41.6348 129.241 44.6771 129.62C46.8216 129.891 49.4646 128.663 52.5792 125.963C52.7481 124.298 53.0062 122.625 53.3571 120.95C55.5371 110.53 61.2071 101.19 69.4671 94.29C58.7271 82.88 54.2471 67.31 57.4671 51.97C62.0768 29.9816 81.7142 14.0124 104.152 14.01C107.431 14.0103 110.739 14.3503 113.977 15.03C126.367 17.63 137.037 24.88 144.007 35.46C149.977 44.51 152.637 55.1 151.727 65.75C155.587 64.49 159.547 63.85 163.577 63.85C166.147 63.85 168.727 64.12 171.257 64.65C192.027 69.01 205.387 89.45 201.037 110.22ZM55.3867 132.438C56.1325 152.484 70.395 170.207 90.9171 174.51C93.9971 175.15 97.0571 175.46 100.077 175.46C114.427 175.46 127.727 168.47 136.047 157.18C138.987 162.05 143.817 165.76 149.817 167.02C151.287 167.33 152.757 167.48 154.197 167.48C164.037 167.48 172.857 160.61 174.957 150.6C176.017 145.55 175.097 140.58 172.857 136.35C174.765 135.817 176.618 135.13 178.399 134.299C174.899 129.216 172.45 124.061 170.787 119.8C170.107 118.05 170.967 116.08 172.717 115.4C174.467 114.72 176.437 115.58 177.117 117.33C178.671 121.31 180.975 126.146 184.277 130.85C191.123 125.904 196.225 118.533 198.097 109.6C202.117 90.43 189.827 71.63 170.657 67.61C168.287 67.12 165.927 66.88 163.597 66.88C158.107 66.88 152.807 68.2 148.027 70.51C152.817 46.49 137.407 23.04 113.377 18C110.277 17.35 107.197 17.04 104.157 17.04V17.03C83.4371 17.03 64.8471 31.51 60.4271 52.59C57.0671 68.58 62.8371 84.24 74.0371 94.56C65.2971 100.85 58.6971 110.19 56.3171 121.56C56.254 121.861 56.194 122.162 56.1372 122.463C56.143 122.457 56.1488 122.451 56.1546 122.444C55.5179 125.803 55.2755 129.148 55.3957 132.431C55.3927 132.433 55.3896 132.435 55.3867 132.438Z" fill="#1E2E4D"/>
<path d="M87.9494 219.889C89.9844 218.35 86.9675 210.932 81.2108 203.32C75.4541 195.709 69.1376 190.786 67.1025 192.325C65.0674 193.864 68.0844 201.282 73.8411 208.894C79.5978 216.506 85.9143 221.429 87.9494 219.889Z" fill="#4B5871"/>
<path d="M89.0871 109.82C88.6071 109.82 88.1271 109.94 87.6771 110.17C86.6271 110.71 86.0371 111.86 86.0871 113.04C86.1471 114.35 87.7571 145.12 104.787 145.77C104.967 145.77 105.137 145.78 105.307 145.78C114.337 145.78 119.497 136.94 122.247 129.53C124.807 122.63 125.767 115.82 125.917 114.72C125.947 114.55 125.957 114.38 125.957 114.2V114.14C125.957 113.11 125.457 112.13 124.567 111.59C124.067 111.28 123.517 111.13 122.967 111.13C122.417 111.13 121.877 111.29 121.387 111.61C121.027 111.79 117.527 113.43 108.907 113.43C107.977 113.43 107.007 113.41 106.027 113.37C95.2871 112.96 91.2171 110.67 90.8371 110.44C90.3171 110.03 89.6971 109.83 89.0771 109.83L89.0871 109.82Z" fill="#1E2E4D"/>
<path d="M104.947 141.9C109.757 142.08 113.357 138.98 116.027 134.76C113.167 132.42 109.467 130.93 105.377 130.77C101.287 130.61 97.4872 131.82 94.4572 133.93C96.7972 138.34 100.147 141.71 104.957 141.89L104.947 141.9Z" fill="#FF98CA"/>
<path d="M93.0375 112.58C92.7134 113.109 92.5371 113.686 92.5371 114.31C92.5371 116.939 94.6683 119.07 97.2971 119.07C98.8681 119.07 100.261 118.309 101.128 117.135C101.128 117.17 101.127 117.205 101.127 117.24C101.127 119.869 103.258 122 105.887 122C108.433 122 110.512 120.002 110.641 117.488C111.48 118.84 112.979 119.74 114.687 119.74C117.316 119.74 119.447 117.609 119.447 114.98C119.447 114.086 119.178 113.286 118.694 112.58H93.0375Z" fill="white"/>
<path d="M106.087 113.23C115.247 116.82 125.327 117.15 135.017 117.84C130.867 106.52 117.447 102.93 106.487 102.79C95.5472 102.08 81.8971 104.64 76.8871 115.61C86.7071 115.67 96.5872 116 106.087 113.23Z" fill="#E88286"/>
<path d="M73.6971 107.53C73.1171 107.48 72.5271 107.42 71.9271 107.34C51.9171 104.71 50.3971 88.49 50.6971 76.26C50.7671 73.55 52.3271 71.09 54.7771 69.94C57.9071 68.47 63.0971 67.8 71.4071 68.48C73.1271 68.62 74.9771 68.82 76.9671 69.08C88.5871 70.61 94.9871 72.97 98.1771 75.65C100.247 77.39 101.117 80.17 100.477 82.81C97.6971 94.35 92.2771 109.05 73.6971 107.53Z" fill="white"/>
<path d="M153.227 81.24C150.037 78.55 144.197 76.68 135.407 75.52C133.857 75.32 132.367 75.15 130.987 75.04C124.507 74.51 119.837 74.96 116.707 76.43C115.667 76.92 114.767 77.6 114.037 78.42C112.587 77.13 110.447 76.7 108.567 76.49C106.727 76.29 104.557 76.23 102.797 77.12C102.197 75.71 101.287 74.43 100.067 73.41C96.0471 70.02 88.6171 67.66 77.3471 66.17C75.3471 65.91 73.4271 65.7 71.6471 65.55C63.3871 64.87 57.4571 65.44 53.5271 67.28C50.0671 68.9 47.8571 72.32 47.7571 76.19C47.5471 84.62 46.9871 107.03 71.5371 110.26C72.1771 110.34 72.8271 110.41 73.4571 110.47C93.0871 112.08 99.6071 96.95 102.277 87.62C103.397 86.18 105.687 86.12 107.397 86.34C109.077 86.55 111.187 87.13 111.897 88.7C112.267 96.72 114.977 108.71 130.767 110.79C131.277 110.86 131.777 110.91 132.277 110.95C150.487 112.45 154.477 95.92 155.977 89.7C156.737 86.55 155.687 83.32 153.237 81.25L153.227 81.24ZM73.6972 107.53C73.1172 107.48 72.5271 107.42 71.9271 107.34C51.9171 104.71 50.3971 88.49 50.6971 76.26C50.7671 73.55 52.3271 71.09 54.7771 69.94C57.9071 68.47 63.0971 67.8 71.4072 68.48C73.1271 68.62 74.9771 68.82 76.9671 69.08C88.5871 70.61 94.9871 72.97 98.1771 75.65C100.247 77.39 101.117 80.17 100.477 82.81C97.6972 94.35 92.2772 109.05 73.6972 107.53ZM107.747 83.41C106.057 83.2 104.567 83.29 103.297 83.65C103.307 83.6 103.317 83.55 103.327 83.51C103.597 82.39 103.657 81.26 103.557 80.15C104.357 79.37 105.787 79.15 108.237 79.42C110.627 79.69 111.917 80.19 112.447 81.06C112.107 81.95 111.897 82.89 111.877 83.89C111.877 84.13 111.867 84.38 111.857 84.64C110.837 84.08 109.507 83.64 107.747 83.42V83.41ZM153.107 89C150.967 97.87 146.797 109.19 132.507 108.01C132.067 107.97 131.607 107.92 131.147 107.86C115.757 105.83 114.587 93.36 114.817 83.95C114.867 81.87 116.067 79.98 117.957 79.09C120.357 77.96 124.357 77.44 130.747 77.97C132.067 78.08 133.487 78.23 135.027 78.43C143.967 79.61 148.887 81.42 151.337 83.48C152.927 84.82 153.597 86.96 153.107 88.98V89Z" fill="url(#paint1_linear_231_175)"/>
<path fill-rule="evenodd" clip-rule="evenodd" d="M74.3771 88.75C75.0071 83.96 79.1271 80.34 83.9571 80.34V80.33C84.3771 80.33 84.7971 80.36 85.2171 80.41C87.7771 80.75 90.0571 82.06 91.6271 84.11C93.1971 86.16 93.8871 88.7 93.5471 91.26C92.9171 96.05 88.7971 99.67 83.9671 99.67C83.5471 99.67 83.1271 99.64 82.7071 99.59C77.4271 98.9 73.6871 94.04 74.3771 88.75ZM84.8271 83.42C84.5371 83.38 84.2471 83.36 83.9571 83.36C83.5441 83.36 83.1378 83.3985 82.7422 83.4724C84.2382 84.438 85.1053 86.7678 84.7688 89.3377C84.35 92.5358 82.226 94.8946 80.0246 94.6064C79.5387 94.5427 79.0896 94.3554 78.6893 94.0678C79.7267 95.4163 81.2784 96.3702 83.0971 96.61C83.3871 96.65 83.6771 96.67 83.9671 96.67C87.2571 96.67 90.1171 94.23 90.5571 90.88C91.0371 87.24 88.4671 83.9 84.8271 83.42Z" fill="#1E2E4D"/>
<path fill-rule="evenodd" clip-rule="evenodd" d="M119.337 91.58C119.967 86.79 124.087 83.17 128.917 83.17V83.16C129.337 83.16 129.757 83.19 130.177 83.24C135.457 83.93 139.197 88.79 138.507 94.08C137.877 98.88 133.757 102.5 128.927 102.5C128.507 102.5 128.087 102.47 127.667 102.42C122.387 101.73 118.647 96.87 119.337 91.58ZM129.787 86.25C129.497 86.21 129.207 86.19 128.917 86.19C125.627 86.19 122.767 88.63 122.327 91.98C121.847 95.62 124.417 98.96 128.057 99.44C128.347 99.48 128.637 99.5 128.927 99.5C130.455 99.5 131.89 98.974 133.032 98.0751C132.55 98.2712 132.043 98.3471 131.531 98.2802C129.33 97.9919 127.885 95.1657 128.303 91.9677C128.639 89.4057 130.069 87.3822 131.756 86.8269C131.149 86.5408 130.488 86.3424 129.787 86.25Z" fill="#1E2E4D"/>
<defs>
<filter id="filter0_d_231_175" x="8" y="8" width="229.649" height="229.17" filterUnits="userSpaceOnUse" color-interpolation-filters="sRGB">
<feFlood flood-opacity="0" result="BackgroundImageFix"/>
<feColorMatrix in="SourceAlpha" type="matrix" values="0 0 0 0 0 0 0 0 0 0 0 0 0 0 0 0 0 0 127 0" result="hardAlpha"/>
<feOffset dx="4" dy="4"/>
<feGaussianBlur stdDeviation="3"/>
<feColorMatrix type="matrix" values="0 0 0 0 0.117647 0 0 0 0 0.180392 0 0 0 0 0.301961 0 0 0 0.4 0"/>
<feBlend mode="normal" in2="BackgroundImageFix" result="effect1_dropShadow_231_175"/>
<feBlend mode="normal" in="SourceGraphic" in2="effect1_dropShadow_231_175" result="shape"/>
</filter>
<radialGradient id="paint0_radial_231_175" cx="0" cy="0" r="1" gradientUnits="userSpaceOnUse" gradientTransform="translate(115.257 75.48) scale(117.05)">
<stop offset="0.44" stop-color="white"/>
<stop offset="1" stop-color="#FEEDB7"/>
</radialGradient>
<linearGradient id="paint1_linear_231_175" x1="103.07" y1="68.389" x2="99.7735" y2="108.484" gradientUnits="userSpaceOnUse">
<stop stop-color="#FFDEBE"/>
<stop offset="0.6" stop-color="#F5C1A7"/>
<stop offset="1" stop-color="#E88286"/>
</linearGradient>
</defs>
</svg>
