<svg width="186" height="201" viewBox="0 0 186 201" fill="none" xmlns="http://www.w3.org/2000/svg">
<g filter="url(#filter0_d_231_196)">
<path d="M15.571 124.305C9.68618 152.377 27.6712 179.891 55.7407 185.777C73.2327 189.443 90.407 183.786 102.328 172.306C105.757 175.181 109.924 177.296 114.639 178.286L114.644 178.287C129.999 181.5 145.077 171.664 148.295 156.289C149.125 152.334 149.052 148.437 148.274 144.777C159.696 139.257 168.61 128.768 171.435 115.287C176.271 92.2228 161.485 69.6088 138.426 64.7733L138.423 64.7727C132.966 63.6307 127.58 63.633 122.466 64.5546C122.119 53.3847 118.257 43.083 111.952 34.7436C106.68 27.7313 99.6126 22.018 91.2418 18.3764C84.8198 15.5596 77.7281 14 70.2911 14C41.4619 14 18.0911 37.3707 18.0911 66.2C18.0911 78.4711 22.3314 89.7589 29.4153 98.6678C22.6819 105.457 17.6914 114.178 15.5715 124.302C15.5715 124.302 15.5715 124.302 15.571 124.305Z" fill="white"/>
</g>
<path fill-rule="evenodd" clip-rule="evenodd" d="M23 59.8295L23.763 56.1903C29.1751 30.3788 54.4752 13.8424 80.2879 19.2548L80.2881 19.2548C104.158 24.2613 120.058 46.2823 118.038 69.973C124.13 67.9859 130.795 67.4475 137.567 68.8645L137.568 68.8648C158.369 73.2268 171.706 93.6266 167.343 114.43C164.543 127.793 155.095 137.916 143.254 142.388C144.71 146.414 145.157 150.884 144.204 155.428C141.462 168.543 128.6 176.937 115.5 174.195L115.498 174.195C110.112 173.064 105.558 170.208 102.23 166.359C91.2557 178.875 74.0908 185.352 56.5988 181.685L56.5986 181.685C30.7874 176.273 14.2511 150.974 19.6628 125.161C21.9464 114.252 27.862 105.105 35.7719 98.5026C26.2977 88.4021 21.2511 74.3933 23.1536 59.8295H23ZM26.7278 56.812C26.7246 56.8272 26.7214 56.8425 26.7183 56.8577C26.5109 57.85 26.3386 58.841 26.2007 59.8295C24.2667 73.6849 29.0643 87.0515 38.1582 96.632C38.8597 97.3711 39.5868 98.0875 40.3383 98.78C39.5104 99.3758 38.7018 99.9989 37.9142 100.649C30.3859 106.858 24.7728 115.487 22.6183 125.78C17.5483 149.96 33.0383 173.66 57.2183 178.73C73.8042 182.206 90.0916 175.945 100.362 163.904C101.052 163.095 101.714 162.26 102.348 161.4C102.895 162.305 103.507 163.171 104.179 163.987C107.125 167.565 111.234 170.214 116.118 171.24C127.588 173.64 138.848 166.29 141.248 154.81C142.083 150.831 141.689 146.902 140.389 143.346C140.039 142.388 139.623 141.457 139.148 140.56C140.133 140.285 141.104 139.968 142.057 139.612C153.052 135.509 161.803 126.15 164.388 113.81C168.408 94.64 156.118 75.84 136.948 71.82C130.235 70.4151 123.621 71.098 117.635 73.3091C116.506 73.7262 115.399 74.1978 114.318 74.72C114.556 73.5283 114.744 72.3381 114.883 71.1514C117.558 48.4185 102.506 27 79.6683 22.21C56.5106 17.3544 33.7932 31.3569 27.4599 53.7905C27.1846 54.7655 26.9403 55.7564 26.7283 56.7624C26.7251 56.7776 26.7219 56.7928 26.7187 56.808C26.7185 56.8087 26.7184 56.8093 26.7183 56.81H26.7283C26.7281 56.8107 26.728 56.8113 26.7278 56.812Z" fill="#1E2E4D"/>
<path d="M26.7183 56.81C31.7883 32.63 55.4883 17.14 79.6683 22.21C103.698 27.25 119.108 50.7 114.318 74.72C121.128 71.43 128.968 70.15 136.948 71.82C156.118 75.84 168.408 94.64 164.388 113.81C161.578 127.22 151.488 137.11 139.148 140.56C141.388 144.79 142.308 149.76 141.248 154.81C138.848 166.29 127.588 173.64 116.118 171.24C110.118 169.98 105.288 166.27 102.348 161.4C92.2783 175.06 74.9183 182.44 57.2183 178.73C33.0382 173.66 17.5483 149.96 22.6183 125.78C24.9983 114.41 31.5983 105.07 40.3383 98.78C29.1383 88.46 23.3683 72.8 26.7283 56.81H26.7183Z" fill="url(#paint0_radial_231_196)"/>
<path d="M152.338 127.47C160.478 120.17 164.558 110.04 164.458 99.9C166.628 111.56 162.848 124.04 153.368 132.55C150.748 134.9 147.868 136.79 144.828 138.21C144.238 136.67 143.488 135.18 142.538 133.77C146.028 132.25 149.348 130.16 152.338 127.47Z" fill="#FEE69B"/>
<path d="M104.088 152.41C104.988 155.25 106.468 157.94 108.588 160.3V160.29C116.028 168.58 128.418 169.77 137.258 163.41C136.478 164.43 135.608 165.39 134.618 166.27C125.958 174.05 112.638 173.33 104.858 164.67C103.888 163.58 103.048 162.43 102.338 161.22C100.968 163.12 99.4282 164.94 97.7182 166.65C81.2882 183.08 55.2383 183.98 37.7383 169.39C56.4782 178.71 79.7482 176.23 96.2482 161.3C99.2482 158.59 101.858 155.59 104.088 152.41Z" fill="#FEE69B"/>
<path d="M55.3782 114.02C54.8982 114.02 54.4182 114.14 53.9682 114.37C52.9182 114.91 52.3282 116.06 52.3782 117.24C52.4382 118.55 54.0482 149.32 71.0782 149.97C71.2582 149.97 71.4282 149.98 71.5982 149.98C80.6282 149.98 85.7882 141.14 88.5382 133.73C91.0982 126.83 92.0582 120.02 92.2082 118.92C92.2382 118.75 92.2482 118.58 92.2482 118.4V118.34C92.2482 117.31 91.7482 116.33 90.8582 115.79C90.3582 115.48 89.8082 115.33 89.2582 115.33C88.7082 115.33 88.1682 115.49 87.6782 115.81C87.3182 115.99 83.8182 117.63 75.1982 117.63C74.2682 117.63 73.2982 117.61 72.3182 117.57C61.5782 117.16 57.5082 114.87 57.1282 114.64C56.6082 114.23 55.9882 114.03 55.3682 114.03L55.3782 114.02Z" fill="#1E2E4D"/>
<path d="M71.2383 146.1C76.0483 146.28 79.6483 143.18 82.3183 138.96C79.4583 136.62 75.7583 135.13 71.6683 134.97C67.5783 134.81 63.7783 136.02 60.7483 138.13C63.0883 142.54 66.4383 145.91 71.2483 146.09L71.2383 146.1Z" fill="#FF98CA"/>
<path d="M59.3286 116.78C59.0045 117.309 58.8282 117.886 58.8282 118.51C58.8282 121.139 60.9594 123.27 63.5882 123.27C65.1592 123.27 66.5525 122.509 67.4194 121.335C67.4186 121.37 67.4183 121.405 67.4183 121.44C67.4183 124.069 69.5494 126.2 72.1782 126.2C74.7239 126.2 76.8028 124.202 76.9319 121.688C77.7716 123.04 79.2698 123.94 80.9782 123.94C83.6071 123.94 85.7383 121.809 85.7383 119.18C85.7383 118.286 85.4692 117.487 84.9848 116.78H59.3286Z" fill="white"/>
<path d="M72.3783 117.43C81.5383 121.02 91.6183 121.35 101.308 122.04C97.1583 110.72 83.7383 107.13 72.7783 106.99C61.8383 106.28 48.1883 108.84 43.1783 119.81C52.9983 119.87 62.8783 120.2 72.3783 117.43Z" fill="#E88286"/>
<path d="M39.9882 111.73C39.4082 111.68 38.8182 111.62 38.2182 111.54C18.2082 108.91 16.6882 92.69 16.9882 80.46C17.0582 77.75 18.6182 75.29 21.0682 74.14C24.1982 72.67 29.3882 72 37.6982 72.68C39.4182 72.82 41.2682 73.02 43.2582 73.28C54.8782 74.81 61.2782 77.17 64.4682 79.85C66.5382 81.59 67.4082 84.37 66.7682 87.01C63.9882 98.55 58.5682 113.25 39.9882 111.73V111.73Z" fill="white"/>
<path d="M119.518 85.44C116.328 82.75 110.488 80.88 101.698 79.72C100.148 79.52 98.6583 79.35 97.2783 79.24C90.7983 78.71 86.1283 79.16 82.9983 80.63C81.9583 81.12 81.0583 81.8 80.3283 82.62C78.8783 81.33 76.7383 80.9 74.8583 80.69C73.0183 80.49 70.8483 80.43 69.0883 81.32C68.4883 79.91 67.5783 78.63 66.3583 77.61C62.3383 74.22 54.9083 71.86 43.6383 70.37C41.6383 70.11 39.7183 69.9 37.9383 69.75C29.6783 69.07 23.7483 69.64 19.8183 71.48C16.3583 73.1 14.1483 76.52 14.0483 80.39C13.8383 88.82 13.2783 111.23 37.8283 114.46C38.4683 114.54 39.1183 114.61 39.7483 114.67C59.3783 116.28 65.8983 101.15 68.5683 91.82C69.6883 90.38 71.9783 90.32 73.6883 90.54C75.3683 90.75 77.4783 91.33 78.1883 92.9C78.5583 100.92 81.2683 112.91 97.0583 114.99C97.5683 115.06 98.0683 115.11 98.5683 115.15C116.778 116.65 120.768 100.12 122.268 93.9C123.028 90.75 121.978 87.52 119.528 85.45L119.518 85.44ZM39.9883 111.73C39.4083 111.68 38.8183 111.62 38.2183 111.54C18.2083 108.91 16.6883 92.69 16.9883 80.46C17.0583 77.75 18.6183 75.29 21.0683 74.14C24.1983 72.67 29.3883 72 37.6983 72.68C39.4183 72.82 41.2683 73.02 43.2583 73.28C54.8783 74.81 61.2783 77.17 64.4683 79.85C66.5383 81.59 67.4083 84.37 66.7683 87.01C63.9883 98.55 58.5683 113.25 39.9883 111.73ZM74.0383 87.61C72.3483 87.4 70.8583 87.49 69.5883 87.85C69.5983 87.8 69.6083 87.75 69.6183 87.71C69.8883 86.59 69.9483 85.46 69.8483 84.35C70.6483 83.57 72.0783 83.35 74.5283 83.62C76.9183 83.89 78.2083 84.39 78.7383 85.26C78.3983 86.15 78.1883 87.09 78.1683 88.09C78.1683 88.33 78.1583 88.58 78.1483 88.84C77.1283 88.28 75.7983 87.84 74.0383 87.62V87.61ZM119.398 93.2C117.258 102.07 113.088 113.39 98.7983 112.21C98.3583 112.17 97.8983 112.12 97.4383 112.06C82.0483 110.03 80.8783 97.56 81.1083 88.15C81.1583 86.07 82.3583 84.18 84.2483 83.29C86.6483 82.16 90.6483 81.64 97.0383 82.17C98.3583 82.28 99.7783 82.43 101.318 82.63C110.258 83.81 115.178 85.62 117.628 87.68C119.218 89.02 119.888 91.16 119.398 93.18V93.2Z" fill="url(#paint1_linear_231_196)"/>
<path fill-rule="evenodd" clip-rule="evenodd" d="M40.6682 92.95C41.2982 88.16 45.4182 84.54 50.2482 84.54V84.53C50.6682 84.53 51.0882 84.56 51.5082 84.61C54.0682 84.95 56.3482 86.26 57.9182 88.31C59.4882 90.36 60.1782 92.9 59.8382 95.46C59.2082 100.25 55.0882 103.87 50.2582 103.87C49.8382 103.87 49.4182 103.84 48.9982 103.79C43.7182 103.1 39.9782 98.24 40.6682 92.95ZM51.1182 87.62C50.8282 87.58 50.5382 87.56 50.2482 87.56C49.8352 87.56 49.4289 87.5985 49.0333 87.6724C50.5293 88.638 51.3964 90.9678 51.0599 93.5378C50.6412 96.7358 48.5171 99.0947 46.3157 98.8064C45.8298 98.7428 45.3807 98.5555 44.9804 98.2678C46.0179 99.6163 47.5695 100.57 49.3882 100.81C49.6782 100.85 49.9682 100.87 50.2582 100.87C53.5482 100.87 56.4082 98.43 56.8482 95.08C57.3282 91.44 54.7582 88.1 51.1182 87.62Z" fill="#1E2E4D"/>
<path fill-rule="evenodd" clip-rule="evenodd" d="M85.6283 95.78C86.2583 90.99 90.3783 87.37 95.2083 87.37V87.36C95.6283 87.36 96.0483 87.39 96.4683 87.44C101.748 88.13 105.488 92.99 104.798 98.28C104.168 103.08 100.048 106.7 95.2183 106.7C94.7983 106.7 94.3783 106.67 93.9583 106.62C88.6783 105.93 84.9383 101.07 85.6283 95.78ZM96.0783 90.45C95.7883 90.41 95.4983 90.39 95.2083 90.39C91.9183 90.39 89.0583 92.83 88.6183 96.18C88.1383 99.82 90.7083 103.16 94.3483 103.64C94.6383 103.68 94.9283 103.7 95.2183 103.7C96.7458 103.7 98.1806 103.174 99.3236 102.275C98.841 102.471 98.3337 102.547 97.8223 102.48C95.6209 102.192 94.1758 99.3657 94.5946 96.1676C94.9301 93.6056 96.36 91.5822 98.0473 91.0269C97.4401 90.7408 96.779 90.5424 96.0783 90.45Z" fill="#1E2E4D"/>
<defs>
<filter id="filter0_d_231_196" x="12.4556" y="12" width="169.896" height="184.886" filterUnits="userSpaceOnUse" color-interpolation-filters="sRGB">
<feFlood flood-opacity="0" result="BackgroundImageFix"/>
<feColorMatrix in="SourceAlpha" type="matrix" values="0 0 0 0 0 0 0 0 0 0 0 0 0 0 0 0 0 0 127 0" result="hardAlpha"/>
<feOffset dx="4" dy="4"/>
<feGaussianBlur stdDeviation="3"/>
<feColorMatrix type="matrix" values="0 0 0 0 0.117647 0 0 0 0 0.180392 0 0 0 0 0.301961 0 0 0 0.4 0"/>
<feBlend mode="normal" in2="BackgroundImageFix" result="effect1_dropShadow_231_196"/>
<feBlend mode="normal" in="SourceGraphic" in2="effect1_dropShadow_231_196" result="shape"/>
</filter>
<radialGradient id="paint0_radial_231_196" cx="0" cy="0" r="1" gradientUnits="userSpaceOnUse" gradientTransform="translate(81.5482 79.68) scale(117.05)">
<stop offset="0.44" stop-color="white"/>
<stop offset="1" stop-color="#FEEDB7"/>
</radialGradient>
<linearGradient id="paint1_linear_231_196" x1="69.361" y1="72.589" x2="66.0646" y2="112.684" gradientUnits="userSpaceOnUse">
<stop stop-color="#FFDEBE"/>
<stop offset="0.6" stop-color="#F5C1A7"/>
<stop offset="1" stop-color="#E88286"/>
</linearGradient>
</defs>
</svg>
