<?xml version="1.0" encoding="UTF-8"?>
<svg width="229.65" height="229.17" fill="none" version="1.1" viewBox="0 0 229.65 229.17" xmlns="http://www.w3.org/2000/svg">
 <g transform="translate(-8,-8)" filter="url(#filter0_d_231_175)">
  <path d="m104.22 10c-24.33 0-45.61 17.31-50.6 41.14-0.84 4.03-1.21 8.12-1.08 12.2-0.22 0.09-0.44 0.19-0.65 0.29-4.84 2.27-7.94 7.03-8.07 12.43-0.15 6.14-0.54 21.66 10.33 31.07-2.13 4.11-3.69 8.46-4.64 12.99-0.25 1.21-0.47 2.46-0.64 3.71-2.23 1.7-3.35 1.8-3.57 1.8h-0.09c-0.07 0-2.14-0.34-5.45-6.86 0.08-0.2 0.3-0.49 0.71-1.04 1.12-1.48 2.81-3.71 3.85-8.24 0.75-3.26-0.16-5.61-1.05-7.01-1.48-2.31-4.12-3.94-7.64-4.7 0.06-0.8 0.13-1.59 0.23-2.37 0.24-1.96 0.57-3.71 0.87-5.26 0.77-4.05 1.37-7.24-0.75-9.8-1.26-1.53-3.17-2.3-5.67-2.3h-0.38c-1.86 0.05-3.57 0.89-4.82 2.36-0.97 1.15-1.63 2.69-2.07 4.43-1.72-2.54-3.72-4.36-6.63-4.36-0.86 0-1.72 0.18-2.55 0.53-1.84 0.77-3.12 2.24-3.61 4.15-0.33996 1.33-1.17 4.57 4.59 12.89-2.12 1.58-3.84 4.79-3.12 9.72 0.5 3.43 1.87 6.06 3.82 7.48l0.23 0.45c1.11 2.18 3.43 5.01 8.15 6.08 0.55 0.12 0.62 0.23 0.71 0.36 0.24 0.35 0.5 0.68 0.79 0.99 3.23 7.02 8.56 16.01 17.96 17.19 0.67 0.08 1.34 0.13 2 0.13 1.28 0 2.57-0.16 3.87-0.47 3.74 20.45 19.66 37.1 40.29 41.42 1.3701 0.29 2.75 0.52 4.14 0.69-2.8399 4.67-5.0199 9.07-6.6599 12.89-6.28-6.6-12.88-10.52-18.04-10.52-2.14 0-4.06 0.66-5.57 1.9-0.05 0.04-0.09 0.08-0.13 0.11-0.1 0.07-0.22 0.15-0.34 0.24-2.66 2.01-5.13 6.11-1.82 14.25 1.5 3.68 4.05 7.99 7.2 12.15 3.97 5.25 11.69 14.06 18.76 14.06 1.9101 0 3.7-0.59 5.17-1.7 0.4101-0.31 0.75-0.64 1-0.9 3.35-2.89 3.8201-6.56 4.3101-10.44 0.33-2.6 0.7099-5.55 1.8999-9.33 1.7999-5.69 5.5699-14.39 13.4-23.93 4.48-1.15 8.78-2.91 12.79-5.2-2.05 10.8-1.29 18.68 2.29 23.5 2.49 3.35 6.24 5.12 10.84 5.12s9.66-1.63 15.71-4.85c3.92 9.86 10.98 21.35 18.57 21.35 0.83 0 1.63-0.14 2.4-0.41 0.29-0.1 0.54-0.22 0.78-0.34l0.04-0.02c4.94-1.76 4.02-8.4 3.71-10.6-0.47-3.43-1.62-8.11-3.51-14.29-3.52-11.5-8.81-18.37-14.17-18.37-0.48 0-0.96 0.06-1.43 0.17-4.42 1.05-6.33 2.82-8.18 4.53-1.13 1.05-2.3 2.13-4.44 3.42-5.35 3.23-7.7 3.72-8.63 3.72h-0.1c-0.39-0.79-1.17-4.13 2.33-16.94 2.08 1.02 4.28 1.78 6.58 2.26 1.92 0.4 3.87 0.6 5.82 0.6 13.28 0 24.9-9.45 27.63-22.46 0.46-2.21 0.65-4.47 0.57-6.71 1.82 1.81 3.72 3.46 5.7 4.94 0.14 0.11 0.28 0.19 0.39 0.26 1.41 1.13 2.81 2.29 4.28 3.54 1.77 2.47 1.85 4.32 1.93 6.28 0.1 2.19 0.24 5.51 3.74 7.48 1 0.57 2.05 0.85 3.13 0.85 1.72 0 3.35-0.75 4.59-2.12 0.35-0.39 0.67-0.83 0.95-1.3 0.93 0.52 1.88 1 2.86 1.45 1.73 0.78 3.49 1.18 5.23 1.18 4.34 0 7.82-2.54 8.28-6.04 0.15-1.15-0.05-2.48-0.79-3.72 2.14-1.04 3.31-2.44 3.91-3.46 1.25-2.1 1.32-4.58 0.2-6.63-1.2-2.19-3.26-3.3-6.14-3.3h-0.2c0.36-0.69 0.59-1.32 0.74-1.87 0.69-2.61 0.02-5.23-1.76-6.84-1.2-1.09-2.69-1.66-4.33-1.66-2.63 0-5.36 1.44-8.33 4.42-1.07 1.07-2.31 1.58-3.81 1.58-1.68 0-3.67-0.63-5.92-1.87-0.03-0.02-0.06-0.05-0.1-0.08-1.8-1.35-3.52-2.9-5.16-4.64 6.69-5.98 11.31-13.91 13.16-22.74 2.33-11.11 0.19-22.46-6.02-31.96s-15.75-16.01-26.85-18.34c-2.8-0.59-5.65-0.88-8.5-0.88-2.58 0-5.15 0.24-7.68 0.71-0.19-9.7-3.1-19.04-8.55-27.3-7.55-11.46-19.12-19.33-32.55-22.14-3.51-0.74-7.1-1.11-10.65-1.11z" fill="#fff"/>
 </g>
 <path d="m52.427 44.61c5.07-24.18 28.77-39.67 52.95-34.6 24.03 5.04 39.44 28.49 34.65 52.51 6.81-3.29 14.65-4.57 22.63-2.9 19.17 4.02 31.46 22.82 27.44 41.99-2.81 13.41-12.9 23.3-25.24 26.75 2.24 4.23 3.16 9.2 2.1 14.25-2.4 11.48-13.66 18.83-25.13 16.43-6-1.26-10.83-4.97-13.77-9.84-10.07 13.66-27.43 21.04-45.13 17.33-24.18-5.07-39.67-28.77-34.6-52.95 2.38-11.37 8.98-20.71 17.72-27-11.2-10.32-16.97-25.98-13.61-41.97z" fill="url(#paint0_radial_231_175)"/>
 <path d="m178.05 115.27c8.14-7.3 12.22-17.43 12.12-27.57 2.17 11.66-1.61 24.14-11.09 32.65-2.62 2.35-5.5 4.24-8.54 5.66-0.59-1.54-1.34-3.03-2.29-4.44 3.49-1.52 6.81-3.61 9.8-6.3z" fill="#fee69b"/>
 <path d="m129.8 140.21c0.9 2.84 2.38 5.53 4.5 7.89v-0.01c7.44 8.29 19.83 9.48 28.67 3.12-0.78 1.02-1.65 1.98-2.64 2.86-8.66 7.78-21.98 7.06-29.76-1.6-0.97-1.09-1.81-2.24-2.52-3.45-1.37 1.9-2.91 3.72-4.62 5.43-16.43 16.43-42.48 17.33-59.98 2.74 18.74 9.32 42.01 6.84 58.51-8.09 3-2.71 5.61-5.71 7.84-8.89z" fill="#fee69b"/>
 <path d="m193.04 102.22c-1.97 9.432-7.372 17.561-14.954 23.056 2.371 3.002 5.18 5.876 8.494 8.354 0.106 0.079 0.205 0.163 0.299 0.251 7.496 4.243 12.12 2.37 14.741-0.261 2.92-2.91 5.55-4.06 7.14-2.62s1.32 7.03-9.7 9.51c5.025 0.976 8.668 0.634 11.256 0.39 2.635-0.248 4.177-0.393 4.974 1.06h0.01c1.57 2.88-2.92 8.42-17.46 3.77 0 0 2.65 2.58 10.53 4.69 6.61 1.77 1.78 7.61-4.75 4.65-2.68-1.21-4.88-2.62-7.11-4.33 0.35 3.41-1.49 7.1-4.1 5.62-1.568-0.884-1.63-2.284-1.713-4.178-0.099-2.26-0.228-5.223-2.987-8.852-1.455-1.243-3.053-2.579-4.867-4.032-0.117-0.068-0.232-0.144-0.343-0.228-4.083-3.054-7.479-6.607-10.292-10.283-1.055 0.51-2.138 0.975-3.248 1.393 1.54 4.21 1.87 8.66 0.95 13.04-2.34 11.17-12.31 19.28-23.71 19.28-1.66 0-3.34-0.18-4.99-0.52-3.627-0.761-6.947-2.304-9.788-4.507-8.054 26.645-4.855 32.323 10.858 22.827v-0.02c2.485-1.501 3.888-2.801 5.081-3.907 1.708-1.582 2.987-2.767 6.389-3.573 2.9-0.69 7.59 4.81 10.85 15.48s5.02 19.13 2.17 20c-0.048 0.017-0.156 0.071-0.276 0.13-0.155 0.076-0.329 0.162-0.414 0.19-5 1.76-13.31-9.73-17.49-23.02-24.22 14.928-34.143 4.604-24.48-27.546 0.06-0.054 0.12-0.109 0.18-0.164-6.141 5.63-13.647 9.576-21.71 11.427-7.888 9.334-12.562 18.632-14.98 26.303v-0.01c-1.3015 4.127-1.715 7.391-2.0495 10.032-0.4664 3.682-0.7794 6.153-3.1314 8.063-0.1902 0.212-0.4032 0.407-0.6391 0.585-0.77 0.58-1.73 0.89-2.76 0.89-5.84 0-13.99-10.39-15.57-12.47-2.94-3.88-5.31-7.87-6.68-11.24-1.89-4.64-1.71-7.86 0.53-9.55 0.1308-0.098 0.267-0.189 0.4081-0.272 0.0773-0.08 0.1484-0.152 0.1919-0.188 4.1-3.37 13.86 2.17 22.36 13.21 2.3941-6.864 6.3301-15.409 12.513-24.165-0.231 3e-3 -0.462 5e-3 -0.693 5e-3 -3.2699 0-6.5599-0.34-9.7799-1.02-21.245-4.452-36.237-22.463-37.822-43.09-2.4679 1.396-4.8266 2.07-7.1485 2.07-0.5 0-1-0.03-1.5-0.09-5.8696-0.735-10.693-5.685-15.128-15.557-0.3208-0.251-0.6061-0.554-0.8424-0.903-0.69-1.03-1.63-1.68-3.14-2.02-2.81-0.64-4.53-2.14-5.47-3.99h0.05c0.72-0.12 1.37-0.53 1.82-1.2 0.97-1.43 1.09-4.28-1.47-8-0.24-0.34-0.7-0.43-1.05-0.19-0.34 0.24-0.43 0.71-0.19 1.05 2.14 3.09 2.13 5.32 1.47 6.29-0.31 0.46-0.78 0.65-1.31 0.53-1.05-0.24-2.45-1.74-2.95-5.17-0.52-3.56 0.65-5.52 1.92-6.17 1.2-0.61 2.71-0.21 4.04 1.08 0.3 0.29 0.78 0.28 1.07-0.02 0.2901-0.3 0.28-0.78-0.02-1.07-0.46-0.44-0.95-0.81-1.4399-1.09-3.1201-3.9-10.16-13.42-5.8401-15.23 2.6265-1.0949 4.361 2.1342 6.7676 6.6146 1.286 2.3941 2.7639 5.1455 4.6724 7.7854 0 0-2.32-16.89 3.19-17.04 4.1742-0.1134 3.6938 2.4206 2.7573 7.36-0.3019 1.5926-0.6512 3.4353-0.9073 5.52-0.19 1.55-0.31 3.18-0.36 4.87-2.33-0.02-4.1 0.51-4.96 1.59-0.54 0.68-0.64 1.52-0.28 2.31 0.53 1.14 1.9 2.03 3.89 2.57-2.02 1.01-2.7 2.6-2.9299 3.44-0.64 2.35 0.4299 5.01 2.5299 6.32 0.16 0.1 0.35 0.13 0.52 0.1 0.21-0.04 0.4-0.16 0.52-0.35 0.22-0.35 0.11-0.82-0.24-1.04-1.53-0.95-2.3299-2.94-1.87-4.64 0.55-1.99 2.65-3.18 5.75-3.26 0.41-0.01 0.74-0.34 0.74-0.75s-0.32-0.75-0.73-0.76c-4.6-0.14-6.44-1.49-6.8-2.27-0.13-0.27-0.1-0.49 0.09-0.73 0.43-0.55 1.91-1.23 4.86-0.98 0.68 0.09 1.42 0.19 2.08 0.33l-0.04-0.01c3.3 0.69 6.72 2.56 5.72 6.92-0.8497 3.698-2.1288 5.387-3.1408 6.723-0.7148 0.944-1.2963 1.711-1.4992 2.887-0.0544 0.321-0.1462 0.629-0.2708 0.919 3.1093 6.586 6.2285 10.112 9.2708 10.491 2.1445 0.271 4.7875-0.957 7.9021-3.657 0.1689-1.665 0.427-3.338 0.7779-5.013 2.18-10.42 7.85-19.76 16.11-26.66-10.74-11.41-15.22-26.98-12-42.32 4.6097-21.988 24.247-37.958 46.685-37.96 3.279 3e-4 6.587 0.3403 9.825 1.02 12.39 2.6 23.06 9.85 30.03 20.43 5.97 9.05 8.63 19.64 7.72 30.29 3.86-1.26 7.82-1.9 11.85-1.9 2.57 0 5.15 0.27 7.68 0.8 20.77 4.36 34.13 24.8 29.78 45.57zm-145.65 22.218c0.7458 20.046 15.008 37.769 35.53 42.072 3.08 0.64 6.14 0.95 9.1599 0.95 14.35 0 27.65-6.99 35.97-18.28 2.94 4.87 7.77 8.58 13.77 9.84 1.47 0.31 2.94 0.46 4.38 0.46 9.84 0 18.66-6.87 20.76-16.88 1.06-5.05 0.14-10.02-2.1-14.25 1.908-0.533 3.761-1.22 5.542-2.051-3.5-5.083-5.949-10.238-7.612-14.499-0.68-1.75 0.18-3.72 1.93-4.4s3.72 0.18 4.4 1.93c1.554 3.98 3.858 8.816 7.16 13.52 6.846-4.946 11.948-12.317 13.82-21.25 4.02-19.17-8.27-37.97-27.44-41.99-2.37-0.49-4.73-0.73-7.06-0.73-5.49 0-10.79 1.32-15.57 3.63 4.79-24.02-10.62-47.47-34.65-52.51-3.1-0.65-6.18-0.96-9.22-0.96v-0.01c-20.72 0-39.31 14.48-43.73 35.56-3.36 15.99 2.41 31.65 13.61 41.97-8.74 6.29-15.34 15.63-17.72 27-0.0631 0.301-0.1231 0.602-0.1799 0.903 0.0058-6e-3 0.0116-0.012 0.0174-0.019-0.6367 3.359-0.8791 6.704-0.7589 9.987-3e-3 2e-3 -0.0061 4e-3 -9e-3 7e-3z" clip-rule="evenodd" fill="#1e2e4d" fill-rule="evenodd"/>
 <path d="m79.949 211.89c2.035-1.539-0.9819-8.957-6.7386-16.569-5.7567-7.611-12.073-12.534-14.108-10.995s0.9819 8.957 6.7386 16.569 12.073 12.535 14.108 10.995z" fill="#4b5871"/>
 <path d="m81.087 101.82c-0.48 0-0.96 0.12-1.41 0.35-1.05 0.54-1.64 1.69-1.59 2.87 0.06 1.31 1.67 32.08 18.7 32.73 0.18 0 0.35 0.01 0.52 0.01 9.03 0 14.19-8.84 16.94-16.25 2.56-6.9 3.52-13.71 3.67-14.81 0.03-0.17 0.04-0.34 0.04-0.52v-0.06c0-1.03-0.5-2.01-1.39-2.55-0.5-0.31-1.05-0.46-1.6-0.46s-1.09 0.16-1.58 0.48c-0.36 0.18-3.86 1.82-12.48 1.82-0.93 0-1.9-0.02-2.88-0.06-10.74-0.41-14.81-2.7-15.19-2.93-0.52-0.41-1.14-0.61-1.76-0.61z" fill="#1e2e4d"/>
 <path d="m96.947 133.9c4.81 0.18 8.41-2.92 11.08-7.14-2.86-2.34-6.56-3.83-10.65-3.99s-7.8898 1.05-10.92 3.16c2.34 4.41 5.6898 7.78 10.5 7.96z" fill="#ff98ca"/>
 <path d="m85.038 104.58c-0.3241 0.529-0.5004 1.106-0.5004 1.73 0 2.629 2.1312 4.76 4.76 4.76 1.571 0 2.9639-0.761 3.8309-1.935 0 0.035-1e-3 0.07-1e-3 0.105 0 2.629 2.131 4.76 4.76 4.76 2.546 0 4.625-1.998 4.754-4.512 0.839 1.352 2.338 2.252 4.046 2.252 2.629 0 4.76-2.131 4.76-4.76 0-0.894-0.269-1.694-0.753-2.4z" fill="#fff"/>
 <path d="m98.087 105.23c9.16 3.59 19.24 3.92 28.93 4.61-4.15-11.32-17.57-14.91-28.53-15.05-10.94-0.71-24.59 1.85-29.6 12.82 9.82 0.06 19.7 0.39 29.2-2.38z" fill="#e88286"/>
 <path d="m65.697 99.53c-0.58-0.05-1.17-0.11-1.77-0.19-20.01-2.63-21.53-18.85-21.23-31.08 0.07-2.71 1.63-5.17 4.08-6.32 3.13-1.47 8.32-2.14 16.63-1.46 1.72 0.14 3.57 0.34 5.56 0.6 11.62 1.53 18.02 3.89 21.21 6.57 2.0699 1.74 2.9399 4.52 2.2999 7.16-2.7799 11.54-8.1999 26.24-26.78 24.72z" fill="#fff"/>
 <path d="m145.23 73.24c-3.19-2.69-9.03-4.56-17.82-5.72-1.55-0.2-3.04-0.37-4.42-0.48-6.48-0.53-11.15-0.08-14.28 1.39-1.04 0.49-1.94 1.17-2.67 1.99-1.45-1.29-3.59-1.72-5.47-1.93-1.84-0.2-4.01-0.26-5.77 0.63-0.6-1.41-1.51-2.69-2.73-3.71-4.0199-3.39-11.45-5.75-22.72-7.24-2-0.26-3.92-0.47-5.7-0.62-8.26-0.68-14.19-0.11-18.12 1.73-3.46 1.62-5.67 5.04-5.77 8.91-0.21 8.43-0.77 30.84 23.78 34.07 0.64 0.08 1.29 0.15 1.92 0.21 19.63 1.61 26.15-13.52 28.82-22.85 1.12-1.44 3.41-1.5 5.12-1.28 1.68 0.21 3.79 0.79 4.5 2.36 0.37 8.02 3.08 20.01 18.87 22.09 0.51 0.07 1.01 0.12 1.51 0.16 18.21 1.5 22.2-15.03 23.7-21.25 0.76-3.15-0.29-6.38-2.74-8.45zm-79.53 26.29c-0.58-0.05-1.1701-0.11-1.7701-0.19-20.01-2.63-21.53-18.85-21.23-31.08 0.07-2.71 1.63-5.17 4.08-6.32 3.13-1.47 8.32-2.14 16.63-1.46 1.7199 0.14 3.5699 0.34 5.5599 0.6 11.62 1.53 18.02 3.89 21.21 6.57 2.0699 1.74 2.9399 4.52 2.2999 7.16-2.7798 11.54-8.1998 26.24-26.78 24.72zm34.05-24.12c-1.69-0.21-3.18-0.12-4.45 0.24 0.01-0.05 0.02-0.1 0.03-0.14 0.27-1.12 0.33-2.25 0.23-3.36 0.8-0.78 2.23-1 4.68-0.73 2.39 0.27 3.68 0.77 4.21 1.64-0.34 0.89-0.55 1.83-0.57 2.83 0 0.24-0.01 0.49-0.02 0.75-1.02-0.56-2.35-1-4.11-1.22zm45.36 5.59c-2.14 8.87-6.31 20.19-20.6 19.01-0.44-0.04-0.9-0.09-1.36-0.15-15.39-2.03-16.56-14.5-16.33-23.91 0.05-2.08 1.25-3.97 3.14-4.86 2.4-1.13 6.4-1.65 12.79-1.12 1.32 0.11 2.74 0.26 4.28 0.46 8.94 1.18 13.86 2.99 16.31 5.05 1.59 1.34 2.26 3.48 1.77 5.5z" fill="url(#paint1_linear_231_175)"/>
 <path d="m66.377 80.75c0.63-4.79 4.75-8.41 9.58-8.41v-0.01c0.42 0 0.84 0.03 1.26 0.08 2.56 0.34 4.84 1.65 6.41 3.7s2.26 4.59 1.92 7.15c-0.63 4.79-4.75 8.41-9.58 8.41-0.42 0-0.84-0.03-1.26-0.08-5.28-0.69-9.02-5.55-8.33-10.84zm10.45-5.33c-0.29-0.04-0.58-0.06-0.87-0.06-0.413 0-0.8193 0.0385-1.2149 0.1124 1.496 0.9656 2.3631 3.2954 2.0266 5.8653-0.4188 3.1981-2.5428 5.5569-4.7442 5.2687-0.4859-0.0637-0.935-0.251-1.3353-0.5386 1.0374 1.3485 2.5891 2.3024 4.4078 2.5422 0.29 0.04 0.58 0.06 0.87 0.06 3.29 0 6.15-2.44 6.59-5.79 0.48-3.64-2.09-6.98-5.73-7.46z" clip-rule="evenodd" fill="#1e2e4d" fill-rule="evenodd"/>
 <path d="m111.34 83.58c0.63-4.79 4.75-8.41 9.58-8.41v-0.01c0.42 0 0.84 0.03 1.26 0.08 5.28 0.69 9.02 5.55 8.33 10.84-0.63 4.8-4.75 8.42-9.58 8.42-0.42 0-0.84-0.03-1.26-0.08-5.28-0.69-9.02-5.55-8.33-10.84zm10.45-5.33c-0.29-0.04-0.58-0.06-0.87-0.06-3.29 0-6.15 2.44-6.59 5.79-0.48 3.64 2.09 6.98 5.73 7.46 0.29 0.04 0.58 0.06 0.87 0.06 1.528 0 2.963-0.526 4.105-1.4249-0.482 0.1961-0.989 0.272-1.501 0.2051-2.201-0.2883-3.646-3.1145-3.228-6.3125 0.336-2.562 1.766-4.5855 3.453-5.1408-0.607-0.2861-1.268-0.4845-1.969-0.5769z" clip-rule="evenodd" fill="#1e2e4d" fill-rule="evenodd"/>
 <defs>
  <filter id="filter0_d_231_175" x="8" y="8" width="229.65" height="229.17" color-interpolation-filters="sRGB" filterUnits="userSpaceOnUse">
   <feFlood flood-opacity="0" result="BackgroundImageFix"/>
   <feColorMatrix in="SourceAlpha" result="hardAlpha" values="0 0 0 0 0 0 0 0 0 0 0 0 0 0 0 0 0 0 127 0"/>
   <feOffset dx="4" dy="4"/>
   <feGaussianBlur stdDeviation="3"/>
   <feColorMatrix values="0 0 0 0 0.117647 0 0 0 0 0.180392 0 0 0 0 0.301961 0 0 0 0.4 0"/>
   <feBlend in2="BackgroundImageFix" result="effect1_dropShadow_231_175"/>
   <feBlend in="SourceGraphic" in2="effect1_dropShadow_231_175" result="shape"/>
  </filter>
  <radialGradient id="paint0_radial_231_175" cx="0" cy="0" r="1" gradientTransform="matrix(117.05 0 0 117.05 107.26 67.48)" gradientUnits="userSpaceOnUse">
   <stop stop-color="#fff" offset=".44"/>
   <stop stop-color="#FEEDB7" offset="1"/>
  </radialGradient>
  <linearGradient id="paint1_linear_231_175" x1="103.07" x2="99.773" y1="68.389" y2="108.48" gradientTransform="translate(-8,-8)" gradientUnits="userSpaceOnUse">
   <stop stop-color="#FFDEBE" offset="0"/>
   <stop stop-color="#F5C1A7" offset=".6"/>
   <stop stop-color="#E88286" offset="1"/>
  </linearGradient>
 </defs>
</svg>
