<?xml version="1.0" encoding="UTF-8"?>
<svg width="701.48" height="1013.8" version="1.1" viewBox="0 0 701.48 1013.8" xmlns="http://www.w3.org/2000/svg" xmlns:cc="http://creativecommons.org/ns#" xmlns:dc="http://purl.org/dc/elements/1.1/" xmlns:rdf="http://www.w3.org/1999/02/22-rdf-syntax-ns#">
 <metadata>
  <rdf:RDF>
   <cc:Work rdf:about="">
    <dc:format>image/svg+xml</dc:format>
    <dc:type rdf:resource="http://purl.org/dc/dcmitype/StillImage"/>
   </cc:Work>
  </rdf:RDF>
 </metadata>
 <g transform="translate(-1216.4 -37.674)">
  <g>
   <path d="m1626.8 37.674-17.36 8.1599-0.16-0.08-29.2 0.72-7.2-0.72-12.64 0.79999-13.12-5.76-31.84 12.88-3.6 0.16h-35.36l-19.2 9.5999-7.04 0.95999-11.68 4.96-18.24 14.4-15.2 4.48-15.76 14.8-4.24 1.12-17.76 26-6.96 5.84-24.32 16.56-10.08 15.36-7.92 13.12-6.0799 27.52-10.88 18.72-2.6399 16.96-1.2 2.32-2.64 8.3999-6.96 58.88v0.15999l-6.9599 62.24-0.08 2-1.2 42.72 0.24 3.6 3.44 27.68 2.16 7.4399-1.44 2.96-2.56 11.6 1.52 42.24-7.92 19.76-0.64 16.16 7.44 23.6-7.28 21.92 0.32 16.24 8.16 21.2 12.96 13.44 12.56 5.44 1.36 4.4 2.56 8.3199 22.24 72.799 0.08 0.4 13.28 41.04-0.32 0.32 0.4-0.16v0.08l-5.52 3.68-3.7599 4.8-0.64 0.47999-2.72 2.48-2 2.24-5.9999 19.6 0.7199 5.04v0.16l0.08 0.31999-0.08 4.24 0.56 3.6 0.8 3.36-4.7999 5.2-0.16 0.16-3.68 1.28-3.52 1.36-3.3599 1.76-8.32 6.96-4.32 5.76-9.2799-0.15999-4.9599 0.95999-12.16 6.24-1.04 0.95998 1.44-0.63999-6.5599 4.24-3.84 4.88 0.72-1.44-1.36 1.92-2.64 2.4-1.9999 2.24-6.08 19.6 0.72 5.12v0.08l0.4-1.84-0.32 2.16v4.24l0.48 3.6 1.6 7.04 0.56 2 2.24 6.88 0.08 0.24-0.8 3.84-0.48 3.76-0.16 3.76 1.92 10.64 3.4399 8 4.08 6.4 4 4.48 15.12 8 5.9999 0.71999 6.88-0.16 1.5199 0.64 2.88 0.95999-0.32-0.16 0.32 0.24 2.4 0.56-2.08-0.4 14.32 4.08 8.24-0.32 14.64-5.68 4.64-3.92 5.84-7.3599 0.8 3.2 4.1599 8.5599 2.72 3.6 1.52 1.84 0.8 0.79999-0.16 3.04 1.04 6-0.56-1.44 0.56 2.24 0.08 3.68 0.32 2.96 10.64 17.52 4.32 2.8 0.08 0.08-1.2-1.52 1.44 1.68 3.1999 2.88 3.04 2 6.32 3.4399 1.84 0.88 6.6399 2.88 0.24 0.08 2.32 3.2 2.48 2.8 2.72 2.6401 9.2799 5.5999 8.3199 2.72 7.36 1.2 6.0799 0.08 12.8-3.68 5.92 0.72 6.8799-0.16 1.52 0.64 2.88 0.96-0.32-0.24 0.32 0.24 2.4 0.56-2.08-0.32 14.32 4.08 8.2399-0.32 14.64-5.68 4.64-3.9999 6.2399-8.2401 0.96-0.32 9.76-6.96-0.32-0.16h0.4l1.52-0.2399 7.8399-2.72 1.28 0.4 16.72-1.76 4.4799-2.16 3.76-2.32 31.44 6.4 2.32 2.8799 4.3999 7.04 12.16 9.9201 5.76 2.0799 10.24 1.36 0.8 0.64 20.8 4.64h0.16l-1.44-0.48 20.4-3.28 3.2-2.16 9.6799-14.08 0.48-0.72 3.2-1.68 7.3599-6.0799 2.8-3.52 1.44-1.92 2.88-4.4 1.12-0.96 5.4399-6.6398 5.76-10.72 0.56-0.72 3.12-1.68 7.3599-6.08 1.36-1.6 5.04 1.2 5.9999 0.71999 6.88-0.16 1.52 0.64 2.7999 0.95999-0.24-0.16 0.32 0.24 2.4 0.56-2.08-0.4 14.32 4.08 8.24-0.32 14.64-5.68 4.6399-3.92 6.24-8.2399 0.96-0.39999 10.32-7.76 10.96 8.0799 5.76 2.08 10.24 1.36 0.8 0.63999 20.8 4.72 0.16-0.08-1.44-0.4 20.4-3.28 3.2-2.24 9.5999-14 0.56-0.72 3.12-1.68 7.3599-6.08 2.8-3.52 1.44-1.92 2.88-4.4 1.2-0.95999 8.4799-18.32v-2.88l-2.64-11.12-2.16-4.08v-0.08l-0.08-0.79999-0.4-3.76-1.12-4.8-0.64-1.84-4.5599-6.96v-1.36l-5.6-15.84-3.28-3.76-11.44-7.52-1.44-0.39999 1.28 0.95999-6.9599-3.68-6-0.88 1.52-0.15999-2.24-0.16-3.5199-1.12-2.88-0.63999h-0.08l-0.88-1.92-2.4-4.72-0.24-1.44-11.68-16.48-2.56-1.44-10.96-3.12h-0.32l-1.68-3.2v-0.08l-0.08-0.79999-0.4-3.68-1.12-4.96-0.64-1.76-4.5599-6.96v-1.36l-5.6-15.76-3.28-3.84-4.4799-4.08 37.12-107.6 5.3599-15.52 1.28-3.52 12.88-7.7599 9.12-9.8399 6.9599-13.92 1.84-16.24-5.6-23.44-1.4399-35.6 6.7999-67.2 0.08-3.04-0.4-16.32-9.2799-18.32 0.16-4-1.2-23.04v-0.56l-5.76-78.479-0.32-2.24-13.84-81.919-2.8-7.8399-16.64-29.28-3.36-10.08-4.08-7.5199-8.6399-10.56-9.8399-17.36-14.88-27.44-18.24-12.4-6.1599-7.5199-0.96-1.04-12.64-13.84-23.28-7.1199-8.7999-5.84-4.32-2.32-51.2-20.64-12.4-9.5999-7.4399-3.84zm261.44 924.71-0.16 0.48 0.08-0.4zm-90.079 5.84-0.72 2.8zm42.48 7.9999-2.8799 0.87999zm-127.28 18-0.16 0.48 0.08-0.4zm-175.44 4m-19.68 28.48-0.72 2.88zm164.64 4.1599-0.24 0.4801 0.08-0.4001zm-47.6 13.92-2.88 0.8z" fill="#040401"/>
   <path d="m1802 821.01-1.6-2.8799 0.8-2.16 0.32-3.92 2.32-3.6 0.08-7.1999-3.2-3.84-5.5199-1.6-2.24-1.68-2.72 0.72-3.84 0.24-1.5199-2.64-2.88-0.63999-4.08 3.12-2.56 5.68 0.16 4.72 1.28 2.1599 1.68 3.44-2.96 3.6-3.04 1.92-3.6799-2.32-3.92 1.84-4.08 0.64-3.9999-1.52-3.52-0.24-5.04 1.6-3.4399 1.76-5.28 6.9599-1.92 5.76 2.32 5.5199 5.7599 6.16 0.56 3.8399 1.68 3.68 6.8 3.84 5.3599 0.96 5.12-3.84 2.16-2.88 3.12 1.84 4.3999 1.2 7.92 0.96 3.6799-1.52 1.76 0.48 2.32 2.64 7.6 2.64 5.9199-3.2 2.8-3.52 4.8-7.2799 3.8399-3.28v-2.88l-2.08-4.0799-4.0799-3.76-2.72-0.72-1.6-2.24-1.92-2.24z" fill="#f2efc1"/>
   <path d="m1799.9 843.49 4.8 0.32 2.96-2 3.28-4-0.8-5.2799-2.16-3.12 0.24-3.92 2.56-2.48-0.48-3.76-3.92 0.4-4.32-0.6399-3.5999-1.36-4.24 0.88-2.24 4.8799-2.16-0.8-2.8-4.1599 1.84-4 0.96-5.36-2.8-4.3199-0.88-3.6-3.5199-2.4-5.12-2.24-4.88 1.68-5.3599 4.88-4.88 5.3599-2.48 4.64 2.8 4.08 2.56 3.9199-1.6 1.84-2.16 3.6-4.7199 6-1.12 3.6799-4.96 2.24-4.32 3.44-1.4399 4.9599 0.3999 3.76 1.12 3.12-0.48 4.72 4.4 7.0399 5.76 2.08 5.1199-1.84 1.68 0.56 6.72 3.68 4.3999 3.5199 6.4-1.5199 4.72 1.3599 3.1999-2.2399 0.4-2.96 2.88-4.64 3.6-4.7999-0.24-3.04-2.24-3.04 1.76-3.6 1.68-2.8799 2.56-1.52z" fill="#fefbde"/>
   <path d="m1388 807.41h-3.28l-1.44-1.8399-3.2799-2.16-2-3.84-6.16-3.6-4.8799 0.88-4.24 4-2.48 1.12-0.72 2.72-1.68 3.4399h-3.12l-1.9999 2.16 0.8 5.12 3.5999 5.04 4.16 2.2399h2.56l3.8399 0.16 1.6 4.32 0.16 3.68-3.7599 2-0.4 4.3199-1.44 3.84-3.28 2.72-2 2.88-1.04 5.2799-0.24 3.84 3.44 7.9999 4 4.56 5.9999 0.72 8.24-2 3.5999 1.44 4 0.32 6.72-4 3.4399-4.1599-0.72-6.32-1.44-3.28 3.04-1.84 3.28-3.2799 4.72-6.32 0.56-4 1.28-1.28 3.4399-0.7199 6-5.28 0.24-6.72-1.68-4.1599-4-7.84-0.88-4.8799-2.56-1.44-4.5599-0.24-5.28 1.68-2 2-2.7199 0.32-2.88 0.5599z" fill="#f2efc1"/>
   <path d="m1406.6 820.37 2.6399-3.9999-0.32-3.6-1.7599-4.8-4.96-2-3.92 0.4-3.28-2.1599-0.7999-3.44-3.52-1.52-1.6 3.68-2.72 3.3599-2.96 2.56-1.36 4 3.12 4.4-1.68 1.44-4.9599 0.4-2.64-3.52-4.16-3.52-5.1999 0.32-3.44-1.04-3.92 1.92-4.48 3.28-0.9599 5.1199 1.5999 7.04 2.24 6.8799 2.8 4.48 4.96-0.4 4.6399-0.32 0.8 2.32 2.08 3.68 2.88 7.1199 2.64 2.72-0.48 5.44 0.88 5.5199 3.5199 3.6 3.52 1.52 3.2 0.56 3.92 2.7999 8.2399-0.3199 4.72-3.92 0.88-5.44 1.3599-1.2 6.56-4 5.2-2.0799 1.8399-6.32 3.52-3.44-0.32-3.8399-2.48-1.84-2.5599-4.8-2.4-5.5199-2.8-1.28-3.68 0.4-2.24-3.28-1.6799-2.96-0.08-2.96z" fill="#fefbde"/>
   <path d="m1762.4 860.45h-3.28l-1.4399-1.8399-3.28-2.16-2-3.84-6.16-3.6-4.9599 0.88-4.16 4-2.56 1.12-0.72 2.72-1.6 3.4399h-3.1199l-2 2.16 0.72 5.12 3.68 5.0399 4.1599 2.24h2.56l3.84 0.16 1.6 4.32 0.16 3.68-3.76 2-0.4 4.3199-1.44 3.84-3.28 2.72-2 2.88-1.12 5.2799-0.1599 3.84 3.4399 7.9999 4 4.56 6 0.72 8.1599-2 3.68 1.44 3.9999 0.32 6.72-4 3.44-4.1599-0.72-6.32-1.44-3.28 3.04-1.84 3.2799-3.2799 4.72-6.32 0.56-4 1.28-1.2799 3.44-0.72 5.9999-5.28 0.16-6.72-1.6-4.1599-4-7.84-0.8799-4.8799-2.56-1.44-4.56-0.24-5.28 1.68-1.9999 2-2.72 0.32-2.88 0.56z" fill="#f2efc1"/>
   <path d="m1781 873.41 2.56-4.08-0.24-3.52-1.76-4.7999-4.96-2-3.92 0.4-3.2799-2.16-0.88-3.44-3.44-1.52-1.6 3.68-2.72 3.36-2.9599 2.5599-1.36 4 3.1199 4.4-1.7599 1.44-4.88 0.4-2.64-3.52-4.24-3.52-5.1199 0.32-3.52-1.04-3.84 1.92-4.4799 3.28-0.96 5.1199 1.6 7.04 2.2399 6.8799 2.8 4.48 4.96-0.4 4.64-0.32 0.8 2.32 1.9999 3.68 2.96 7.1199 2.56 2.72-0.4 5.44 0.8 5.5199 3.6 3.6 3.4399 1.52 3.28 0.56 3.92 2.7999 8.2399-0.32 4.72-3.9999 0.88-5.36 1.36-1.2 6.4799-4.0799 5.28-2 1.84-6.32 3.5199-3.44-0.32-3.8399-2.4799-1.84-2.56-4.88-2.4-5.4399-2.8-1.28-3.6799 0.4-2.24-3.28-1.76-2.96v-2.96z" fill="#fefbde"/>
   <path d="m1571.3 75.893-90.559 7.3599-79.119 48.16-62 73.439-19.6 86.399-6.4799 168.08-6.56 13.04 1.68 47.36-9.8399 24.4 9.8399 31.04-9.8399 29.36 8.1599 21.2 22.88 9.7599 29.36 96.319 53.84 166.4 104.4 83.199 104.4 21.2 83.199-45.68 53.84-91.359 79.52-230.48 20.4-12.24 6.96-13.84-6.16-25.68-1.6-39.6 6.96-68.879-0.4-16.32-13.92-2.88-3.68-37.12-8.1599-130.48-26.08-78.319-55.44-68.559-88.079-44-40.8-13.12z" fill="#f7b9a4"/>
   <path d="m1420.8 445.65v-9.9199l20.32-14.4 34.64-6.4 42.08 21.76z" fill="#ea9477"/>
   <path d="m1417.7 447.41 24.8-18.88 32.56-7.6799 33.28 12.88 12.88 4.24-0.88 6.8-18.8 5.2-17.12 9.3599-28.24 2.56-27.36-7.6799z" fill="#fff"/>
   <path d="m1652.5 442.85 17.28-17.84 12.88-5.9199 40.56 2.48 15.36 14.88 5.44 14.32z" fill="#ea9477"/>
   <path d="m1659.7 439.65-12 2.56v4.32l24.8 10.24 35.12 4.32 29.92-3.44 11.12-3.44-15.44-18.8-23.92-10.24h-29.04z" fill="#fff"/>
   <path d="m1615.2 481.57 11.12 19.68 1.76 14.48 6.8 9.4399v-13.68l-3.44-12.8zm-70.08 4.24-10.24 16.32 1.52 7.68h-10.96l-13.68 10.24-6 17.12 10.32-13.68 10.24-7.76 10.08-5.84 1.04 5.04-0.88 10.24 3.44 3.44 5.1199-13.68-0.88-7.6799zm100.88 24 5.9999 9.3599 8.56 6.88 10.24 12.8-10.24-19.68zm44 42.16 28.4 44.08 17.52 35.12 2.48 21.12-4.88 24.16 9.68-24.72-3.6-24.8-13.92-28.48zm-209.76 0.55999-27.84 39.92-15.12 34.48 1.2 39.84 3.04 11.52-1.2-21.12 2.4-28.48 16.32-37.44zm273.2 154.16-37.44 119.12-27.2 56.24 27.2-46.56 19.36-58.08zm-325.84 8.4799 3.04 23.6 24.8 83.999 9.6799 16.96 34.4 61.04 14.56 16.96-13.28-21.2-38.16-68.88z" fill="#ea9477"/>
   <path d="m1666.6 548.45-2.6399 11.12-8.48 6-11.12-0.87999-10.32-5.92-11.12-3.44-8.48 2.56-10.32 10.24-10.24 4.32h-12l-11.04-4.32-19.68-10.24-13.68-1.76-13.68 5.2-12 2.56-5.12-6-3.44-5.12 2.56 12.8 9.44 5.12 15.36-5.12 15.44-2.56 10.24 3.44 10.16 6.72 16 6.72 13.44-1.04 12.96-5.6 8.1599-8.3199 11.2-2 8.8 4.24 14.16 3.04 9.04-0.48001 6.9599-6.1599z" fill="#d06b49"/>
   <path d="m1535.6 557.89-4.96 2.16-0.16 2.56 10.64 1.44 8.5599 0.48 4.88-0.48 0.88-2.96-4.48-2.56-11.36-1.28z" fill="#5a3224"/>
   <path d="m1637.9 559.17-11.04-2.16-6.2399 1.52-6.64 2.56-0.64 2.16 3.44 1.28 7.9199-1.52 8.72 1.52 5.3599 1.04 1.28-2.56z" fill="#5a3224"/>
   <path d="m1564.7 635.01-53.04 8.5599-33.36 14.56-10.24 26.48 8.5599 31.68 48.72 85.439 55.6 26.56 47.04-8.56 29.04-22.24 31.68-62.4 11.04-41.04 1.76-28.24-34.24-18.8-57.28-11.12z" fill="#d98680"/>
   <path d="m1581.2 646.85-55.68 3.6-34.4 13.92-10.32 16.32 7.84 33.84 30.24 38.16 36.88 31.44 27.84 4.8 33.84-3.04 36.32-25.36 23.52-32.08 13.92-24.8 2.4-18.08-5.4399-18.16-13.28-8.4799-52-9.6799z" fill="#4f211a"/>
   <path d="m1490 671.65 5.44 3.04 4.8-1.84 4.7999 4.24 4.24-2.4 9.6799 6.08 3.68-1.2 2.96-6.08 4.2399 5.44 4.88 1.2 5.44-9.0399 4.7999-1.2 4.24 3.6 9.0399-1.84 3.68 0.63999 7.84 4.24 15.12 1.76 7.28-5.44 5.9999 3.04 19.36-0.56 5.44-1.84 6.6399 3.04 7.28-3.04 5.4399 5.44 6.08 2.4 5.4399-3.6 6.64 3.04 7.1999-1.2 4.24-3.04 5.44 1.2 5.4399-4.24 4.24-2.4-2-7.5999-7.5199-5.36-5.6-0.4-5.44-2.96h-5.9999l-11.52-4.24-19.36-1.84h-14.48l-21.2-2.4-22.96-3.04-16.32 1.84-13.92 0.56-4.24 3.04h-11.44l-6.64 1.84-4.8799 3.6-8.48-0.56-11.44 4.16-4.24 7.28z" fill="#fff"/>
   <path d="m1470.9 421.89-28.4 6.64-4.56 3.52-0.8 1.92 1.76 16 4.48 8.3199 12.8 3.6 13.6-1.2 10.56-10.08-1.2-14.8-3.36-9.9999z" fill="#728ca6"/>
   <path d="m1440.7 430.69-2.4 10.24 4.16 8.4799 10.64 0.88 6-3.92 1.52-8.3999-1.52-8.1599-9.92-3.28z" fill="#351e17"/>
   <path d="m1699.8 425.17-1.2 0.64-4.24 9.6799 1.84 16 4.72 8.7199 6.7199 0.88 23.36-2.72 6.6399-6.24-1.04-12.64-3.36-4.08-23.92-10.24z" fill="#728ca6"/>
   <path d="m1705.9 425.89-3.5999 15.44 6.3199 12.72 15.92 1.36 9.1199-5.84 2.24-12.72-2.24-12.32-14.96-4.8z" fill="#351e17"/>
   <path d="m1855.5 436.77-8.0799 28.8-11.52 21.92-17.36-56.48-1.12-71.519-16.16-108.48-46.16-58.8-47.04-39.6-37.2-0.71999 8.0799 10.4-28.8-9.2799-41.92 4.4 13.92 8.0799-46.16-2.32-40.4-4.64-49.28-4.32 15.04 6.88-35.76-2.4-56.88 20-38.88 57.36-16.16 51.92-2.32 62.24-10.4 96.959-9.1999 56.48-9.2799-34.56-13.84-20.8-3.44-27.68 1.2-42.72 6.88-62.24 6.9599-58.88 10.32-19.6-6.8799 1.12 12.72-21.92 6.8799-31.12 19.6-10.4-11.52-3.44 25.36-17.28 30-25.36-13.84-2.32 26.56-6.96-5.76-9.1999 19.6-5.76 21.92-17.36 34.56-4.56-11.52-5.76h35.76l30-1.2-4.6399-13.84 18.48 8.0799 18.48-1.12 26.56 8.0799-5.76-12.72 12.64 9.1999 9.2799 1.2 10.32-13.84v16.16l9.2799 3.44 6.88-2.32 15.04 11.52 54.16 21.92 24.24 16.16 3.44-6.88 12.72 13.84 20.8 25.36 1.12-9.1999 15.04 27.68 42.64 74.959 13.84 81.919 5.7599 78.399z" fill="#cf9873"/>
   <path d="m1544.5 380.21-32.24-29.44-28.88-12.64-15.6-4.64 1.2 2.88-22.48-1.68-23.68 3.44-32.32 8.6399h8.6399l-13.2 5.76-15.04 15.6 17.92-2.88h18.4l22.56-7.52 36.32 3.44 31.68 9.2799 22.56 12.64 23.6 6.4 5.2-2.88z" fill="#bf8b64"/>
   <path d="m1636.3 392.93 19.6-24.8 27.12-14.4 47.28-3.52-8.08 4.08 24.24 1.68 29.44 10.4 12.64 13.84 4.64 7.52-20.16-4.64-44.48-1.12-29.92-2.88-32.32 3.44-19.04 10.96z" fill="#bf8b64"/>
  </g>
  <g fill="#ea9477">
   <path d="m1307.2 479.41 0.24 6.88 8.8799 8.9599 8.56 15.04 3.2799 1.68-5.2799-13.92-10.64-17.52z"/>
   <path d="m1854.7 468.29-11.36 23.28-1.68 10.56 7.76-13.04 7.7599-16.32zm-526.96 58.32v90.159l0.96 18.24 1.12 0.48 4.56 15.12c3.44 4.96 11.2 16 10.48 14.72-0.8-1.68-9.3599-34.72-9.3599-34.72l-3.68-54.64-0.8-40.4zm509.84 0.8-2 83.679-9.04 45.2 7.76-9.3599 4.08-11.84 1.8399-1.12 1.84-50.64z"/>
   <path d="m1375.6 721.73 48.4 110.72 46.16 91.119 54.24 32.32 81.919 19.6 54.24-14.96 41.52-35.76 48.4-77.359 26.56-81.839-25.36 93.439-40.4 64.56-43.84 40.4-56.48 19.6-89.999-21.92-57.68-35.76-41.52-71.52z"/>
  </g>
  <path d="m1337 658.93 22.24 72.879 53.84 166.4 104.4 83.199 104.4 21.2 83.199-45.68 53.84-91.359 70.08-203.12-6.3999 0.79999-50.64 94.639-38.32 112.56-50.56 61.2-72.64 20.4-96.239-6.56-63.6-60.32-54.64-130.56z" fill="#bf8b64" fill-opacity=".28226"/>
  <path d="m1627.1 444.61 8.32 2.88 3.0399 17.12-2.1599 10.48-10.08 0.48-5.2799-11.28-1.36-14.72z" fill="#f5f5f5" fill-opacity=".46465"/>
  <g>
   <path d="m1503.5 719.25h-3.2799l-1.44-1.84-3.28-2.16-2-3.84-6.1599-3.6-4.88 0.87999-4.24 4-2.48 1.12-0.7999 2.72-1.6 3.44h-3.12l-2 2.16 0.8 5.12 3.6 5.12 4.1599 2.16h2.56l3.84 0.16 1.6 4.4 0.16 3.6-3.76 2-0.4 4.4-1.44 3.76-3.28 2.72-1.9999 2.96-1.12 5.28-0.16 3.76 3.4399 7.9999 4 4.56 6 0.72 8.1599-2 3.68 1.44 4 0.4 6.7199-4 3.44-4.16-0.72-6.4-1.44-3.28 3.04-1.84 3.2799-3.2 4.72-6.4 0.56-4 1.28-1.28 3.44-0.72 5.9999-5.28 0.16-6.72-1.6-4.16-3.9999-7.8399-0.88-4.88-2.56-1.44-4.56-0.16-5.2799 1.6-2 2-2.72 0.4-2.88 0.47999z" fill="#f2efc1"/>
   <path d="m1522 732.21 2.64-4-0.32-3.6-1.76-4.8-4.96-1.92-3.9199 0.31999-3.28-2.16-0.88-3.44-3.44-1.44-1.6 3.6-2.7199 3.44-2.96 2.48-1.36 4.08 3.12 4.32-1.68 1.52-4.96 0.4-2.64-3.52-4.2399-3.6-5.12 0.32-3.52-0.95999-3.8399 1.84-4.48 3.36-0.96 5.04 1.6 7.04 2.24 6.96 2.7999 4.4 4.96-0.39999 4.64-0.32 0.8 2.32 2.08 3.68 2.8799 7.12 2.64 2.72-0.48 5.44 0.8 5.52 3.6 3.68 3.52 1.44 3.1999 0.56 3.92 2.8 8.2399-0.32 4.72-3.92 0.88-5.36 1.36-1.28 6.5599-4 5.2-2.08 1.84-6.32 3.52-3.44-0.32-3.84-2.48-1.84-2.56-4.8-2.4-5.52-2.8-1.28-3.6799 0.48-2.24-3.36-1.68-2.88-0.08-2.96z" fill="#fefbde"/>
   <path d="m1544.8 807.49 2.16 2.48-0.4 2.24 0.48 3.92-1.6 3.9999 1.36 7.04 3.92 3.12 5.6799 0.56 2.56 1.2 2.48-1.2 3.68-1.04 2.08 2.32 2.9599 0.08 3.36-3.92 1.44-6.08-1.12-4.5599-1.68-1.92-2.32-2.96 2.24-4.16 2.56-2.48 4.08 1.6 3.52-2.6399 3.8399-1.36 4.16 0.64 3.52-0.4 4.7199-2.64 2.96-2.32 3.76-7.84 0.8-6-3.36-5.04-6.8799-4.88-1.28-3.68-2.32-3.28-7.44-2.4-5.4399 0.08-4.32 4.72-1.52 3.28-3.36-1.12-4.6399-0.32-7.84 0.56-3.4399 2.24-1.76-0.16-2.8-2.16-7.9199-1.04-5.2 4.24-2.08 4-3.28 8.1599-3.1199 3.92 0.56 2.88 2.8799 3.52 4.64 2.88 2.8 0.24 2.08 1.76 2.3199 1.84z" fill="#f2efc1"/>
   <path d="m1542.5 785.01-4.8 0.63999-2.48 2.56-2.48 4.48 1.76 5.04 2.8 2.72 0.56 3.84-2 2.9599 1.12 3.52 3.76-1.12 4.3999-0.16 3.84 0.56 3.92-1.68 1.28-5.1999 2.2399 0.4 3.52 3.4399-0.96 4.32 0.16 5.44 3.52 3.6799 1.6 3.36 3.92 1.6 5.4399 1.28 4.48-2.64 4.24-5.8399 3.7599-6.24 1.52-5.04-3.52-3.4399-3.2799-3.28 1.2-2.16 1.4399-3.92 3.44-6.7999 0.4-3.84 4.4-3.2 3.6-4.24 0.4-5.12-1.12-3.6-1.76-2.8-0.4-4.8-5.68-6-6.0799-0.95999-4.64 2.8-1.76-0.16-7.3599-2.32-4.96-2.56-5.9999 2.8-4.88-0.47999-2.72 2.8 0.24 3.04-2 5.12-2.56 5.36 0.88 2.96 2.72 2.48-0.96 3.92-1.12 3.2-2.24 2z" fill="#fefbde"/>
   <path d="m1631.5 794.93 3.2-0.88 1.84 1.28 3.7599 1.28 2.96 3.12 6.96 1.76 4.4799-2.16 2.88-5.04 2.16-1.68v-2.88l0.64-3.76 2.96-0.79999 1.2799-2.64-2.0799-4.72-4.88-3.92-4.56-0.95999-2.4799 0.71999-3.68 0.88-2.8-3.76-1.2-3.44 3.2-2.96-0.88-4.32 0.4-4.08 2.4-3.52 1.12-3.36-0.4-5.36-0.88-3.68-5.44-6.8-5.12-3.28-5.9999 0.95999-7.28 4.16-3.9199-0.4-3.92 0.72-5.36 5.68-2.2399 4.96 2.4799 5.92 2.24 2.72-2.48 2.64-2.2399 4-2.8 7.44 0.56 4-0.88 1.52-3.12 1.68-4.32 6.72 1.6 6.48 2.72 3.6 6 6.4 2.2399 4.48 2.8 0.72 4.4-1.04 4.64-3.04 1.3599-2.48 2.56-1.04 2.64-1.36z" fill="#f2efc1"/>
   <path d="m1610.1 787.49-1.44 4.56 1.28 3.36 3.0399 4.16 5.28 0.48 3.6-1.36 3.7599 1.2 1.76 3.04 3.76 0.48 0.56-3.92 1.68-4 2.16-3.2 0.24-4.32-4.24-3.36 1.28-1.84 4.6399-1.76 3.52 2.72 4.96 2.24 4.8799-1.68h3.68l3.12-2.88 3.44-4.4-0.4-5.12-3.52-6.4-4-6-3.9199-3.52-4.64 1.68-4.4 1.6-1.44-2-2.8799-2.96-4.72-6.08-3.28-1.92-1.12-5.36-2.24-5.04-4.4799-2.56-3.68-0.48001-3.36 0.32001-4.4799-1.6-7.84 2.56-3.44 5.04 0.56 5.44-0.96 1.52-5.1999 5.68-4.48 3.36v6.64l-2.48 4.24 1.36 3.6 2.88 1.12 3.76 3.92 3.84 4.64 3.0399 0.48 3.36-1.44 3.12 2.56 2.48 2.4 0.8 2.8z" fill="#fefbde"/>
   <path d="m1707.5 724.61-1.6-2.88 0.8-2.16 0.32-3.92 2.32-3.6 0.08-7.1999-3.2-3.84-5.5199-1.6-2.24-1.68-2.72 0.72-3.84 0.32-1.5199-2.72-2.88-0.64-4.08 3.12-2.56 5.68 0.16 4.72 1.28 2.24 1.68 3.36-2.96 3.6-3.04 1.92-3.6799-2.32-3.92 1.84-4.08 0.64-3.9999-1.52-3.44-0.24-5.12 1.68-3.4399 1.68-5.2 6.9599-2 5.76 2.32 5.52 5.7599 6.16 0.56 3.84 1.68 3.68 6.8 3.84 5.3599 0.95998 5.12-3.84 2.16-2.88 3.12 1.84 4.3999 1.2 7.92 0.95999 3.6799-1.52 1.76 0.47999 2.32 2.64 7.6 2.64 5.9199-3.2 2.8-3.52 4.8-7.2799 3.8399-3.28v-2.88l-2.08-4.08-4.0799-3.76-2.72-0.71999-1.6-2.16-1.92-2.32z" fill="#f2efc1"/>
   <path d="m1705.5 747.09 4.8 0.32 2.96-2 3.28-4-0.8-5.28-2.16-3.12 0.24-3.92 2.56-2.48-0.48-3.76-3.92 0.4-4.32-0.64-3.5999-1.36-4.24 0.87999-2.24 4.88-2.16-0.8-2.8-4.08 1.84-4.08 0.96-5.36-2.8-4.32-0.88-3.52-3.5199-2.4-5.12-2.32-4.88 1.68-5.3599 4.88-4.88 5.36-2.48 4.64 2.8 4.08 2.64 3.92-1.68 1.84-2.16 3.6-4.7199 6-1.12 3.68-4.96 2.32-4.32 3.44-1.4399 4.88 0.4799 3.76 1.04 3.12-0.48 4.72 4.4 7.04 5.76 2.16 5.1199-1.92 1.68 0.56 6.72 3.68 4.3999 3.52 6.4-1.52 4.72 1.36 3.1999-2.16 0.4-3.04 2.88-4.64 3.6-4.8-0.24-3.04-2.24-3.04 1.76-3.52 1.68-2.96 2.56-1.52z" fill="#fefbde"/>
   <path d="m1510 776.29-3.04 1.28-2-1.12-3.8399-0.72-3.36-2.8-7.04-0.96-4.2399 2.72-2.32 5.28-1.92 2 0.4 2.8-0.16 3.84-2.88 1.12-1.04 2.8 2.64 4.4 5.28 3.36 4.7199 0.4 2.4-0.96 3.52-1.36 3.2 3.44 1.6 3.28-2.8 3.2799 1.36 4.16 0.16 4.08-2 3.84-0.72 3.4399 1.04 5.28 1.28 3.5999 6.2399 6 5.44 2.72 5.8399-1.68 6.72-4.96 3.92-0.08 3.8399-1.2 4.72-6.2399 1.52-5.2-3.04-5.5999-2.64-2.48 2.16-2.88 1.76-4.24 1.92-7.6799-1.04-3.92 0.72-1.68 2.88-2 3.5199-7.12-2.3999-6.32-3.12-3.2-6.72-5.68-2.72-4.16-2.8799-0.4-4.32 1.6-4.24 3.52-1.04 2.64-2.3999 1.36-2.48 1.6z" fill="#f2efc1"/>
   <path d="m1532 781.17 0.88-4.72-1.6-3.2-3.5199-3.76-5.28 0.16-3.44 1.76-3.9199-0.72-2.08-2.8-3.76-0.08-0.08 4-1.2 4.16-1.76 3.44 0.32 4.24 4.56 2.88-1.12 2-4.4 2.32-3.7599-2.32-5.2-1.6-4.64 2.24-3.5999 0.39999-2.88 3.28-2.88 4.72 1.04 5.12 4.24 5.8399 4.7199 5.52 4.32 3.04 4.4-2.24 4.1599-2.16 1.6 1.92 3.28 2.56 5.4399 5.4399 3.44 1.6 1.68 5.12 2.88 4.7999 4.72 2h3.7599l3.28-0.72 4.64 1.12 7.5199-3.5199 2.8-5.44-1.2-5.28 0.72-1.68 4.48-6.2399 4.0799-3.84-0.8-6.5599 2-4.56-1.84-3.44-2.9599-0.72-4.16-3.5199-4.32-4.08-3.12-0.16-3.1999 1.84-3.36-2.16-2.72-2.08-1.2-2.72z" fill="#fefbde"/>
   <path d="m1563 821.57-3.04 1.28-2-1.12-3.8399-0.8-3.36-2.7199-7.04-1.04-4.2399 2.72-2.32 5.3599-1.92 1.92 0.4 2.8-0.16 3.84-2.88 1.1999-1.04 2.8 2.64 4.4 5.28 3.28 4.7199 0.4 2.4-0.96 3.52-1.28 3.2 3.3599 1.6 3.28-2.8 3.36 1.36 4.16 0.16 4.0799-2 3.76-0.72 3.44 1.04 5.2799 1.28 3.6 6.2399 6.08 5.44 2.64 5.8399-1.6 6.72-5.04h3.92l3.8399-1.2 4.72-6.3199 1.52-5.2-3.12-5.52-2.56-2.4799 2.16-2.88 1.76-4.24 1.92-7.7599-1.04-3.84 0.72-1.68 2.88-2 3.5199-7.1999-2.3999-6.24-3.12-3.28-6.72-5.5999-2.7199-4.24-2.88-0.32-4.32 1.52-4.24 3.6-1.04 2.56-2.3999 1.44-2.48 1.5999z" fill="#f2efc1"/>
   <path d="m1585.1 826.37 0.88-4.72-1.6-3.1199-3.5199-3.76-5.28 0.08-3.44 1.76-3.9199-0.72-2.08-2.8h-3.76l-0.08 3.92-1.2 4.2399-1.76 3.44 0.24 4.24 4.56 2.88-1.04 1.9999-4.4 2.24-3.7599-2.24-5.2-1.6799-4.64 2.2399-3.5999 0.48-2.88 3.2-2.88 4.8 1.04 5.0399 4.24 5.92 4.7199 5.5199 4.32 3.04 4.4-2.32 4.1599-2.0799 1.6 1.8399 3.28 2.64 5.44 5.44 3.4399 1.52 1.68 5.1999 2.88 4.72 4.72 2 3.7599 0.08 3.28-0.72 4.64 1.04 7.5199-3.44 2.8-5.4399-1.2-5.36 0.72-1.6 4.48-6.2399 4.0799-3.92-0.8-6.56 2-4.4799-1.84-3.44-2.9599-0.8-4.16-3.44-4.32-4.16-3.1199-0.08-3.2 1.84-3.36-2.2399-2.72-2-1.2-2.8z" fill="#fefbde"/>
   <path d="m1634.3 807.73-1.68-2.8799 0.88-2.16 0.32-3.92 2.32-3.6 0.08-7.1999-3.2-3.76-5.52-1.68-2.24-1.68-2.7199 0.72-3.84 0.32-1.52-2.72-2.88-0.63999-4.08 3.12-2.5599 5.68 0.16 4.72 1.2 2.2399 1.7599 3.36-2.9599 3.6-3.12 2-3.6-2.4-3.92 1.84-4.0799 0.64-4-1.44-3.52-0.32-5.1199 1.68-3.36 1.68-5.28 6.9599-1.92 5.76 2.32 5.5199 5.76 6.16 0.56 3.8399 1.68 3.68 6.7999 3.84 5.28 0.96 5.1999-3.76 2.16-2.88 3.04 1.76 4.48 1.2 7.8399 0.96 3.76-1.52 1.76 0.48 2.32 2.64 7.5999 2.64 5.92-3.2 2.7999-3.44 4.8-7.3599 3.84-3.2v-2.96l-2.08-3.9999-4.08-3.84-2.72-0.72-1.68-2.16-1.9199-2.24z" fill="#f2efc1"/>
   <path d="m1632.3 830.21 4.8 0.32 2.9599-2 3.28-3.92-0.8-5.2799-2.16-3.2 0.24-3.92 2.56-2.48-0.48-3.76-3.92 0.4801-4.3199-0.7201-3.6-1.3599-4.24 0.88-2.24 4.8799-2.1599-0.8-2.8-4.0799 1.76-4.08 1.04-5.36-2.8-4.32-0.88-3.52-3.52-2.4-5.1199-2.32-4.88 1.68-5.36 4.88-4.8799 5.3599-2.48 4.64 2.8 4.16 2.5599 3.8399-1.5999 1.84-2.16 3.6-4.8 5.9999-1.04 3.68-4.9599 2.32-4.4 3.44-1.36 4.8799 0.4 3.76 1.12 3.12-0.48 4.8 4.32 6.9599 5.7599 2.16 5.2-1.92 1.68 0.56 6.7199 3.68 4.4 3.5999 6.3999-1.5999 4.72 1.3599 3.2-2.1599 0.4-3.04 2.8799-4.64 3.6-4.7999-0.24-3.04-2.24-2.96 1.76-3.6 1.68-2.96 2.56-1.5199z" fill="#fefbde"/>
   <path d="m1519.1 834.69h-3.28l-1.4399-1.8399-3.28-2.16-2-3.84-6.16-3.6-4.8799 0.88-4.24 4-2.48 1.12-0.8 2.72-1.6 3.4399h-3.1199l-2 2.16 0.72 5.12 3.68 5.1199 4.1599 2.16h2.56l3.84 0.16 1.6 4.4 0.16 3.6-3.76 1.9999-0.4 4.4-1.44 3.76-3.28 2.72-2 2.9599-1.1199 5.2-0.16 3.84 3.4399 7.9999 4 4.56 6 0.72 8.1599-2 3.68 1.44 3.9999 0.4 6.72-4 3.44-4.24-0.72-6.3199-1.44-3.28 3.04-1.84 3.2799-3.2 4.72-6.3999 0.56-4 1.28-1.28 3.44-0.72 5.9999-5.2799 0.16-6.72-1.6-4.1599-3.9999-7.84-0.88-4.8799-2.56-1.44-4.56-0.16-5.28 1.6-1.9999 1.9999-2.72 0.32-2.88 0.56z" fill="#f2efc1"/>
   <path d="m1537.6 847.65 2.64-3.9999-0.32-3.6-1.76-4.8-4.96-1.9199-3.92 0.32-3.2799-2.16-0.88-3.44-3.44-1.44-1.6 3.6-2.72 3.44-2.9599 2.4799-1.36 4.08 3.1199 4.32-1.6799 1.52-4.96 0.4-2.64-3.6-4.24-3.52-5.1199 0.32-3.52-0.96-3.84 1.84-4.4799 3.36-0.96 5.0399 1.6 7.04 2.24 6.9599 2.7999 4.4 4.96-0.4 4.64-0.32 0.8 2.32 2.0799 3.68 2.88 7.1199 2.64 2.72-0.48 5.44 0.8 5.5199 3.6 3.6 3.5199 1.52 3.2 0.56 3.92 2.7999 8.2399-0.32 4.72-3.9199 0.88-5.44 1.36-1.2 6.5599-4 5.2-2.0799 1.84-6.32 3.5199-3.44-0.3199-3.8399-2.48-1.84-2.56-4.8-2.4-5.5199-2.8-1.28-3.6799 0.48-2.24-3.36-1.68-2.88-0.08-2.96z" fill="#fefbde"/>
   <path d="m1429.9 783.97-2.16 2.48-2.32-0.15999-3.76 1.04-4.2399-1.04-6.8 2.24-2.56 4.24 0.24 5.76-0.8799 2.64 1.5199 2.4 1.52 3.4399-2.08 2.32 0.32 2.96 4.32 2.8 6.24 0.72 4.3999-1.68 1.68-1.92 2.64-2.72 4.32 1.6 2.8799 2.32-1.0399 4.16 3.0399 3.1999 1.92 3.6-0.16 4.24 0.88 3.44 3.2 4.3199 2.72 2.64 8.3199 2.72h6l4.5599-4 3.92-7.4399 3.44-1.76 2.96-2.72 1.4399-7.6799-0.8-5.36-5.2799-3.68-3.36-1.12 0.64-3.5199-0.24-4.56-1.68-7.7599-2.64-3.12-0.08-1.76 1.76-3.04v-7.9999l-4.8799-4.64-4.24-1.52-8.4799-2.16-4.32-2.56-2.72 0.88-3.2 3.28-2.2399 5.04 0.1599 2.88-1.5199 2.24-1.52 2.56z" fill="#f2efc1"/>
   <path d="m1451.9 778.69-1.28-4.64-2.7999-2.16-4.8-1.84-4.8 2.4-2.32 3.12-3.7599 1.04-3.12-1.6-3.44 1.6 1.68 3.6 0.72 4.32-0.08 3.84 2.16 3.76 5.3599 0.55999-0.08 2.24-2.9599 4-4.4-0.4-5.44 0.8-3.1999 4-3.04 2-1.12 4.1599-0.48 5.52 3.12 4.08 6.3199 3.5199 6.72 2.88 5.1999 0.88 2.96-4 2.8-3.6799 2.32 0.96 4.08 0.88 7.1999 2.5599 3.84-0.16 3.7599 3.92 4.64 3.04 5.12-0.32 3.4399-1.6 2.56-2 4.72-1.12 5.2-6.3999 0.1599-6.08-3.4399-4.24v-1.8399l1.28-7.52 1.92-5.28-3.52-5.6-0.24-4.88-3.12-2.32-2.96 0.56-5.2799-1.28-5.76-1.76-2.8 1.2-2.08 3.04-3.9999-0.48-3.28-0.63999-2.24-2z" fill="#fefbde"/>
   <path d="m1595.6 939.97 3.1199-0.88 1.92 1.36 3.76 1.1999 2.96 3.12 6.8799 1.84 4.48-2.24 2.96-4.9599 2.1599-1.76-0.08-2.8 0.64-3.76 2.96-0.88 1.36-2.64-2.08-4.7199-4.8799-3.84-4.64-0.96-2.4 0.64-3.76 0.88-2.7199-3.76-1.2-3.4399 3.12-2.96-0.8-4.32 0.32-4 2.3999-3.5199 1.12-3.36-0.32-5.36-0.88-3.7599-5.5199-6.72-5.12-3.28-5.9199 0.88-7.36 4.16-3.84-0.4-3.9999 0.72-5.36 5.68-2.16 4.9599 2.4 5.92 2.32 2.8-2.48 2.5599-2.24 4.08-2.88 7.36 0.56 3.9999-0.8799 1.6-3.12 1.6-4.32 6.72 1.68 6.4799 2.72 3.6 5.9199 6.4799 2.24 4.4 2.88 0.72 4.4-1.04 4.6399-3.04 1.36-2.4 2.48-1.1199 2.72-1.28z" fill="#f2efc1"/>
   <path d="m1574.3 932.53-1.44 4.64 1.2 3.28 3.04 4.1599 5.36 0.56 3.5999-1.36 3.76 1.12 1.76 3.12 3.68 0.48 0.56-4 1.7599-3.9999 2.16-3.2 0.16-4.24-4.1599-3.36 1.2799-1.9199 4.64-1.76 3.44 2.7199 5.04 2.24 4.8799-1.68h3.6l3.2-2.8799 3.4399-4.4-0.48-5.12-3.4399-6.3199-4.08-6.08-3.92-3.5199-4.6399 1.7599-4.32 1.6-1.44-2.08-2.96-2.9599-4.7199-6-3.28-2-1.04-5.3599-2.32-5.04-4.4-2.48-3.7599-0.56-3.28 0.4-4.48-1.68-7.9199 2.56-3.44 5.12 0.64 5.3599-0.96 1.6-5.1999 5.6-4.48 3.44v6.5599l-2.48 4.24 1.36 3.68 2.8 1.1199 3.8399 3.92 3.76 4.56 3.04 0.56 3.44-1.44 3.0399 2.56 2.48 2.32 0.88 2.8799z" fill="#fefbde"/>
   <path d="m1721.8 837.33-1.68-2.88 0.88-2.1599 0.32-3.92 2.32-3.6 0.08-7.1199-3.2-3.84-5.5999-1.68-2.16-1.68-2.72 0.72-3.84 0.32-1.5199-2.72-2.88-0.64-4.08 3.2-2.64 5.6 0.24 4.7199 1.2 2.24 1.76 3.44-2.96 3.52-3.12 2-3.5999-2.32-4 1.84-4 0.64-3.9999-1.52-3.52-0.32-5.12 1.68-3.36 1.7599-5.2799 6.88-1.92 5.76 2.32 5.5999 5.7599 6.08 0.56 3.9199 1.68 3.6 6.8 3.84 5.2799 0.96 5.2-3.76 2.08-2.88 3.12 1.76 4.4799 1.2 7.84 0.96 3.7599-1.44 1.76 0.48 2.32 2.64 7.52 2.56 5.9999-3.2 2.8-3.44 4.8-7.3599 3.8399-3.2v-2.96l-2.08-4-4.0799-3.7599-2.72-0.8-1.68-2.16-1.92-2.24z" fill="#f2efc1"/>
   <path d="m1719.7 859.81 4.72 0.32 2.96-2 3.36-3.92-0.8-5.28-2.16-3.1999 0.24-3.92 2.48-2.48-0.4-3.68-3.92 0.4-4.32-0.72-3.6799-1.28-4.16 0.8-2.24 4.88-2.16-0.8-2.8-4.08 1.76-3.9999 1.04-5.44-2.8-4.32-0.88-3.5199-3.5999-2.4-5.04-2.32-4.96 1.68-5.2799 4.9599-4.88 5.36-2.48 4.64 2.8 4.0799 2.56 3.84-1.6 1.92-2.24 3.52-4.7199 6.0799-1.04 3.6-4.96 2.32-4.4 3.44-1.36 4.9599 0.4 3.68 1.12 3.12-0.48 4.7999 4.32 7.04 5.76 2.08 5.1199-1.84 1.76 0.48 6.72 3.76 4.3999 3.5199 6.4-1.6 4.7199 1.36 3.2-2.16 0.4-3.0399 2.88-4.64 3.6-4.8-0.24-3.0399-2.24-2.96 1.76-3.6 1.68-2.96 2.5599-1.52z" fill="#fefbde"/>
   <path d="m1527.1 991.89 3.1199-0.96 1.92 1.36 3.68 1.2 2.96 3.1999 6.9599 1.76 4.48-2.16 2.96-5.0399 2.08-1.68v-2.88l0.64-3.76 2.9599-0.7999 1.36-2.64-2.08-4.72-4.8799-3.92-4.64-0.96-2.48 0.72-3.6799 0.88-2.8-3.7599-1.12-3.44 3.12-2.96-0.88-4.32 0.4-4.0799 2.3999-3.52 1.12-3.36-0.4-5.3599-0.88-3.68-5.4399-6.8-5.12-3.2799-5.9199 0.96-7.36 4.1599-3.9199-0.4-3.92 0.72-5.36 5.68-2.16 4.9599 2.4 5.92 2.32 2.72-2.48 2.64-2.32 3.9999-2.7999 7.44 0.56 3.9999-0.88 1.52-3.12 1.68-4.32 6.64 1.68 6.5599 2.72 3.6 5.9199 6.3999 2.24 4.48 2.8 0.72 4.48-1.04 4.5599-3.04 1.44-2.48 2.48-1.1199 2.64-1.28z" fill="#f2efc1"/>
   <path d="m1505.7 984.45-1.44 4.56 1.2 3.36 3.04 4.1599 5.28 0.48 3.6799-1.3599 3.68 1.1999 1.84 3.04 3.68 0.48 0.56-3.92 1.68-3.9999 2.1599-3.2 0.24-4.32-4.2399-3.3599 1.28-1.84 4.6399-1.76 3.52 2.72 5.04 2.2399 4.7999-1.6799h3.68l3.2-2.88 3.4399-4.4-0.4799-5.1999-3.44-6.32-4.08-6.08-3.92-3.4399-4.6399 1.6799-4.4 1.6-1.36-2-2.96-2.9599-4.7199-6.08-3.28-1.92-1.04-5.3599-2.32-5.04-4.4799-2.56-3.68-0.48-3.28 0.32-4.56-1.6-7.8399 2.56-3.44 5.04 0.56 5.4399-0.88 1.52-5.1999 5.68-4.48 3.36-0.08 6.6399-2.4 4.24 1.36 3.6 2.8 1.1199 3.84 3.92 3.7599 4.64 3.04 0.48 3.44-1.44 3.04 2.56 2.4799 2.4 0.8 2.7999z" fill="#fefbde"/>
   <path d="m1705.3 937.97-1.5999-2.88 0.8-2.16 0.3199-3.92 2.32-3.5999 0.08-7.2-3.1999-3.7599-5.52-1.68-2.24-1.68-2.72 0.72-3.8399 0.32-1.52-2.72-2.88-0.64-4.08 3.12-2.56 5.6799 0.16 4.72 1.28 2.24 1.68 3.36-2.96 3.5999-3.0399 2-3.68-2.32-3.92 1.84-4.0799 0.56-4-1.44-3.44-0.32-5.12 1.68-3.4399 1.68-5.2 6.9599-2 5.76 2.32 5.6 5.76 6.0799 0.56 3.84 1.6799 3.68 6.8 3.8399 5.36 0.96 5.1199-3.7599 2.16-2.88 3.12 1.76 4.3999 1.2 7.92 0.9599 3.68-1.4399 1.7599 0.4 2.32 2.6399 7.6 2.64 5.9199-3.2 2.8-3.4399 4.8-7.36 3.8399-3.2v-2.9599l-2.0799-4-4-3.76-2.8-0.8-1.6-2.16-1.92-2.2399z" fill="#f2efc1"/>
   <path d="m1703.2 960.45 4.7999 0.32 2.96-2 3.28-3.9199-0.8-5.28-2.16-3.2 0.24-3.92 2.56-2.4799-0.48-3.68-3.92 0.4-4.32-0.72-3.5999-1.28-4.24 0.8-2.24 4.88-2.16-0.8-2.7999-4.08 1.8399-4.08 0.96-5.3599-2.7999-4.32-0.88-3.52-3.52-2.4-5.12-2.3199-4.8799 1.6799-5.36 4.88-4.88 5.44-2.4799 4.6399 2.7999 4.08 2.64 3.84-1.68 1.84-2.16 3.5999-4.7199 6.08-1.12 3.6-4.96 2.3199-4.3199 3.44-1.44 4.96 0.48 3.68 1.04 3.1199-0.48 4.8 4.3999 7.0399 5.76 2.08 5.1199-1.84 1.68 0.48 6.8 3.68 4.32 3.6 6.3999-1.6 4.72 1.36 3.1999-2.16 0.4-3.04 2.88-4.6399 3.6-4.8-0.24-3.04-2.24-2.96 1.76-3.5999 1.68-2.96 2.56-1.52z" fill="#fefbde"/>
   <path d="m1378.7 921.89 2.1599 2.48-0.3999 2.24 0.4799 3.9199-1.5999 4 1.36 7.0399 3.8399 3.12 5.76 0.56 2.48 1.2 2.5599-1.28 3.68-0.96 2 2.32 2.96 0.08 3.36-3.92 1.5199-6.0799-1.1199-4.56-1.68-1.92-2.32-3.0399 2.16-4.08 2.6399-2.48 4 1.52 3.52-2.56 3.84-1.36 4.2399 0.64 3.52-0.4 4.64-2.64 3.0399-2.3199 3.76-7.84 0.8-5.9999-3.36-5.04-6.8799-4.88-1.28-3.6799-2.32-3.28-7.4399-2.4-5.44 0.08-4.32 4.72-1.5199 3.2799-3.36-1.2-4.64-0.32-7.9199 0.64-3.36 2.24-1.76-0.16-2.8-2.16-7.9199-1.0399-5.2 4.2399-2.08 4-3.2799 8.1599-3.12 3.84 0.56 2.88 2.8 3.6 4.7199 2.8799 2.8 0.24 2.08 1.76 2.32 1.84z" fill="#f2efc1"/>
   <path d="m1376.3 899.41-4.72 0.64-2.48 2.5599-2.4799 4.48 1.7599 5.04 2.8 2.64 0.56 3.9199-2.08 2.88 1.2 3.6 3.76-1.2 4.4-0.16 3.7599 0.64 4-1.68 1.28-5.2 2.24 0.32 3.52 3.52-0.96 4.32 0.08 5.4399 3.5999 3.68 1.52 3.28 4 1.68 5.44 1.28 4.4799-2.64 4.24-5.84 3.76-6.2399 1.52-5.04-3.52-3.44-3.36-3.2799 1.28-2.16 1.44-3.92 3.44-6.88 0.4-3.7599 4.3999-3.2 3.6-4.24 0.4-5.1199-1.2-3.6-1.68-2.8-0.4-4.7999-5.6799-6-6.08-0.96-4.64 2.8-1.7599-0.16-7.36-2.32-4.96-2.64-5.9999 2.8-4.88-0.4-2.72 2.8 0.16 3.04-1.9199 5.1199-2.56 5.36 0.88 2.96 2.72 2.4799-0.96 3.92-1.12 3.2-2.24 1.92z" fill="#fefbde"/>
   <path d="m1815.8 852.53h-3.2799l-1.44-1.84-3.28-2.16-2-3.8399-6.16-3.6-4.8799 0.88-4.24 4-2.48 1.04-0.8 2.7999-1.5999 3.44h-3.12l-2 2.16 0.8 5.12 3.6 5.0399 4.1599 2.16h2.56l3.84 0.24 1.6 4.32 0.16 3.6799-3.76 2-0.4 4.32-1.44 3.84-3.28 2.7199-2 2.88-1.1199 5.28-0.16 3.84 3.4399 7.9999 4 4.48 6 0.8 8.2399-2 3.6 1.44 3.9999 0.3199 6.72-3.9999 3.44-4.16-0.72-6.3199-1.44-3.28 3.04-1.84 3.2799-3.28 4.72-6.3199 0.56-4 1.28-1.28 3.44-0.72 5.9999-5.2799 0.16-6.72-1.6-4.16-3.9999-7.8399-0.88-4.88-2.56-1.52-4.56-0.16-5.2799 1.68-2 2-2.72 0.32-2.88 0.56z" fill="#f2efc1"/>
   <path d="m1834.3 865.41 2.64-4-0.32-3.5199-1.76-4.8-4.96-2-3.9199 0.32-3.28-2.08-0.88-3.4399-3.44-1.52-1.6 3.6799-2.72 3.36-2.9599 2.48-1.36 4.08 3.1199 4.3999-1.6799 1.44-4.96 0.4-2.64-3.5199-4.24-3.52-5.1199 0.32-3.52-1.04-3.84 1.92-4.4799 3.2799-0.96 5.12 1.6 7.04 2.24 6.8799 2.7999 4.48 4.96-0.4 4.64-0.32 0.8 2.32 2.0799 3.6799 2.88 7.04 2.64 2.8-0.48 5.4399 0.8 5.44 3.6 3.68 3.5199 1.5199 3.2 0.56 3.92 2.8 8.2399-0.32 4.72-4 0.88-5.3599 1.36-1.2 6.5599-4.08 5.2-2 1.84-6.3999 3.52-3.36-0.32-3.84-2.48-1.9199-2.56-4.8-2.4-5.44-2.8-1.28-3.6799 0.4-2.24-3.2799-1.68-2.96-0.08-2.96z" fill="#fefbde"/>
   <path d="m1409.3 964.69 3.12-0.88 1.92 1.36 3.76 1.2 2.96 3.1199 6.8799 1.84 4.48-2.24 2.9599-4.9599 2.16-1.76-0.08-2.8 0.64-3.76 2.96-0.88 1.36-2.6399-2.08-4.64-4.88-3.92-4.6399-0.96-2.4 0.64-3.76 0.88-2.72-3.7599-1.1999-3.44 3.1199-2.96-0.8-4.24 0.32-4.0799 2.4-3.52 1.12-3.36-0.32-5.3599-0.88-3.76-5.5199-6.72-5.04-3.2799-6 0.9599-7.3599 4.08-3.84-0.4-3.9999 0.8-5.36 5.68-2.16 4.9599 2.4 5.92 2.32 2.72-2.48 2.56-2.24 4.0799-2.88 7.36 0.56 3.9999-0.8 1.6-3.1999 1.6-4.32 6.72 1.68 6.5599 2.72 3.52 5.9199 6.4799 2.24 4.48 2.88 0.64 4.3999-1.04 4.64-2.96 1.36-2.4799 2.56-1.12 2.64-1.28z" fill="#f2efc1"/>
   <path d="m1388 957.33-1.44 4.56 1.2 3.36 3.04 4.0799 5.3599 0.56 3.6-1.36 3.76 1.12 1.76 3.12 3.6799 0.48 0.56-3.92 1.76-4.0799 2.16-3.2 0.16-4.24-4.16-3.3599 1.28-1.92 4.64-1.68 3.44 2.64 5.0399 2.2399 4.88-1.6799 3.6 0.08 3.1999-2.88 3.44-4.4-0.48-5.2-3.44-6.3199-4.0799-6.08-3.92-3.5199-4.64 1.7599-4.3199 1.6-1.44-2.0799-2.96-2.96-4.72-6-3.2799-2-1.04-5.2799-2.32-5.12-4.4-2.48-3.7599-0.48-3.28 0.32-4.48-1.6799-7.9199 2.5599-3.44 5.12 0.64 5.44-0.96 1.5199-5.2 5.68-4.4799 3.36v6.6399l-2.48 4.24 1.36 3.6 2.8 1.12 3.8399 3.9199 3.76 4.64 3.04 0.48 3.4399-1.44 3.04 2.56 2.48 2.32 0.88 2.8799z" fill="#fefbde"/>
   <path d="m1383.6 864.37-1.6-2.88 0.88-2.1599 0.24-3.92 2.4-3.6 0.08-7.1999-3.2-3.76-5.5999-1.68-2.16-1.68-2.72 0.72-3.84 0.32-1.5199-2.72-2.88-0.64-4.08 3.12-2.64 5.68 0.16 4.7199 1.28 2.24 1.76 3.36-2.96 3.6-3.12 2-3.5999-2.32-4 1.84-4 0.5599-3.9999-1.4399-3.52-0.32-5.12 1.68-3.3599 1.6799-5.28 6.96-2 5.76 2.4 5.5199 5.7599 6.16 0.56 3.8399 1.6 3.68 6.8 3.84 5.3599 0.96 5.2-3.76 2.08-2.88 3.12 1.76 4.4799 1.2 7.84 0.96 3.7599-1.52 1.76 0.48 2.32 2.64 7.52 2.64 5.9199-3.2 2.88-3.44 4.8-7.3599 3.7599-3.2 0.08-2.96-2.16-4-3.9999-3.8399-2.72-0.72-1.68-2.16-1.92-2.24z" fill="#f2efc1"/>
   <path d="m1381.6 886.85 4.72 0.32 2.96-2 3.36-3.92-0.8-5.28-2.24-3.1999 0.24-3.92 2.56-2.48-0.4-3.68-3.92 0.4-4.32-0.72-3.6799-1.36-4.16 0.88-2.24 4.88-2.16-0.8-2.8-4.08 1.76-4.0799 0.96-5.36-2.72-4.32-0.88-3.5199-3.5999-2.4-5.04-2.32-4.96 1.68-5.2799 4.8799-4.96 5.36-2.4 4.72 2.8 4.0799 2.56 3.84-1.6 1.84-2.24 3.6-4.7199 5.9999-1.12 3.68-4.88 2.32-4.4 3.44-1.3599 4.8799 0.3999 3.76 1.12 3.12-0.48 4.7999 4.32 7.04 5.76 2.08 5.1199-1.92 1.76 0.56 6.72 3.68 4.3999 3.5999 6.4-1.6 4.72 1.36 3.1999-2.16 0.4-3.0399 2.88-4.64 3.6-4.8-0.32-3.0399-2.16-2.96 1.76-3.6 1.68-2.96 2.56-1.52z" fill="#fefbde"/>
   <path d="m1314.3 887.81h-3.2799l-1.52-1.84-3.2-2.16-2-3.84-6.2399-3.6-4.88 0.88-4.16 4-2.5599 1.12-0.72 2.72-1.6 3.4399h-3.12l-2 2.16 0.72 5.12 3.6 5.12 4.2399 2.1599h2.48l3.84 0.16 1.68 4.4 0.16 3.6-3.84 2-0.32 4.3999-1.52 3.76-3.2 2.72-1.9999 2.96-1.12 5.2799-0.16 3.76 3.4399 7.9999 4 4.56 6 0.72 8.1599-2 3.6 1.44 4 0.4 6.7199-4 3.52-4.1599-0.8-6.4-1.44-3.28 3.12-1.84 3.2799-3.1999 4.72-6.4 0.56-4 1.28-1.2799 3.44-0.72 5.9999-5.28 0.16-6.72-1.68-4.1599-3.9199-7.84-0.96-4.8799-2.56-1.44-4.48-0.16-5.2799 1.6-2 2-2.72 0.4-2.96 0.48z" fill="#f2efc1"/>
   <path d="m1332.8 900.77 2.64-4-0.24-3.6-1.84-4.8-4.96-1.9199-3.8399 0.3199-3.28-2.1599-0.88-3.44-3.44-1.44-1.6 3.6-2.7999 3.4399-2.88 2.48-1.36 4.08 3.12 4.32-1.76 1.52-4.96 0.4-2.64-3.52-4.1599-3.6-5.12 0.32-3.52-0.96-3.8399 1.84-4.48 3.36-1.04 5.0399 1.68 7.04 2.24 6.9599 2.7999 4.4 4.96-0.4 4.64-0.32 0.8 2.32 2 3.68 2.8799 7.1199 2.64 2.72-0.4 5.44 0.8 5.5199 3.6 3.68 3.44 1.44 3.2799 0.56 3.84 2.8 8.3199-0.32 4.64-3.92 0.96-5.36 1.28-1.28 6.5599-3.9999 5.2-2.08 1.84-6.32 3.52-3.4399-0.32-3.84-2.4-1.84-2.56-4.8-2.4-5.5199-2.8-1.28-3.6799 0.48-2.32-3.28-1.68-2.96v-2.96z" fill="#fefbde"/>
   <path d="m1758.5 900.21h-3.28l-1.44-1.84-3.28-2.16-2-3.84-6.1599-3.6-4.88 0.88-4.24 4-2.4799 1.12-0.72 2.72-1.68 3.44h-3.04l-2 2.1599 0.72 5.12 3.6 5.12 4.1599 2.1599h2.56l3.84 0.16 1.6 4.4 0.16 3.6-3.76 2-0.4 4.3199-1.44 3.84-3.2799 2.72-2 2.96-1.04 5.1999-0.24 3.84 3.44 7.9999 3.9999 4.56 6 0.72 8.2399-2 3.6 1.44 4 0.4 6.7199-4 3.44-4.2399-0.72-6.32-1.44-3.28 3.12-1.8399 3.2-3.28 4.7199-6.32 0.56-3.9999 1.28-1.28 3.44-0.72 5.9999-5.28 0.24-6.7199-1.68-4.16-3.9999-7.84-0.88-4.8799-2.56-1.44-4.56-0.24-5.2799 1.68-2 2-2.72 0.32-2.88 0.56z" fill="#f2efc1"/>
   <path d="m1777.1 913.17 2.64-4-0.32-3.6-1.76-4.7999-4.96-1.92-3.9199 0.32-3.2-2.16-0.88-3.44-3.52-1.44-1.6 3.6-2.7199 3.44-2.96 2.4799-1.36 4.08 3.12 4.32-1.68 1.52-4.96 0.4-2.64-3.6-4.1599-3.52-5.2 0.32-3.44-1.04-3.9199 1.92-4.48 3.36-0.96 5.0399 1.6 7.04 2.24 6.96 2.8 4.3999 4.9599-0.4 4.64-0.32 0.8 2.32 2.08 3.68 2.8799 7.1199 2.64 2.72-0.48 5.44 0.88 5.5199 3.52 3.6 3.52 1.52 3.1999 0.56 3.92 2.8 8.24-0.32 4.7199-3.92 0.88-5.44 1.36-1.2 6.56-3.9999 5.1999-2.08 1.84-6.32 3.52-3.4399-0.32-3.84-2.48-1.84-2.56-4.8-2.4-5.5199-2.7999-1.28-3.68 0.48-2.24-3.36-1.68-2.88-0.08-3.0399z" fill="#fefbde"/>
   <path d="m1880.2 906.05-1.6-2.8 0.8-2.16 0.32-3.9199 2.3199-3.68 0.08-7.1199-3.1999-3.84-5.52-1.6-2.24-1.68-2.72 0.72-3.8399 0.24-1.52-2.64-2.88-0.72-4.08 3.2-2.56 5.68 0.16 4.7199 1.28 2.16 1.68 3.44-2.96 3.6-3.0399 1.9199-3.68-2.3199-3.92 1.8399-4.0799 0.64-4-1.52-3.52-0.3199-5.12 1.6799-3.3599 1.76-5.28 6.96-1.92 5.6799 2.32 5.6 5.76 6.08 0.56 3.9199 1.68 3.68 6.7999 3.84 5.36 0.88 5.1199-3.76 2.16-2.88 3.12 1.76 4.4 1.28 7.9199 0.96 3.68-1.52 1.76 0.48 2.3199 2.64 7.6 2.56 5.9199-3.12 2.8-3.52 4.8-7.3599 3.84-3.2v-2.88l-2.08-4.08-4.08-3.7599-2.72-0.72-1.68-2.24-1.84-2.24z" fill="#f2efc1"/>
   <path d="m1878.1 928.61 4.7999 0.24 2.96-1.9999 3.28-3.92-0.8-5.28-2.16-3.2 0.24-3.9199 2.56-2.4-0.48-3.76-3.92 0.4-4.32-0.72-3.5999-1.28-4.24 0.8-2.24 4.88-2.16-0.8-2.7999-4.08 1.7599-3.9999 1.04-5.44-2.7999-4.24-0.88-3.5999-3.52-2.4-5.12-2.24-4.8799 1.68-5.36 4.8799-4.88 5.36-2.4799 4.64 2.7999 4.0799 2.56 3.92-1.6 1.84-2.1599 3.52-4.8 6.0799-1.04 3.6-4.96 2.32-4.3199 3.44-1.44 4.9599 0.4 3.76 1.12 3.12-0.48 4.7199 4.3199 7.04 5.76 2.08 5.2-1.84 1.6799 0.56 6.72 3.6799 4.4 3.52 6.3999-1.52 4.72 1.36 3.2-2.24 0.3999-3.0399 2.88-4.56 3.6-4.8-0.24-3.1199-2.24-2.96 1.76-3.6 1.68-2.96 2.56-1.44z" fill="#fefbde"/>
   <path d="m1674.7 974.61-1.6-2.88 0.88-2.16 0.24-3.9199 2.32-3.6 0.08-7.1999-3.2-3.76-5.52-1.68-2.24-1.68-2.7199 0.72-3.76 0.32-1.52-2.72-2.88-0.64-4.08 3.12-2.6399 5.68 0.16 4.7199 1.28 2.24 1.7599 3.36-3.0399 3.6-3.04 1.9999-3.6-2.3999-4 1.9199-3.9999 0.56-4-1.4399-3.52-0.32-5.1199 1.6799-3.44 1.68-5.2 6.96-2 5.7599 2.32 5.52 5.84 6.1599 0.48 3.84 1.68 3.68 6.7999 3.8399 5.36 0.96 5.1999-3.76 2.08-2.8799 3.12 1.76 4.48 1.1999 7.8399 0.96 3.76-1.52 1.68 0.48 2.4 2.64 7.5199 2.64 5.92-3.2 2.7999-3.4399 4.88-7.3599 3.76-3.2v-2.96l-2.08-4-4-3.8399-2.72-0.72-1.68-2.16-1.9199-2.24z" fill="#f2efc1"/>
   <path d="m1672.7 997.09 4.8 0.32 2.9599-2 3.28-3.9199-0.72-5.28-2.24-3.2 0.24-3.9199 2.56-2.48-0.4-3.68-4 0.4-4.3199-0.72-3.6-1.36-4.16 0.88-2.32 4.88-2.0799-0.8-2.8-4.08 1.76-4.08 0.96-5.3599-2.8-4.32-0.88-3.52-3.52-2.3999-5.1199-2.32-4.88 1.68-5.28 4.8799-4.9599 5.36-2.48 4.64 2.8 4.1599 2.6399 3.84-1.6799 1.84-2.16 3.6-4.72 5.9999-1.12 3.68-4.9599 2.32-4.32 3.4399-1.44 4.88 0.48 3.7599 1.12 3.12-0.56 4.8 4.4 7.0399 5.7599 2.08 5.12-1.92 1.68 0.56 6.7999 3.68 4.32 3.5999 6.4799-1.5999 4.64 1.36 3.2-2.16 0.4-3.04 2.9599-4.64 3.52-4.7999-0.24-3.04-2.24-2.96 1.76-3.5999 1.76-2.96 2.56-1.52z" fill="#fefbde"/>
   <path d="m1478.7 958.77h-3.28l-1.5199-1.84-3.2-2.16-2-3.8399-6.24-3.6-4.8799 0.88-4.16 4-2.56 1.12-0.72 2.7199-1.68 3.44h-3.0399l-2 2.16 0.72 5.12 3.6 5.0399 4.2399 2.16h2.48l3.84 0.24 1.68 4.32 0.16 3.6799-3.84 2-0.32 4.32-1.52 3.84-3.2 2.72-2 2.8799-1.1199 5.28-0.16 3.8399 3.4399 8 4 4.5599 6 0.72 8.1599-2 3.6 1.4401 3.9999 0.32 6.72-4 3.52-4.1599-0.8-6.3201-1.44-3.2799 3.12-1.84 3.2799-3.28 4.72-6.3199 0.56-4 1.28-1.28 3.44-0.72 5.9999-5.2799 0.16-6.72-1.68-4.1599-3.9199-7.84-0.96-4.88-2.56-1.5199-4.48-0.16-5.28 1.6799-1.9999 2-2.72 0.32-2.96 0.56z" fill="#f2efc1"/>
   <path d="m1497.2 971.65 2.64-3.9999-0.24-3.52-1.84-4.8-4.96-2-3.84 0.4-3.2799-2.16-0.88-3.4399-3.44-1.52-1.6 3.6799-2.8 3.36-2.8799 2.56-1.36 4 3.1199 4.3999-1.7599 1.44-4.96 0.4-2.64-3.5199-4.16-3.52-5.1199 0.32-3.52-1.04-3.84 1.92-4.4799 3.28-1.04 5.1199 1.68 7.04 2.24 6.8799 2.7999 4.48 4.96-0.4 4.64-0.32 0.8 2.32 1.9999 3.6799 2.88 7.04 2.64 2.7999-0.4 5.44 0.8 5.4399 3.6 3.68 3.4399 1.52 3.28 0.56 3.84 2.8 8.3199-0.32 4.64-4 0.96-5.36 1.28-1.2 6.5599-4.0799 5.2-2 1.84-6.3199 3.5199-3.44-0.3199-3.84-2.4-1.9199-2.56-4.8-2.4-5.44-2.8-1.28-3.6799 0.4-2.32-3.2799-1.68-2.96v-2.96z" fill="#fefbde"/>
   <path d="m1409.7 965.33-2.1599 2.4799-2.32-0.1599-3.84 1.0399-4.16-1.0399-6.7999 2.2399-2.64 4.24 0.24 5.76-0.88 2.6399 1.6 2.4 1.52 3.52-2.08 2.24 0.32 2.96 4.24 2.8799 6.2399 0.64 4.4-1.68 1.68-1.9199 2.7199-2.72 4.32 1.68 2.88 2.2399-1.04 4.16 2.96 3.2 1.92 3.5999-0.16 4.24 0.88 3.44 3.1999 4.3199 2.8 2.64 8.24 2.72h6.0799l4.48-4 3.9199-7.4399 3.52-1.76 2.88-2.72 1.52-7.6799-0.88-5.3599-5.2-3.68-3.4399-1.12 0.72-3.52-0.32-4.56-1.6-7.7599-2.64-3.04-0.16-1.84 1.76-3.0399 0.08-8-4.96-4.5599-4.16-1.6-8.5599-2.16-4.24-2.56-2.7999 0.96-3.12 3.28-2.24 4.9599 0.16 2.88-1.6 2.24-1.52 2.56z" fill="#f2efc1"/>
   <path d="m1431.6 960.05-1.2-4.6399-2.88-2.16-4.8-1.84-4.7199 2.48-2.32 3.0399-3.76 1.04-3.2-1.6-3.3599 1.6 1.68 3.6 0.7199 4.32-0.08 3.8399 2.16 3.76 5.28 0.56v2.24l-3.04 4-4.32-0.4-5.4399 0.8-3.2 4.0799-3.04 1.92-1.12 4.16-0.56 5.5199 3.12 4.16 6.4 3.44 6.6399 2.8799 5.2 0.88 2.96-3.9999 2.8799-3.68 2.24 0.96 4.08 0.88 7.2799 2.5599 3.76-0.16 3.84 3.92 4.6399 3.04 5.12-0.24 3.36-1.6 2.64-2.08 4.6399-1.04 5.28-6.3999 0.08-6.1599-3.36-4.24-0.08-1.84 1.36-7.5199 1.92-5.28-3.6-5.6-0.16-4.8799-3.12-2.32-3.0399 0.56-5.28-1.2-5.68-1.84-2.7999 1.2-2.16 3.04-3.92-0.48-3.36-0.64-2.2399-2z" fill="#fefbde"/>
   <path d="m1447.8 911.33h-3.28l-1.44-1.76-3.28-2.24-2-3.76-6.2399-3.6799-4.88 0.9599-4.16 4-2.5599 1.04-0.72 2.72-1.6 3.44h-3.12l-2 2.2399 0.72 5.04 3.68 5.12 4.16 2.16h2.5599l3.76 0.16 1.68 4.3999 0.16 3.6-3.84 2-0.32 4.3999-1.44 3.84-3.2799 2.72-2 2.88-1.12 5.2799-0.16 3.84 3.44 7.92 3.9999 4.5599 6 0.72 8.1599-2 3.6 1.52 4 0.32 6.7199-4 3.52-4.1599-0.72-6.4-1.52-3.2 3.12-1.8399 3.28-3.28 4.7199-6.4 0.56-3.9999 1.28-1.2 3.44-0.8 5.9999-5.2 0.16-6.7199-1.6-4.24-3.9999-7.7599-0.96-4.96-2.56-1.44-4.48-0.16-5.2799 1.6-2 2-2.72 0.4-2.96 0.56z" fill="#f2efc1"/>
   <path d="m1466.3 924.29 2.64-4-0.24-3.52-1.84-4.8799-4.96-1.92-3.8399 0.32-3.28-2.16-0.88-3.36-3.44-1.52-1.6 3.6-2.7199 3.44-2.96 2.48-1.36 4.0799 3.12 4.4-1.76 1.44-4.96 0.4-2.64-3.52-4.1599-3.52-5.12 0.24-3.52-0.96-3.8399 1.92-4.48 3.28-1.04 5.04 1.68 7.1199 2.24 6.88 2.8 4.4799 4.9599-0.4 4.64-0.4 0.8 2.4 2 3.6 2.8799 7.1199 2.64 2.8-0.4 5.44 0.8 5.4399 3.6 3.68 3.44 1.44 3.2799 0.64 3.92 2.8 8.24-0.32 4.6399-4 0.96-5.3599 1.28-1.2 6.56-4.08 5.2799-2 1.76-6.3999 3.52-3.36-0.32-3.92-2.4-1.84-2.56-4.7999-2.4-5.44-2.7999-1.36-3.68 0.48-2.24-3.28-1.76-2.96v-2.9599z" fill="#fefbde"/>
  </g>
  <path d="m1537.4 442.13-7.84 4.88-3.4399 15.92 2.08 10.56 9.2799 2.48 5.6799-12.08 1.36-14.72z" fill="#f5f5f5" fill-opacity=".46465"/>
  <g fill="#ffe3c7">
   <path d="m1543.1 459.97-4.6399-5.84-3.68-1.76-2.32 4 1.76 0.55999 1.84-0.95998 7.1999 8.8799z"/>
   <path d="m1621.1 460.37 4.5599-5.76 3.76-1.76 2.24 3.92-1.76 0.56-1.76-0.96-7.2799 8.8799z"/>
   <path d="m1328.8 405.09-11.68 13.36-2.8 14.8-6.1599 28.48 3.28 4.96 2.8799-8.6399 1.68-13.28 3.76-12.8 9.5199-12.4z"/>
   <path d="m1826.7 403.41 11.36 11.68 5.1999 7.7599 12.4 29.84v5.36l-6.2399-1.68v-7.04l-8.64-22.72-4.9599 0.88-9.9199-9.9999z"/>
   <path d="m1414.8 363.57-51.84 6.16-23.28 12.4-9.28 14-6.9599 37.92 19.36 71.999 44.16 31.76 51.84 8.5599 39.52-6.24 46.48-29.44 20.88-36.4 8.56-43.36-7.76-33.28-11.6-17.04-30.24-13.92-35.6-1.6zm35.44 5.6 48.72 2.24 30.88 12.4 12.08 15.84 5.1999 32-7.6799 43.2-21.92 34-42.16 25.76-38.88 4.32-37.76-4.32-14.8-7.12-37.2-26.88-18.08-66.8 6.96-34.24 5.5199-10.96 22.56-12.32 46.56-6z"/>
   <path d="m1745.3 364.53 46.88 3.6 24 14.72 9.28 13.92 7.1199 35.6-16 73.119-40.32 35.68-54.96 8.4799-39.52-6.16-43.36-29.44-20.88-36.4-3.92-43.36 7.76-33.36 11.6-17.04 27.92-17.76 35.6-1.6zm-31.52 5.68-47.2 0.64-28.56 16.24-12.08 15.92-5.1999 31.92 3.0399 43.28 21.84 33.92 39.12 25.76 38.88 4.4 40.88-4.4 14.8-7.12 33.36-30.72 14.8-67.92-7.1999-31.92-5.52-10.96-23.36-14.56-41.52-3.44z"/>
   <path d="m1551.2 422.45 4.56-7.0399 5.8399-3.28 23.52-0.79999 22.32 2 11.2 7.04-1.28 4.16-14-6.24-13.28-0.79999-20.24-0.79998-10.72 2.88-9.5199 12z"/>
  </g>
  <g>
   <path d="m1848.9 296.12-10.629-3.4014-28.461 4.8228-22.247-48.59 31.292-31.706 21.543 13.824 1.6212 2.4498" fill="#040401" stroke-width="1.7007"/>
   <g>
    <path d="m1626.8 37.674-17.36 8.1599-0.16-0.08-29.2 0.72-7.2-0.72-12.64 0.79999-13.12-5.76-31.84 12.88-3.6 0.16h-35.36l-19.2 9.5999-7.04 0.95999-11.68 4.96-18.24 14.4-15.2 4.48-15.76 14.8-4.24 1.12-17.76 26-6.96 5.84-24.32 16.56-10.08 15.36-7.92 13.12-6.0799 27.52-10.88 18.72-2.6399 16.96-1.2 2.32-2.64 8.3999-6.96 58.88v0.15999l-6.9599 62.24-0.08 2-1.2 42.72 0.24 3.6 3.44 27.68 2.16 7.4399-1.44 2.96-2.56 11.6 1.52 42.24-7.92 19.76-0.64 16.16 7.44 23.6-7.28 21.92 0.32 16.24 8.16 21.2 12.96 13.44 12.56 5.44 1.36 4.4 2.56 8.3199 22.24 72.799 0.08 0.4 13.28 41.04-0.32 0.32 0.4-0.16v0.08l-5.52 3.68-3.7599 4.8-0.64 0.47999-2.72 2.48-2 2.24-5.9999 19.6 0.7199 5.04v0.16l0.08 0.31999-0.08 4.24 0.56 3.6 0.8 3.36-4.7999 5.2-0.16 0.16-3.68 1.28-3.52 1.36-3.3599 1.76-8.32 6.96-4.32 5.76-9.2799-0.15999-4.9599 0.95999-12.16 6.24-1.04 0.95998 1.44-0.63999-6.5599 4.24-3.84 4.88 0.72-1.44-1.36 1.92-2.64 2.4-1.9999 2.24-6.08 19.6 0.72 5.12v0.08l0.4-1.84-0.32 2.16v4.24l0.48 3.6 1.6 7.04 0.56 2 2.24 6.88 0.08 0.24-0.8 3.84-0.48 3.76-0.16 3.76 1.92 10.64 3.4399 8 4.08 6.4 4 4.48 15.12 8 5.9999 0.71999 6.88-0.16 1.5199 0.64 2.88 0.95999-0.32-0.16 0.32 0.24 2.4 0.56-2.08-0.4 14.32 4.08 8.24-0.32 14.64-5.68 4.64-3.92 5.84-7.3599 0.8 3.2 4.1599 8.5599 2.72 3.6 1.52 1.84 0.8 0.79999-0.16 3.04 1.04 6-0.56-1.44 0.56 2.24 0.08 3.68 0.32 2.96 10.64 17.52 4.32 2.8 0.08 0.08-1.2-1.52 1.44 1.68 3.1999 2.88 3.04 2 6.32 3.4399 1.84 0.88 6.6399 2.88 0.24 0.08 2.32 3.2 2.48 2.8 2.72 2.6401 9.2799 5.5999 8.3199 2.72 7.36 1.2 6.0799 0.08 12.8-3.68 5.92 0.72 6.8799-0.16 1.52 0.64 2.88 0.96-0.32-0.24 0.32 0.24 2.4 0.56-2.08-0.32 14.32 4.08 8.2399-0.32 14.64-5.68 4.64-3.9999 6.2399-8.2401 0.96-0.32 9.76-6.96-0.32-0.16h0.4l1.52-0.2399 7.8399-2.72 1.28 0.4 16.72-1.76 4.4799-2.16 3.76-2.32 31.44 6.4 2.32 2.8799 4.3999 7.04 12.16 9.9201 5.76 2.0799 10.24 1.36 0.8 0.64 20.8 4.64h0.16l-1.44-0.48 20.4-3.28 3.2-2.16 9.6799-14.08 0.48-0.72 3.2-1.68 7.3599-6.0799 2.8-3.52 1.44-1.92 2.88-4.4 1.12-0.96 5.4399-6.6398 5.76-10.72 0.56-0.72 3.12-1.68 7.3599-6.08 1.36-1.6 5.04 1.2 5.9999 0.71999 6.88-0.16 1.52 0.64 2.7999 0.95999-0.24-0.16 0.32 0.24 2.4 0.56-2.08-0.4 14.32 4.08 8.24-0.32 14.64-5.68 4.6399-3.92 6.24-8.2399 0.96-0.39999 10.32-7.76 10.96 8.0799 5.76 2.08 10.24 1.36 0.8 0.63999 20.8 4.72 0.16-0.08-1.44-0.4 20.4-3.28 3.2-2.24 9.5999-14 0.56-0.72 3.12-1.68 7.3599-6.08 2.8-3.52 1.44-1.92 2.88-4.4 1.2-0.95999 8.4799-18.32v-2.88l-2.64-11.12-2.16-4.08v-0.08l-0.08-0.79999-0.4-3.76-1.12-4.8-0.64-1.84-4.5599-6.96v-1.36l-5.6-15.84-3.28-3.76-11.44-7.52-1.44-0.39999 1.28 0.95999-6.9599-3.68-6-0.88 1.52-0.15999-2.24-0.16-3.5199-1.12-2.88-0.63999h-0.08l-0.88-1.92-2.4-4.72-0.24-1.44-11.68-16.48-2.56-1.44-10.96-3.12h-0.32l-1.68-3.2v-0.08l-0.08-0.79999-0.4-3.68-1.12-4.96-0.64-1.76-4.5599-6.96v-1.36l-5.6-15.76-3.28-3.84-4.4799-4.08 37.12-107.6 5.3599-15.52 1.28-3.52 12.88-7.7599 9.12-9.8399 6.9599-13.92 1.84-16.24-5.6-23.44-1.4399-35.6 6.7999-67.2 0.08-3.04-0.4-16.32-9.2799-18.32 0.16-4-1.2-23.04v-0.56l-5.76-78.479-0.32-2.24-13.84-81.919-2.8-7.8399-16.64-29.28-3.36-10.08-4.08-7.5199-8.6399-10.56-9.8399-17.36-14.88-27.44-18.24-12.4-6.1599-7.5199-0.96-1.04-12.64-13.84-23.28-7.1199-8.7999-5.84-4.32-2.32-51.2-20.64-12.4-9.5999-7.4399-3.84zm261.44 924.71-0.16 0.48 0.08-0.4zm-90.079 5.84-0.72 2.8zm42.48 7.9999-2.8799 0.87999zm-127.28 18-0.16 0.48 0.08-0.4zm-175.44 4m-19.68 28.48-0.72 2.88zm164.64 4.1599-0.24 0.4801 0.08-0.4001zm-47.6 13.92-2.88 0.8z" fill="#040401"/>
    <path d="m1802 821.01-1.6-2.8799 0.8-2.16 0.32-3.92 2.32-3.6 0.08-7.1999-3.2-3.84-5.5199-1.6-2.24-1.68-2.72 0.72-3.84 0.24-1.5199-2.64-2.88-0.63999-4.08 3.12-2.56 5.68 0.16 4.72 1.28 2.1599 1.68 3.44-2.96 3.6-3.04 1.92-3.6799-2.32-3.92 1.84-4.08 0.64-3.9999-1.52-3.52-0.24-5.04 1.6-3.4399 1.76-5.28 6.9599-1.92 5.76 2.32 5.5199 5.7599 6.16 0.56 3.8399 1.68 3.68 6.8 3.84 5.3599 0.96 5.12-3.84 2.16-2.88 3.12 1.84 4.3999 1.2 7.92 0.96 3.6799-1.52 1.76 0.48 2.32 2.64 7.6 2.64 5.9199-3.2 2.8-3.52 4.8-7.2799 3.8399-3.28v-2.88l-2.08-4.0799-4.0799-3.76-2.72-0.72-1.6-2.24-1.92-2.24z" fill="#f2efc1"/>
    <path d="m1799.9 843.49 4.8 0.32 2.96-2 3.28-4-0.8-5.2799-2.16-3.12 0.24-3.92 2.56-2.48-0.48-3.76-3.92 0.4-4.32-0.6399-3.5999-1.36-4.24 0.88-2.24 4.8799-2.16-0.8-2.8-4.1599 1.84-4 0.96-5.36-2.8-4.3199-0.88-3.6-3.5199-2.4-5.12-2.24-4.88 1.68-5.3599 4.88-4.88 5.3599-2.48 4.64 2.8 4.08 2.56 3.9199-1.6 1.84-2.16 3.6-4.7199 6-1.12 3.6799-4.96 2.24-4.32 3.44-1.4399 4.9599 0.3999 3.76 1.12 3.12-0.48 4.72 4.4 7.0399 5.76 2.08 5.1199-1.84 1.68 0.56 6.72 3.68 4.3999 3.5199 6.4-1.5199 4.72 1.3599 3.1999-2.2399 0.4-2.96 2.88-4.64 3.6-4.7999-0.24-3.04-2.24-3.04 1.76-3.6 1.68-2.8799 2.56-1.52z" fill="#fefbde"/>
    <path d="m1388 807.41h-3.28l-1.44-1.8399-3.2799-2.16-2-3.84-6.16-3.6-4.8799 0.88-4.24 4-2.48 1.12-0.72 2.72-1.68 3.4399h-3.12l-1.9999 2.16 0.8 5.12 3.5999 5.04 4.16 2.2399h2.56l3.8399 0.16 1.6 4.32 0.16 3.68-3.7599 2-0.4 4.3199-1.44 3.84-3.28 2.72-2 2.88-1.04 5.2799-0.24 3.84 3.44 7.9999 4 4.56 5.9999 0.72 8.24-2 3.5999 1.44 4 0.32 6.72-4 3.4399-4.1599-0.72-6.32-1.44-3.28 3.04-1.84 3.28-3.2799 4.72-6.32 0.56-4 1.28-1.28 3.4399-0.7199 6-5.28 0.24-6.72-1.68-4.1599-4-7.84-0.88-4.8799-2.56-1.44-4.5599-0.24-5.28 1.68-2 2-2.7199 0.32-2.88 0.5599z" fill="#f2efc1"/>
    <path d="m1406.6 820.37 2.6399-3.9999-0.32-3.6-1.7599-4.8-4.96-2-3.92 0.4-3.28-2.1599-0.7999-3.44-3.52-1.52-1.6 3.68-2.72 3.3599-2.96 2.56-1.36 4 3.12 4.4-1.68 1.44-4.9599 0.4-2.64-3.52-4.16-3.52-5.1999 0.32-3.44-1.04-3.92 1.92-4.48 3.28-0.9599 5.1199 1.5999 7.04 2.24 6.8799 2.8 4.48 4.96-0.4 4.6399-0.32 0.8 2.32 2.08 3.68 2.88 7.1199 2.64 2.72-0.48 5.44 0.88 5.5199 3.5199 3.6 3.52 1.52 3.2 0.56 3.92 2.7999 8.2399-0.3199 4.72-3.92 0.88-5.44 1.3599-1.2 6.56-4 5.2-2.0799 1.8399-6.32 3.52-3.44-0.32-3.8399-2.48-1.84-2.5599-4.8-2.4-5.5199-2.8-1.28-3.68 0.4-2.24-3.28-1.6799-2.96-0.08-2.96z" fill="#fefbde"/>
    <path d="m1762.4 860.45h-3.28l-1.4399-1.8399-3.28-2.16-2-3.84-6.16-3.6-4.9599 0.88-4.16 4-2.56 1.12-0.72 2.72-1.6 3.4399h-3.1199l-2 2.16 0.72 5.12 3.68 5.0399 4.1599 2.24h2.56l3.84 0.16 1.6 4.32 0.16 3.68-3.76 2-0.4 4.3199-1.44 3.84-3.28 2.72-2 2.88-1.12 5.2799-0.1599 3.84 3.4399 7.9999 4 4.56 6 0.72 8.1599-2 3.68 1.44 3.9999 0.32 6.72-4 3.44-4.1599-0.72-6.32-1.44-3.28 3.04-1.84 3.2799-3.2799 4.72-6.32 0.56-4 1.28-1.2799 3.44-0.72 5.9999-5.28 0.16-6.72-1.6-4.1599-4-7.84-0.8799-4.8799-2.56-1.44-4.56-0.24-5.28 1.68-1.9999 2-2.72 0.32-2.88 0.56z" fill="#f2efc1"/>
    <path d="m1781 873.41 2.56-4.08-0.24-3.52-1.76-4.7999-4.96-2-3.92 0.4-3.2799-2.16-0.88-3.44-3.44-1.52-1.6 3.68-2.72 3.36-2.9599 2.5599-1.36 4 3.1199 4.4-1.7599 1.44-4.88 0.4-2.64-3.52-4.24-3.52-5.1199 0.32-3.52-1.04-3.84 1.92-4.4799 3.28-0.96 5.1199 1.6 7.04 2.2399 6.8799 2.8 4.48 4.96-0.4 4.64-0.32 0.8 2.32 1.9999 3.68 2.96 7.1199 2.56 2.72-0.4 5.44 0.8 5.5199 3.6 3.6 3.4399 1.52 3.28 0.56 3.92 2.7999 8.2399-0.32 4.72-3.9999 0.88-5.36 1.36-1.2 6.4799-4.0799 5.28-2 1.84-6.32 3.5199-3.44-0.32-3.8399-2.4799-1.84-2.56-4.88-2.4-5.4399-2.8-1.28-3.6799 0.4-2.24-3.28-1.76-2.96v-2.96z" fill="#fefbde"/>
    <path d="m1571.3 75.893-90.559 7.3599-79.119 48.16-62 73.439-19.6 86.399-6.4799 168.08-6.56 13.04 1.68 47.36-9.8399 24.4 9.8399 31.04-9.8399 29.36 8.1599 21.2 22.88 9.7599 29.36 96.319 53.84 166.4 104.4 83.199 104.4 11.197 83.199-35.677 53.84-91.359 79.52-230.48 20.4-12.24 6.96-13.84-6.16-25.68-1.6-39.6 6.96-68.879-0.4-16.32-13.92-2.88-3.68-37.12-8.1599-130.48-26.08-78.319-55.44-68.559-88.079-44-40.8-13.12z" fill="#f7b9a4"/>
    <path d="m1420.8 445.65v-9.9199l20.32-14.4 34.64-6.4 42.08 21.76z" fill="#ea9477"/>
    <path d="m1417.7 447.41 24.8-18.88 32.56-7.6799 33.28 12.88 12.88 4.24-0.88 6.8-18.8 5.2-17.12 9.3599-28.24 2.56-27.36-7.6799z" fill="#fff"/>
    <path d="m1652.5 442.85 17.28-17.84 12.88-5.9199 40.56 2.48 15.36 14.88 5.44 14.32z" fill="#ea9477"/>
    <path d="m1659.7 439.65-12 2.56v4.32l24.8 10.24 35.12 4.32 29.92-3.44 11.12-3.44-15.44-18.8-23.92-10.24h-29.04z" fill="#fff"/>
    <path d="m1615.2 481.57 11.12 19.68 1.76 14.48 6.8 9.4399v-13.68l-3.44-12.8zm-70.08 4.24-10.24 16.32 1.52 7.68h-10.96l-13.68 10.24-6 17.12 10.32-13.68 10.24-7.76 10.08-5.84 1.04 5.04-0.88 10.24 3.44 3.44 5.1199-13.68-0.88-7.6799zm100.88 24 5.9999 9.3599 8.56 6.88 10.24 12.8-10.24-19.68zm44 42.16 28.4 44.08 17.52 35.12 2.48 21.12-4.88 24.16 9.68-24.72-3.6-24.8-13.92-28.48zm-209.76 0.55999-27.84 39.92-15.12 34.48 1.2 39.84 3.04 11.52-1.2-21.12 2.4-28.48 16.32-37.44zm273.2 154.16-37.44 119.12-27.2 56.24 27.2-46.56 19.36-58.08zm-325.84 8.4799 3.04 23.6 24.8 83.999 9.6799 16.96 34.4 61.04 14.56 16.96-13.28-21.2-38.16-68.88z" fill="#ea9477"/>
    <path d="m1666.6 548.45-2.6399 11.12-8.48 6-11.12-0.87999-10.32-5.92-11.12-3.44-8.48 2.56-10.32 10.24-10.24 4.32h-12l-11.04-4.32-19.68-10.24-13.68-1.76-13.68 5.2-12 2.56-5.12-6-3.44-5.12 2.56 12.8 9.44 5.12 15.36-5.12 15.44-2.56 10.24 3.44 10.16 6.72 16 6.72 13.44-1.04 12.96-5.6 8.1599-8.3199 11.2-2 8.8 4.24 14.16 3.04 9.04-0.48001 6.9599-6.1599z" fill="#d06b49"/>
    <path d="m1535.6 557.89-4.96 2.16-0.16 2.56 10.64 1.44 8.5599 0.48 4.88-0.48 0.88-2.96-4.48-2.56-11.36-1.28z" fill="#5a3224"/>
    <path d="m1637.9 559.17-11.04-2.16-6.2399 1.52-6.64 2.56-0.64 2.16 3.44 1.28 7.9199-1.52 8.72 1.52 5.3599 1.04 1.28-2.56z" fill="#5a3224"/>
    <path d="m1564.7 635.01-53.04 8.5599-33.36 14.56-10.24 26.48 8.5599 31.68 48.72 85.439 55.6 26.56 47.04-8.56 29.04-22.24 31.68-62.4 11.04-41.04 1.76-28.24-34.24-18.8-57.28-11.12z" fill="#d98680"/>
    <path d="m1581.2 646.85-55.68 3.6-34.4 13.92-10.32 16.32 7.84 33.84 30.24 38.16 36.88 31.44 27.84 4.8 33.84-3.04 36.32-25.36 23.52-32.08 13.92-24.8 2.4-18.08-5.4399-18.16-13.28-8.4799-52-9.6799z" fill="#4f211a"/>
    <path d="m1490 671.65 5.44 3.04 4.8-1.84 4.7999 4.24 4.24-2.4 9.6799 6.08 3.68-1.2 2.96-6.08 4.2399 5.44 4.88 1.2 5.44-9.0399 4.7999-1.2 4.24 3.6 9.0399-1.84 3.68 0.63999 7.84 4.24 15.12 1.76 7.28-5.44 5.9999 3.04 19.36-0.56 5.44-1.84 6.6399 3.04 7.28-3.04 5.4399 5.44 6.08 2.4 5.4399-3.6 6.64 3.04 7.1999-1.2 4.24-3.04 5.44 1.2 5.4399-4.24 4.24-2.4-2-7.5999-7.5199-5.36-5.6-0.4-5.44-2.96h-5.9999l-11.52-4.24-19.36-1.84h-14.48l-21.2-2.4-22.96-3.04-16.32 1.84-13.92 0.56-4.24 3.04h-11.44l-6.64 1.84-4.8799 3.6-8.48-0.56-11.44 4.16-4.24 7.28z" fill="#fff"/>
    <path d="m1470.9 421.89-28.4 6.64-4.56 3.52-0.8 1.92 1.76 16 4.48 8.3199 12.8 3.6 13.6-1.2 10.56-10.08-1.2-14.8-3.36-9.9999z" fill="#728ca6"/>
    <path d="m1440.7 430.69-2.4 10.24 4.16 8.4799 10.64 0.88 6-3.92 1.52-8.3999-1.52-8.1599-9.92-3.28z" fill="#351e17"/>
    <path d="m1699.8 425.17-1.2 0.64-4.24 9.6799 1.84 16 4.72 8.7199 6.7199 0.88 23.36-2.72 6.6399-6.24-1.04-12.64-3.36-4.08-23.92-10.24z" fill="#728ca6"/>
    <path d="m1705.9 425.89-3.5999 15.44 6.3199 12.72 15.92 1.36 9.1199-5.84 2.24-12.72-2.24-12.32-14.96-4.8z" fill="#351e17"/>
   </g>
  </g>
  <g fill="#cf9873">
   <path d="m1855.5 436.77-8.0799 28.8-11.52 21.92-17.36-56.48-1.12-71.519-16.16-108.48-46.16-58.8-47.04-39.6-37.2-0.71999 8.0799 10.4-28.8-9.2799-41.92 4.4 13.92 8.0799-46.16-2.32-40.4-4.64-49.28-4.32 15.04 6.88-35.76-2.4-56.88 20-38.88 57.36-16.16 51.92-2.32 62.24-10.4 96.959-9.1999 56.48-9.2799-34.56-13.84-20.8-3.44-27.68 1.2-42.72 6.88-62.24 6.9599-58.88 10.32-19.6-6.8799 1.12 12.72-21.92 6.8799-31.12 19.6-10.4-11.52-3.44 25.36-17.28 30-25.36-13.84-2.32 26.56-6.96-5.76-9.1999 19.6-5.76 21.92-17.36 34.56-4.56-11.52-5.76h35.76l30-1.2-4.6399-13.84 18.48 8.0799 18.48-1.12 26.56 8.0799-5.76-12.72 12.64 9.1999 9.2799 1.2 10.32-13.84v16.16l9.2799 3.44 6.88-2.32 15.04 11.52 54.16 21.92 24.24 16.16 3.44-6.88 12.72 13.84 20.8 25.36 1.12-9.1999 15.04 27.68 10.062 17.689 11.629 13.879 3.0551 11.936 17.893 31.456 13.84 81.919 5.7599 78.399z"/>
   <path d="m1544.5 380.21-32.24-29.44-28.88-12.64-15.6-4.64 1.2 2.88-22.48-1.68-23.68 3.44-32.32 8.6399h8.6399l-13.2 5.76-15.04 15.6 17.92-2.88h18.4l22.56-7.52 36.32 3.44 31.68 9.2799 22.56 12.64 23.6 6.4 5.2-2.88z" fill-opacity=".60081"/>
   <path d="m1636.3 392.93 19.6-24.8 27.12-14.4 47.28-3.52-8.08 4.08 24.24 1.68 29.44 10.4 12.64 13.84 4.64 7.52-20.16-4.64-44.48-1.12-29.92-2.88-32.32 3.44-19.04 10.96z" fill-opacity=".60081"/>
  </g>
  <g fill="#ea9477">
   <path d="m1307.2 479.41 0.24 6.88 8.8799 8.9599 8.56 15.04 3.2799 1.68-5.2799-13.92-10.64-17.52z"/>
   <path d="m1854.7 468.29-11.36 23.28-1.68 10.56 7.76-13.04 7.7599-16.32zm-526.96 58.32v90.159l0.96 18.24 1.12 0.48 4.56 15.12c3.44 4.96 11.2 16 10.48 14.72-0.8-1.68-9.3599-34.72-9.3599-34.72l-3.68-54.64-0.8-40.4zm509.84 0.8-2 83.679-9.04 45.2 7.76-9.3599 4.08-11.84 1.8399-1.12 1.84-50.64z"/>
   <path d="m1375.6 721.73 48.4 110.72 46.16 91.119 54.24 32.32 81.919 19.6 54.24-14.96 41.52-35.76 48.4-77.359 26.56-81.839-25.36 93.439-40.4 64.56-43.84 40.4-56.48 19.6-89.999-21.92-57.68-35.76-41.52-71.52z"/>
  </g>
  <path d="m1627.1 444.61 8.32 2.88 3.0399 17.12-2.1599 10.48-10.08 0.48-5.2799-11.28-1.36-14.72z" fill="#f5f5f5" fill-opacity=".46465"/>
  <g>
   <path d="m1503.5 719.25h-3.2799l-1.44-1.84-3.28-2.16-2-3.84-6.1599-3.6-4.88 0.87999-4.24 4-2.48 1.12-0.7999 2.72-1.6 3.44h-3.12l-2 2.16 0.8 5.12 3.6 5.12 4.1599 2.16h2.56l3.84 0.16 1.6 4.4 0.16 3.6-3.76 2-0.4 4.4-1.44 3.76-3.28 2.72-1.9999 2.96-1.12 5.28-0.16 3.76 3.4399 7.9999 4 4.56 6 0.72 8.1599-2 3.68 1.44 4 0.4 6.7199-4 3.44-4.16-0.72-6.4-1.44-3.28 3.04-1.84 3.2799-3.2 4.72-6.4 0.56-4 1.28-1.28 3.44-0.72 5.9999-5.28 0.16-6.72-1.6-4.16-3.9999-7.8399-0.88-4.88-2.56-1.44-4.56-0.16-5.2799 1.6-2 2-2.72 0.4-2.88 0.47999z" fill="#f2efc1"/>
   <path d="m1522 732.21 2.64-4-0.32-3.6-1.76-4.8-4.96-1.92-3.9199 0.31999-3.28-2.16-0.88-3.44-3.44-1.44-1.6 3.6-2.7199 3.44-2.96 2.48-1.36 4.08 3.12 4.32-1.68 1.52-4.96 0.4-2.64-3.52-4.2399-3.6-5.12 0.32-3.52-0.95999-3.8399 1.84-4.48 3.36-0.96 5.04 1.6 7.04 2.24 6.96 2.7999 4.4 4.96-0.39999 4.64-0.32 0.8 2.32 2.08 3.68 2.8799 7.12 2.64 2.72-0.48 5.44 0.8 5.52 3.6 3.68 3.52 1.44 3.1999 0.56 3.92 2.8 8.2399-0.32 4.72-3.92 0.88-5.36 1.36-1.28 6.5599-4 5.2-2.08 1.84-6.32 3.52-3.44-0.32-3.84-2.48-1.84-2.56-4.8-2.4-5.52-2.8-1.28-3.6799 0.48-2.24-3.36-1.68-2.88-0.08-2.96z" fill="#fefbde"/>
   <path d="m1544.8 807.49 2.16 2.48-0.4 2.24 0.48 3.92-1.6 3.9999 1.36 7.04 3.92 3.12 5.6799 0.56 2.56 1.2 2.48-1.2 3.68-1.04 2.08 2.32 2.9599 0.08 3.36-3.92 1.44-6.08-1.12-4.5599-1.68-1.92-2.32-2.96 2.24-4.16 2.56-2.48 4.08 1.6 3.52-2.6399 3.8399-1.36 4.16 0.64 3.52-0.4 4.7199-2.64 2.96-2.32 3.76-7.84 0.8-6-3.36-5.04-6.8799-4.88-1.28-3.68-2.32-3.28-7.44-2.4-5.4399 0.08-4.32 4.72-1.52 3.28-3.36-1.12-4.6399-0.32-7.84 0.56-3.4399 2.24-1.76-0.16-2.8-2.16-7.9199-1.04-5.2 4.24-2.08 4-3.28 8.1599-3.1199 3.92 0.56 2.88 2.8799 3.52 4.64 2.88 2.8 0.24 2.08 1.76 2.3199 1.84z" fill="#f2efc1"/>
   <path d="m1542.5 785.01-4.8 0.63999-2.48 2.56-2.48 4.48 1.76 5.04 2.8 2.72 0.56 3.84-2 2.9599 1.12 3.52 3.76-1.12 4.3999-0.16 3.84 0.56 3.92-1.68 1.28-5.1999 2.2399 0.4 3.52 3.4399-0.96 4.32 0.16 5.44 3.52 3.6799 1.6 3.36 3.92 1.6 5.4399 1.28 4.48-2.64 4.24-5.8399 3.7599-6.24 1.52-5.04-3.52-3.4399-3.2799-3.28 1.2-2.16 1.4399-3.92 3.44-6.7999 0.4-3.84 4.4-3.2 3.6-4.24 0.4-5.12-1.12-3.6-1.76-2.8-0.4-4.8-5.68-6-6.0799-0.95999-4.64 2.8-1.76-0.16-7.3599-2.32-4.96-2.56-5.9999 2.8-4.88-0.47999-2.72 2.8 0.24 3.04-2 5.12-2.56 5.36 0.88 2.96 2.72 2.48-0.96 3.92-1.12 3.2-2.24 2z" fill="#fefbde"/>
   <path d="m1631.5 794.93 3.2-0.88 1.84 1.28 3.7599 1.28 2.96 3.12 6.96 1.76 4.4799-2.16 2.88-5.04 2.16-1.68v-2.88l0.64-3.76 2.96-0.79999 1.2799-2.64-2.0799-4.72-4.88-3.92-4.56-0.95999-2.4799 0.71999-3.68 0.88-2.8-3.76-1.2-3.44 3.2-2.96-0.88-4.32 0.4-4.08 2.4-3.52 1.12-3.36-0.4-5.36-0.88-3.68-5.44-6.8-5.12-3.28-5.9999 0.95999-7.28 4.16-3.9199-0.4-3.92 0.72-5.36 5.68-2.2399 4.96 2.4799 5.92 2.24 2.72-2.48 2.64-2.2399 4-2.8 7.44 0.56 4-0.88 1.52-3.12 1.68-4.32 6.72 1.6 6.48 2.72 3.6 6 6.4 2.2399 4.48 2.8 0.72 4.4-1.04 4.64-3.04 1.3599-2.48 2.56-1.04 2.64-1.36z" fill="#f2efc1"/>
   <path d="m1610.1 787.49-1.44 4.56 1.28 3.36 3.0399 4.16 5.28 0.48 3.6-1.36 3.7599 1.2 1.76 3.04 3.76 0.48 0.56-3.92 1.68-4 2.16-3.2 0.24-4.32-4.24-3.36 1.28-1.84 4.6399-1.76 3.52 2.72 4.96 2.24 4.8799-1.68h3.68l3.12-2.88 3.44-4.4-0.4-5.12-3.52-6.4-4-6-3.9199-3.52-4.64 1.68-4.4 1.6-1.44-2-2.8799-2.96-4.72-6.08-3.28-1.92-1.12-5.36-2.24-5.04-4.4799-2.56-3.68-0.48001-3.36 0.32001-4.4799-1.6-7.84 2.56-3.44 5.04 0.56 5.44-0.96 1.52-5.1999 5.68-4.48 3.36v6.64l-2.48 4.24 1.36 3.6 2.88 1.12 3.76 3.92 3.84 4.64 3.0399 0.48 3.36-1.44 3.12 2.56 2.48 2.4 0.8 2.8z" fill="#fefbde"/>
   <path d="m1707.5 724.61-1.6-2.88 0.8-2.16 0.32-3.92 2.32-3.6 0.08-7.1999-3.2-3.84-5.5199-1.6-2.24-1.68-2.72 0.72-3.84 0.32-1.5199-2.72-2.88-0.64-4.08 3.12-2.56 5.68 0.16 4.72 1.28 2.24 1.68 3.36-2.96 3.6-3.04 1.92-3.6799-2.32-3.92 1.84-4.08 0.64-3.9999-1.52-3.44-0.24-5.12 1.68-3.4399 1.68-5.2 6.9599-2 5.76 2.32 5.52 5.7599 6.16 0.56 3.84 1.68 3.68 6.8 3.84 5.3599 0.95998 5.12-3.84 2.16-2.88 3.12 1.84 4.3999 1.2 7.92 0.95999 3.6799-1.52 1.76 0.47999 2.32 2.64 7.6 2.64 5.9199-3.2 2.8-3.52 4.8-7.2799 3.8399-3.28v-2.88l-2.08-4.08-4.0799-3.76-2.72-0.71999-1.6-2.16-1.92-2.32z" fill="#f2efc1"/>
   <path d="m1705.5 747.09 4.8 0.32 2.96-2 3.28-4-0.8-5.28-2.16-3.12 0.24-3.92 2.56-2.48-0.48-3.76-3.92 0.4-4.32-0.64-3.5999-1.36-4.24 0.87999-2.24 4.88-2.16-0.8-2.8-4.08 1.84-4.08 0.96-5.36-2.8-4.32-0.88-3.52-3.5199-2.4-5.12-2.32-4.88 1.68-5.3599 4.88-4.88 5.36-2.48 4.64 2.8 4.08 2.64 3.92-1.68 1.84-2.16 3.6-4.7199 6-1.12 3.68-4.96 2.32-4.32 3.44-1.4399 4.88 0.4799 3.76 1.04 3.12-0.48 4.72 4.4 7.04 5.76 2.16 5.1199-1.92 1.68 0.56 6.72 3.68 4.3999 3.52 6.4-1.52 4.72 1.36 3.1999-2.16 0.4-3.04 2.88-4.64 3.6-4.8-0.24-3.04-2.24-3.04 1.76-3.52 1.68-2.96 2.56-1.52z" fill="#fefbde"/>
   <path d="m1510 776.29-3.04 1.28-2-1.12-3.8399-0.72-3.36-2.8-7.04-0.96-4.2399 2.72-2.32 5.28-1.92 2 0.4 2.8-0.16 3.84-2.88 1.12-1.04 2.8 2.64 4.4 5.28 3.36 4.7199 0.4 2.4-0.96 3.52-1.36 3.2 3.44 1.6 3.28-2.8 3.2799 1.36 4.16 0.16 4.08-2 3.84-0.72 3.4399 1.04 5.28 1.28 3.5999 6.2399 6 5.44 2.72 5.8399-1.68 6.72-4.96 3.92-0.08 3.8399-1.2 4.72-6.2399 1.52-5.2-3.04-5.5999-2.64-2.48 2.16-2.88 1.76-4.24 1.92-7.6799-1.04-3.92 0.72-1.68 2.88-2 3.5199-7.12-2.3999-6.32-3.12-3.2-6.72-5.68-2.72-4.16-2.8799-0.4-4.32 1.6-4.24 3.52-1.04 2.64-2.3999 1.36-2.48 1.6z" fill="#f2efc1"/>
   <path d="m1532 781.17 0.88-4.72-1.6-3.2-3.5199-3.76-5.28 0.16-3.44 1.76-3.9199-0.72-2.08-2.8-3.76-0.08-0.08 4-1.2 4.16-1.76 3.44 0.32 4.24 4.56 2.88-1.12 2-4.4 2.32-3.7599-2.32-5.2-1.6-4.64 2.24-3.5999 0.39999-2.88 3.28-2.88 4.72 1.04 5.12 4.24 5.8399 4.7199 5.52 4.32 3.04 4.4-2.24 4.1599-2.16 1.6 1.92 3.28 2.56 5.4399 5.4399 3.44 1.6 1.68 5.12 2.88 4.7999 4.72 2h3.7599l3.28-0.72 4.64 1.12 7.5199-3.5199 2.8-5.44-1.2-5.28 0.72-1.68 4.48-6.2399 4.0799-3.84-0.8-6.5599 2-4.56-1.84-3.44-2.9599-0.72-4.16-3.5199-4.32-4.08-3.12-0.16-3.1999 1.84-3.36-2.16-2.72-2.08-1.2-2.72z" fill="#fefbde"/>
   <path d="m1563 821.57-3.04 1.28-2-1.12-3.8399-0.8-3.36-2.7199-7.04-1.04-4.2399 2.72-2.32 5.3599-1.92 1.92 0.4 2.8-0.16 3.84-2.88 1.1999-1.04 2.8 2.64 4.4 5.28 3.28 4.7199 0.4 2.4-0.96 3.52-1.28 3.2 3.3599 1.6 3.28-2.8 3.36 1.36 4.16 0.16 4.0799-2 3.76-0.72 3.44 1.04 5.2799 1.28 3.6 6.2399 6.08 5.44 2.64 5.8399-1.6 6.72-5.04h3.92l3.8399-1.2 4.72-6.3199 1.52-5.2-3.12-5.52-2.56-2.4799 2.16-2.88 1.76-4.24 1.92-7.7599-1.04-3.84 0.72-1.68 2.88-2 3.5199-7.1999-2.3999-6.24-3.12-3.28-6.72-5.5999-2.7199-4.24-2.88-0.32-4.32 1.52-4.24 3.6-1.04 2.56-2.3999 1.44-2.48 1.5999z" fill="#f2efc1"/>
   <path d="m1585.1 826.37 0.88-4.72-1.6-3.1199-3.5199-3.76-5.28 0.08-3.44 1.76-3.9199-0.72-2.08-2.8h-3.76l-0.08 3.92-1.2 4.2399-1.76 3.44 0.24 4.24 4.56 2.88-1.04 1.9999-4.4 2.24-3.7599-2.24-5.2-1.6799-4.64 2.2399-3.5999 0.48-2.88 3.2-2.88 4.8 1.04 5.0399 4.24 5.92 4.7199 5.5199 4.32 3.04 4.4-2.32 4.1599-2.0799 1.6 1.8399 3.28 2.64 5.44 5.44 3.4399 1.52 1.68 5.1999 2.88 4.72 4.72 2 3.7599 0.08 3.28-0.72 4.64 1.04 7.5199-3.44 2.8-5.4399-1.2-5.36 0.72-1.6 4.48-6.2399 4.0799-3.92-0.8-6.56 2-4.4799-1.84-3.44-2.9599-0.8-4.16-3.44-4.32-4.16-3.1199-0.08-3.2 1.84-3.36-2.2399-2.72-2-1.2-2.8z" fill="#fefbde"/>
   <path d="m1634.3 807.73-1.68-2.8799 0.88-2.16 0.32-3.92 2.32-3.6 0.08-7.1999-3.2-3.76-5.52-1.68-2.24-1.68-2.7199 0.72-3.84 0.32-1.52-2.72-2.88-0.63999-4.08 3.12-2.5599 5.68 0.16 4.72 1.2 2.2399 1.7599 3.36-2.9599 3.6-3.12 2-3.6-2.4-3.92 1.84-4.0799 0.64-4-1.44-3.52-0.32-5.1199 1.68-3.36 1.68-5.28 6.9599-1.92 5.76 2.32 5.5199 5.76 6.16 0.56 3.8399 1.68 3.68 6.7999 3.84 5.28 0.96 5.1999-3.76 2.16-2.88 3.04 1.76 4.48 1.2 7.8399 0.96 3.76-1.52 1.76 0.48 2.32 2.64 7.5999 2.64 5.92-3.2 2.7999-3.44 4.8-7.3599 3.84-3.2v-2.96l-2.08-3.9999-4.08-3.84-2.72-0.72-1.68-2.16-1.9199-2.24z" fill="#f2efc1"/>
   <path d="m1632.3 830.21 4.8 0.32 2.9599-2 3.28-3.92-0.8-5.2799-2.16-3.2 0.24-3.92 2.56-2.48-0.48-3.76-3.92 0.4801-4.3199-0.7201-3.6-1.3599-4.24 0.88-2.24 4.8799-2.1599-0.8-2.8-4.0799 1.76-4.08 1.04-5.36-2.8-4.32-0.88-3.52-3.52-2.4-5.1199-2.32-4.88 1.68-5.36 4.88-4.8799 5.3599-2.48 4.64 2.8 4.16 2.5599 3.8399-1.5999 1.84-2.16 3.6-4.8 5.9999-1.04 3.68-4.9599 2.32-4.4 3.44-1.36 4.8799 0.4 3.76 1.12 3.12-0.48 4.8 4.32 6.9599 5.7599 2.16 5.2-1.92 1.68 0.56 6.7199 3.68 4.4 3.5999 6.3999-1.5999 4.72 1.3599 3.2-2.1599 0.4-3.04 2.8799-4.64 3.6-4.7999-0.24-3.04-2.24-2.96 1.76-3.6 1.68-2.96 2.56-1.5199z" fill="#fefbde"/>
   <path d="m1519.1 834.69h-3.28l-1.4399-1.8399-3.28-2.16-2-3.84-6.16-3.6-4.8799 0.88-4.24 4-2.48 1.12-0.8 2.72-1.6 3.4399h-3.1199l-2 2.16 0.72 5.12 3.68 5.1199 4.1599 2.16h2.56l3.84 0.16 1.6 4.4 0.16 3.6-3.76 1.9999-0.4 4.4-1.44 3.76-3.28 2.72-2 2.9599-1.1199 5.2-0.16 3.84 3.4399 7.9999 4 4.56 6 0.72 8.1599-2 3.68 1.44 3.9999 0.4 6.72-4 3.44-4.24-0.72-6.3199-1.44-3.28 3.04-1.84 3.2799-3.2 4.72-6.3999 0.56-4 1.28-1.28 3.44-0.72 5.9999-5.2799 0.16-6.72-1.6-4.1599-3.9999-7.84-0.88-4.8799-2.56-1.44-4.56-0.16-5.28 1.6-1.9999 1.9999-2.72 0.32-2.88 0.56z" fill="#f2efc1"/>
   <path d="m1537.6 847.65 2.64-3.9999-0.32-3.6-1.76-4.8-4.96-1.9199-3.92 0.32-3.2799-2.16-0.88-3.44-3.44-1.44-1.6 3.6-2.72 3.44-2.9599 2.4799-1.36 4.08 3.1199 4.32-1.6799 1.52-4.96 0.4-2.64-3.6-4.24-3.52-5.1199 0.32-3.52-0.96-3.84 1.84-4.4799 3.36-0.96 5.0399 1.6 7.04 2.24 6.9599 2.7999 4.4 4.96-0.4 4.64-0.32 0.8 2.32 2.0799 3.68 2.88 7.1199 2.64 2.72-0.48 5.44 0.8 5.5199 3.6 3.6 3.5199 1.52 3.2 0.56 3.92 2.7999 8.2399-0.32 4.72-3.9199 0.88-5.44 1.36-1.2 6.5599-4 5.2-2.0799 1.84-6.32 3.5199-3.44-0.3199-3.8399-2.48-1.84-2.56-4.8-2.4-5.5199-2.8-1.28-3.6799 0.48-2.24-3.36-1.68-2.88-0.08-2.96z" fill="#fefbde"/>
   <path d="m1429.9 783.97-2.16 2.48-2.32-0.15999-3.76 1.04-4.2399-1.04-6.8 2.24-2.56 4.24 0.24 5.76-0.8799 2.64 1.5199 2.4 1.52 3.4399-2.08 2.32 0.32 2.96 4.32 2.8 6.24 0.72 4.3999-1.68 1.68-1.92 2.64-2.72 4.32 1.6 2.8799 2.32-1.0399 4.16 3.0399 3.1999 1.92 3.6-0.16 4.24 0.88 3.44 3.2 4.3199 2.72 2.64 8.3199 2.72h6l4.5599-4 3.92-7.4399 3.44-1.76 2.96-2.72 1.4399-7.6799-0.8-5.36-5.2799-3.68-3.36-1.12 0.64-3.5199-0.24-4.56-1.68-7.7599-2.64-3.12-0.08-1.76 1.76-3.04v-7.9999l-4.8799-4.64-4.24-1.52-8.4799-2.16-4.32-2.56-2.72 0.88-3.2 3.28-2.2399 5.04 0.1599 2.88-1.5199 2.24-1.52 2.56z" fill="#f2efc1"/>
   <path d="m1451.9 778.69-1.28-4.64-2.7999-2.16-4.8-1.84-4.8 2.4-2.32 3.12-3.7599 1.04-3.12-1.6-3.44 1.6 1.68 3.6 0.72 4.32-0.08 3.84 2.16 3.76 5.3599 0.55999-0.08 2.24-2.9599 4-4.4-0.4-5.44 0.8-3.1999 4-3.04 2-1.12 4.1599-0.48 5.52 3.12 4.08 6.3199 3.5199 6.72 2.88 5.1999 0.88 2.96-4 2.8-3.6799 2.32 0.96 4.08 0.88 7.1999 2.5599 3.84-0.16 3.7599 3.92 4.64 3.04 5.12-0.32 3.4399-1.6 2.56-2 4.72-1.12 5.2-6.3999 0.1599-6.08-3.4399-4.24v-1.8399l1.28-7.52 1.92-5.28-3.52-5.6-0.24-4.88-3.12-2.32-2.96 0.56-5.2799-1.28-5.76-1.76-2.8 1.2-2.08 3.04-3.9999-0.48-3.28-0.63999-2.24-2z" fill="#fefbde"/>
   <path d="m1595.6 939.97 3.1199-0.88 1.92 1.36 3.76 1.1999 2.96 3.12 6.8799 1.84 4.48-2.24 2.96-4.9599 2.1599-1.76-0.08-2.8 0.64-3.76 2.96-0.88 1.36-2.64-2.08-4.7199-4.8799-3.84-4.64-0.96-2.4 0.64-3.76 0.88-2.7199-3.76-1.2-3.4399 3.12-2.96-0.8-4.32 0.32-4 2.3999-3.5199 1.12-3.36-0.32-5.36-0.88-3.7599-5.5199-6.72-5.12-3.28-5.9199 0.88-7.36 4.16-3.84-0.4-3.9999 0.72-5.36 5.68-2.16 4.9599 2.4 5.92 2.32 2.8-2.48 2.5599-2.24 4.08-2.88 7.36 0.56 3.9999-0.8799 1.6-3.12 1.6-4.32 6.72 1.68 6.4799 2.72 3.6 5.9199 6.4799 2.24 4.4 2.88 0.72 4.4-1.04 4.6399-3.04 1.36-2.4 2.48-1.1199 2.72-1.28z" fill="#f2efc1"/>
   <path d="m1574.3 932.53-1.44 4.64 1.2 3.28 3.04 4.1599 5.36 0.56 3.5999-1.36 3.76 1.12 1.76 3.12 3.68 0.48 0.56-4 1.7599-3.9999 2.16-3.2 0.16-4.24-4.1599-3.36 1.2799-1.9199 4.64-1.76 3.44 2.7199 5.04 2.24 4.8799-1.68h3.6l3.2-2.8799 3.4399-4.4-0.48-5.12-3.4399-6.3199-4.08-6.08-3.92-3.5199-4.6399 1.7599-4.32 1.6-1.44-2.08-2.96-2.9599-4.7199-6-3.28-2-1.04-5.3599-2.32-5.04-4.4-2.48-3.7599-0.56-3.28 0.4-4.48-1.68-7.9199 2.56-3.44 5.12 0.64 5.3599-0.96 1.6-5.1999 5.6-4.48 3.44v6.5599l-2.48 4.24 1.36 3.68 2.8 1.1199 3.8399 3.92 3.76 4.56 3.04 0.56 3.44-1.44 3.0399 2.56 2.48 2.32 0.88 2.8799z" fill="#fefbde"/>
   <path d="m1721.8 837.33-1.68-2.88 0.88-2.1599 0.32-3.92 2.32-3.6 0.08-7.1199-3.2-3.84-5.5999-1.68-2.16-1.68-2.72 0.72-3.84 0.32-1.5199-2.72-2.88-0.64-4.08 3.2-2.64 5.6 0.24 4.7199 1.2 2.24 1.76 3.44-2.96 3.52-3.12 2-3.5999-2.32-4 1.84-4 0.64-3.9999-1.52-3.52-0.32-5.12 1.68-3.36 1.7599-5.2799 6.88-1.92 5.76 2.32 5.5999 5.7599 6.08 0.56 3.9199 1.68 3.6 6.8 3.84 5.2799 0.96 5.2-3.76 2.08-2.88 3.12 1.76 4.4799 1.2 7.84 0.96 3.7599-1.44 1.76 0.48 2.32 2.64 7.52 2.56 5.9999-3.2 2.8-3.44 4.8-7.3599 3.8399-3.2v-2.96l-2.08-4-4.0799-3.7599-2.72-0.8-1.68-2.16-1.92-2.24z" fill="#f2efc1"/>
   <path d="m1719.7 859.81 4.72 0.32 2.96-2 3.36-3.92-0.8-5.28-2.16-3.1999 0.24-3.92 2.48-2.48-0.4-3.68-3.92 0.4-4.32-0.72-3.6799-1.28-4.16 0.8-2.24 4.88-2.16-0.8-2.8-4.08 1.76-3.9999 1.04-5.44-2.8-4.32-0.88-3.5199-3.5999-2.4-5.04-2.32-4.96 1.68-5.2799 4.9599-4.88 5.36-2.48 4.64 2.8 4.0799 2.56 3.84-1.6 1.92-2.24 3.52-4.7199 6.0799-1.04 3.6-4.96 2.32-4.4 3.44-1.36 4.9599 0.4 3.68 1.12 3.12-0.48 4.7999 4.32 7.04 5.76 2.08 5.1199-1.84 1.76 0.48 6.72 3.76 4.3999 3.5199 6.4-1.6 4.7199 1.36 3.2-2.16 0.4-3.0399 2.88-4.64 3.6-4.8-0.24-3.0399-2.24-2.96 1.76-3.6 1.68-2.96 2.5599-1.52z" fill="#fefbde"/>
   <path d="m1527.1 991.89 3.1199-0.96 1.92 1.36 3.68 1.2 2.96 3.1999 6.9599 1.76 4.48-2.16 2.96-5.0399 2.08-1.68v-2.88l0.64-3.76 2.9599-0.7999 1.36-2.64-2.08-4.72-4.8799-3.92-4.64-0.96-2.48 0.72-3.6799 0.88-2.8-3.7599-1.12-3.44 3.12-2.96-0.88-4.32 0.4-4.0799 2.3999-3.52 1.12-3.36-0.4-5.3599-0.88-3.68-5.4399-6.8-5.12-3.2799-5.9199 0.96-7.36 4.1599-3.9199-0.4-3.92 0.72-5.36 5.68-2.16 4.9599 2.4 5.92 2.32 2.72-2.48 2.64-2.32 3.9999-2.7999 7.44 0.56 3.9999-0.88 1.52-3.12 1.68-4.32 6.64 1.68 6.5599 2.72 3.6 5.9199 6.3999 2.24 4.48 2.8 0.72 4.48-1.04 4.5599-3.04 1.44-2.48 2.48-1.1199 2.64-1.28z" fill="#f2efc1"/>
   <path d="m1505.7 984.45-1.44 4.56 1.2 3.36 3.04 4.1599 5.28 0.48 3.6799-1.3599 3.68 1.1999 1.84 3.04 3.68 0.48 0.56-3.92 1.68-3.9999 2.1599-3.2 0.24-4.32-4.2399-3.3599 1.28-1.84 4.6399-1.76 3.52 2.72 5.04 2.2399 4.7999-1.6799h3.68l3.2-2.88 3.4399-4.4-0.4799-5.1999-3.44-6.32-4.08-6.08-3.92-3.4399-4.6399 1.6799-4.4 1.6-1.36-2-2.96-2.9599-4.7199-6.08-3.28-1.92-1.04-5.3599-2.32-5.04-4.4799-2.56-3.68-0.48-3.28 0.32-4.56-1.6-7.8399 2.56-3.44 5.04 0.56 5.4399-0.88 1.52-5.1999 5.68-4.48 3.36-0.08 6.6399-2.4 4.24 1.36 3.6 2.8 1.1199 3.84 3.92 3.7599 4.64 3.04 0.48 3.44-1.44 3.04 2.56 2.4799 2.4 0.8 2.7999z" fill="#fefbde"/>
   <path d="m1705.3 937.97-1.5999-2.88 0.8-2.16 0.3199-3.92 2.32-3.5999 0.08-7.2-3.1999-3.7599-5.52-1.68-2.24-1.68-2.72 0.72-3.8399 0.32-1.52-2.72-2.88-0.64-4.08 3.12-2.56 5.6799 0.16 4.72 1.28 2.24 1.68 3.36-2.96 3.5999-3.0399 2-3.68-2.32-3.92 1.84-4.0799 0.56-4-1.44-3.44-0.32-5.12 1.68-3.4399 1.68-5.2 6.9599-2 5.76 2.32 5.6 5.76 6.0799 0.56 3.84 1.6799 3.68 6.8 3.8399 5.36 0.96 5.1199-3.7599 2.16-2.88 3.12 1.76 4.3999 1.2 7.92 0.9599 3.68-1.4399 1.7599 0.4 2.32 2.6399 7.6 2.64 5.9199-3.2 2.8-3.4399 4.8-7.36 3.8399-3.2v-2.9599l-2.0799-4-4-3.76-2.8-0.8-1.6-2.16-1.92-2.2399z" fill="#f2efc1"/>
   <path d="m1703.2 960.45 4.7999 0.32 2.96-2 3.28-3.9199-0.8-5.28-2.16-3.2 0.24-3.92 2.56-2.4799-0.48-3.68-3.92 0.4-4.32-0.72-3.5999-1.28-4.24 0.8-2.24 4.88-2.16-0.8-2.7999-4.08 1.8399-4.08 0.96-5.3599-2.7999-4.32-0.88-3.52-3.52-2.4-5.12-2.3199-4.8799 1.6799-5.36 4.88-4.88 5.44-2.4799 4.6399 2.7999 4.08 2.64 3.84-1.68 1.84-2.16 3.5999-4.7199 6.08-1.12 3.6-4.96 2.3199-4.3199 3.44-1.44 4.96 0.48 3.68 1.04 3.1199-0.48 4.8 4.3999 7.0399 5.76 2.08 5.1199-1.84 1.68 0.48 6.8 3.68 4.32 3.6 6.3999-1.6 4.72 1.36 3.1999-2.16 0.4-3.04 2.88-4.6399 3.6-4.8-0.24-3.04-2.24-2.96 1.76-3.5999 1.68-2.96 2.56-1.52z" fill="#fefbde"/>
   <path d="m1378.7 921.89 2.1599 2.48-0.3999 2.24 0.4799 3.9199-1.5999 4 1.36 7.0399 3.8399 3.12 5.76 0.56 2.48 1.2 2.5599-1.28 3.68-0.96 2 2.32 2.96 0.08 3.36-3.92 1.5199-6.0799-1.1199-4.56-1.68-1.92-2.32-3.0399 2.16-4.08 2.6399-2.48 4 1.52 3.52-2.56 3.84-1.36 4.2399 0.64 3.52-0.4 4.64-2.64 3.0399-2.3199 3.76-7.84 0.8-5.9999-3.36-5.04-6.8799-4.88-1.28-3.6799-2.32-3.28-7.4399-2.4-5.44 0.08-4.32 4.72-1.5199 3.2799-3.36-1.2-4.64-0.32-7.9199 0.64-3.36 2.24-1.76-0.16-2.8-2.16-7.9199-1.0399-5.2 4.2399-2.08 4-3.2799 8.1599-3.12 3.84 0.56 2.88 2.8 3.6 4.7199 2.8799 2.8 0.24 2.08 1.76 2.32 1.84z" fill="#f2efc1"/>
   <path d="m1376.3 899.41-4.72 0.64-2.48 2.5599-2.4799 4.48 1.7599 5.04 2.8 2.64 0.56 3.9199-2.08 2.88 1.2 3.6 3.76-1.2 4.4-0.16 3.7599 0.64 4-1.68 1.28-5.2 2.24 0.32 3.52 3.52-0.96 4.32 0.08 5.4399 3.5999 3.68 1.52 3.28 4 1.68 5.44 1.28 4.4799-2.64 4.24-5.84 3.76-6.2399 1.52-5.04-3.52-3.44-3.36-3.2799 1.28-2.16 1.44-3.92 3.44-6.88 0.4-3.7599 4.3999-3.2 3.6-4.24 0.4-5.1199-1.2-3.6-1.68-2.8-0.4-4.7999-5.6799-6-6.08-0.96-4.64 2.8-1.7599-0.16-7.36-2.32-4.96-2.64-5.9999 2.8-4.88-0.4-2.72 2.8 0.16 3.04-1.9199 5.1199-2.56 5.36 0.88 2.96 2.72 2.4799-0.96 3.92-1.12 3.2-2.24 1.92z" fill="#fefbde"/>
   <path d="m1815.8 852.53h-3.2799l-1.44-1.84-3.28-2.16-2-3.8399-6.16-3.6-4.8799 0.88-4.24 4-2.48 1.04-0.8 2.7999-1.5999 3.44h-3.12l-2 2.16 0.8 5.12 3.6 5.0399 4.1599 2.16h2.56l3.84 0.24 1.6 4.32 0.16 3.6799-3.76 2-0.4 4.32-1.44 3.84-3.28 2.7199-2 2.88-1.1199 5.28-0.16 3.84 3.4399 7.9999 4 4.48 6 0.8 8.2399-2 3.6 1.44 3.9999 0.3199 6.72-3.9999 3.44-4.16-0.72-6.3199-1.44-3.28 3.04-1.84 3.2799-3.28 4.72-6.3199 0.56-4 1.28-1.28 3.44-0.72 5.9999-5.2799 0.16-6.72-1.6-4.16-3.9999-7.8399-0.88-4.88-2.56-1.52-4.56-0.16-5.2799 1.68-2 2-2.72 0.32-2.88 0.56z" fill="#f2efc1"/>
   <path d="m1834.3 865.41 2.64-4-0.32-3.5199-1.76-4.8-4.96-2-3.9199 0.32-3.28-2.08-0.88-3.4399-3.44-1.52-1.6 3.6799-2.72 3.36-2.9599 2.48-1.36 4.08 3.1199 4.3999-1.6799 1.44-4.96 0.4-2.64-3.5199-4.24-3.52-5.1199 0.32-3.52-1.04-3.84 1.92-4.4799 3.2799-0.96 5.12 1.6 7.04 2.24 6.8799 2.7999 4.48 4.96-0.4 4.64-0.32 0.8 2.32 2.0799 3.6799 2.88 7.04 2.64 2.8-0.48 5.4399 0.8 5.44 3.6 3.68 3.5199 1.5199 3.2 0.56 3.92 2.8 8.2399-0.32 4.72-4 0.88-5.3599 1.36-1.2 6.5599-4.08 5.2-2 1.84-6.3999 3.52-3.36-0.32-3.84-2.48-1.9199-2.56-4.8-2.4-5.44-2.8-1.28-3.6799 0.4-2.24-3.2799-1.68-2.96-0.08-2.96z" fill="#fefbde"/>
   <path d="m1409.3 964.69 3.12-0.88 1.92 1.36 3.76 1.2 2.96 3.1199 6.8799 1.84 4.48-2.24 2.9599-4.9599 2.16-1.76-0.08-2.8 0.64-3.76 2.96-0.88 1.36-2.6399-2.08-4.64-4.88-3.92-4.6399-0.96-2.4 0.64-3.76 0.88-2.72-3.7599-1.1999-3.44 3.1199-2.96-0.8-4.24 0.32-4.0799 2.4-3.52 1.12-3.36-0.32-5.3599-0.88-3.76-5.5199-6.72-5.04-3.2799-6 0.9599-7.3599 4.08-3.84-0.4-3.9999 0.8-5.36 5.68-2.16 4.9599 2.4 5.92 2.32 2.72-2.48 2.56-2.24 4.0799-2.88 7.36 0.56 3.9999-0.8 1.6-3.1999 1.6-4.32 6.72 1.68 6.5599 2.72 3.52 5.9199 6.4799 2.24 4.48 2.88 0.64 4.3999-1.04 4.64-2.96 1.36-2.4799 2.56-1.12 2.64-1.28z" fill="#f2efc1"/>
   <path d="m1388 957.33-1.44 4.56 1.2 3.36 3.04 4.0799 5.3599 0.56 3.6-1.36 3.76 1.12 1.76 3.12 3.6799 0.48 0.56-3.92 1.76-4.0799 2.16-3.2 0.16-4.24-4.16-3.3599 1.28-1.92 4.64-1.68 3.44 2.64 5.0399 2.2399 4.88-1.6799 3.6 0.08 3.1999-2.88 3.44-4.4-0.48-5.2-3.44-6.3199-4.0799-6.08-3.92-3.5199-4.64 1.7599-4.3199 1.6-1.44-2.0799-2.96-2.96-4.72-6-3.2799-2-1.04-5.2799-2.32-5.12-4.4-2.48-3.7599-0.48-3.28 0.32-4.48-1.6799-7.9199 2.5599-3.44 5.12 0.64 5.44-0.96 1.5199-5.2 5.68-4.4799 3.36v6.6399l-2.48 4.24 1.36 3.6 2.8 1.12 3.8399 3.9199 3.76 4.64 3.04 0.48 3.4399-1.44 3.04 2.56 2.48 2.32 0.88 2.8799z" fill="#fefbde"/>
   <path d="m1383.6 864.37-1.6-2.88 0.88-2.1599 0.24-3.92 2.4-3.6 0.08-7.1999-3.2-3.76-5.5999-1.68-2.16-1.68-2.72 0.72-3.84 0.32-1.5199-2.72-2.88-0.64-4.08 3.12-2.64 5.68 0.16 4.7199 1.28 2.24 1.76 3.36-2.96 3.6-3.12 2-3.5999-2.32-4 1.84-4 0.5599-3.9999-1.4399-3.52-0.32-5.12 1.68-3.3599 1.6799-5.28 6.96-2 5.76 2.4 5.5199 5.7599 6.16 0.56 3.8399 1.6 3.68 6.8 3.84 5.3599 0.96 5.2-3.76 2.08-2.88 3.12 1.76 4.4799 1.2 7.84 0.96 3.7599-1.52 1.76 0.48 2.32 2.64 7.52 2.64 5.9199-3.2 2.88-3.44 4.8-7.3599 3.7599-3.2 0.08-2.96-2.16-4-3.9999-3.8399-2.72-0.72-1.68-2.16-1.92-2.24z" fill="#f2efc1"/>
   <path d="m1381.6 886.85 4.72 0.32 2.96-2 3.36-3.92-0.8-5.28-2.24-3.1999 0.24-3.92 2.56-2.48-0.4-3.68-3.92 0.4-4.32-0.72-3.6799-1.36-4.16 0.88-2.24 4.88-2.16-0.8-2.8-4.08 1.76-4.0799 0.96-5.36-2.72-4.32-0.88-3.5199-3.5999-2.4-5.04-2.32-4.96 1.68-5.2799 4.8799-4.96 5.36-2.4 4.72 2.8 4.0799 2.56 3.84-1.6 1.84-2.24 3.6-4.7199 5.9999-1.12 3.68-4.88 2.32-4.4 3.44-1.3599 4.8799 0.3999 3.76 1.12 3.12-0.48 4.7999 4.32 7.04 5.76 2.08 5.1199-1.92 1.76 0.56 6.72 3.68 4.3999 3.5999 6.4-1.6 4.72 1.36 3.1999-2.16 0.4-3.0399 2.88-4.64 3.6-4.8-0.32-3.0399-2.16-2.96 1.76-3.6 1.68-2.96 2.56-1.52z" fill="#fefbde"/>
   <path d="m1314.3 887.81h-3.2799l-1.52-1.84-3.2-2.16-2-3.84-6.2399-3.6-4.88 0.88-4.16 4-2.5599 1.12-0.72 2.72-1.6 3.4399h-3.12l-2 2.16 0.72 5.12 3.6 5.12 4.2399 2.1599h2.48l3.84 0.16 1.68 4.4 0.16 3.6-3.84 2-0.32 4.3999-1.52 3.76-3.2 2.72-1.9999 2.96-1.12 5.2799-0.16 3.76 3.4399 7.9999 4 4.56 6 0.72 8.1599-2 3.6 1.44 4 0.4 6.7199-4 3.52-4.1599-0.8-6.4-1.44-3.28 3.12-1.84 3.2799-3.1999 4.72-6.4 0.56-4 1.28-1.2799 3.44-0.72 5.9999-5.28 0.16-6.72-1.68-4.1599-3.9199-7.84-0.96-4.8799-2.56-1.44-4.48-0.16-5.2799 1.6-2 2-2.72 0.4-2.96 0.48z" fill="#f2efc1"/>
   <path d="m1332.8 900.77 2.64-4-0.24-3.6-1.84-4.8-4.96-1.9199-3.8399 0.3199-3.28-2.1599-0.88-3.44-3.44-1.44-1.6 3.6-2.7999 3.4399-2.88 2.48-1.36 4.08 3.12 4.32-1.76 1.52-4.96 0.4-2.64-3.52-4.1599-3.6-5.12 0.32-3.52-0.96-3.8399 1.84-4.48 3.36-1.04 5.0399 1.68 7.04 2.24 6.9599 2.7999 4.4 4.96-0.4 4.64-0.32 0.8 2.32 2 3.68 2.8799 7.1199 2.64 2.72-0.4 5.44 0.8 5.5199 3.6 3.68 3.44 1.44 3.2799 0.56 3.84 2.8 8.3199-0.32 4.64-3.92 0.96-5.36 1.28-1.28 6.5599-3.9999 5.2-2.08 1.84-6.32 3.52-3.4399-0.32-3.84-2.4-1.84-2.56-4.8-2.4-5.5199-2.8-1.28-3.6799 0.48-2.32-3.28-1.68-2.96v-2.96z" fill="#fefbde"/>
   <path d="m1758.5 900.21h-3.28l-1.44-1.84-3.28-2.16-2-3.84-6.1599-3.6-4.88 0.88-4.24 4-2.4799 1.12-0.72 2.72-1.68 3.44h-3.04l-2 2.1599 0.72 5.12 3.6 5.12 4.1599 2.1599h2.56l3.84 0.16 1.6 4.4 0.16 3.6-3.76 2-0.4 4.3199-1.44 3.84-3.2799 2.72-2 2.96-1.04 5.1999-0.24 3.84 3.44 7.9999 3.9999 4.56 6 0.72 8.2399-2 3.6 1.44 4 0.4 6.7199-4 3.44-4.2399-0.72-6.32-1.44-3.28 3.12-1.8399 3.2-3.28 4.7199-6.32 0.56-3.9999 1.28-1.28 3.44-0.72 5.9999-5.28 0.24-6.7199-1.68-4.16-3.9999-7.84-0.88-4.8799-2.56-1.44-4.56-0.24-5.2799 1.68-2 2-2.72 0.32-2.88 0.56z" fill="#f2efc1"/>
   <path d="m1777.1 913.17 2.64-4-0.32-3.6-1.76-4.7999-4.96-1.92-3.9199 0.32-3.2-2.16-0.88-3.44-3.52-1.44-1.6 3.6-2.7199 3.44-2.96 2.4799-1.36 4.08 3.12 4.32-1.68 1.52-4.96 0.4-2.64-3.6-4.1599-3.52-5.2 0.32-3.44-1.04-3.9199 1.92-4.48 3.36-0.96 5.0399 1.6 7.04 2.24 6.96 2.8 4.3999 4.9599-0.4 4.64-0.32 0.8 2.32 2.08 3.68 2.8799 7.1199 2.64 2.72-0.48 5.44 0.88 5.5199 3.52 3.6 3.52 1.52 3.1999 0.56 3.92 2.8 8.24-0.32 4.7199-3.92 0.88-5.44 1.36-1.2 6.56-3.9999 5.1999-2.08 1.84-6.32 3.52-3.4399-0.32-3.84-2.48-1.84-2.56-4.8-2.4-5.5199-2.7999-1.28-3.68 0.48-2.24-3.36-1.68-2.88-0.08-3.0399z" fill="#fefbde"/>
   <path d="m1880.2 906.05-1.6-2.8 0.8-2.16 0.32-3.9199 2.3199-3.68 0.08-7.1199-3.1999-3.84-5.52-1.6-2.24-1.68-2.72 0.72-3.8399 0.24-1.52-2.64-2.88-0.72-4.08 3.2-2.56 5.68 0.16 4.7199 1.28 2.16 1.68 3.44-2.96 3.6-3.0399 1.9199-3.68-2.3199-3.92 1.8399-4.0799 0.64-4-1.52-3.52-0.3199-5.12 1.6799-3.3599 1.76-5.28 6.96-1.92 5.6799 2.32 5.6 5.76 6.08 0.56 3.9199 1.68 3.68 6.7999 3.84 5.36 0.88 5.1199-3.76 2.16-2.88 3.12 1.76 4.4 1.28 7.9199 0.96 3.68-1.52 1.76 0.48 2.3199 2.64 7.6 2.56 5.9199-3.12 2.8-3.52 4.8-7.3599 3.84-3.2v-2.88l-2.08-4.08-4.08-3.7599-2.72-0.72-1.68-2.24-1.84-2.24z" fill="#f2efc1"/>
   <path d="m1878.1 928.61 4.7999 0.24 2.96-1.9999 3.28-3.92-0.8-5.28-2.16-3.2 0.24-3.9199 2.56-2.4-0.48-3.76-3.92 0.4-4.32-0.72-3.5999-1.28-4.24 0.8-2.24 4.88-2.16-0.8-2.7999-4.08 1.7599-3.9999 1.04-5.44-2.7999-4.24-0.88-3.5999-3.52-2.4-5.12-2.24-4.8799 1.68-5.36 4.8799-4.88 5.36-2.4799 4.64 2.7999 4.0799 2.56 3.92-1.6 1.84-2.1599 3.52-4.8 6.0799-1.04 3.6-4.96 2.32-4.3199 3.44-1.44 4.9599 0.4 3.76 1.12 3.12-0.48 4.7199 4.3199 7.04 5.76 2.08 5.2-1.84 1.6799 0.56 6.72 3.6799 4.4 3.52 6.3999-1.52 4.72 1.36 3.2-2.24 0.3999-3.0399 2.88-4.56 3.6-4.8-0.24-3.1199-2.24-2.96 1.76-3.6 1.68-2.96 2.56-1.44z" fill="#fefbde"/>
   <path d="m1674.7 974.61-1.6-2.88 0.88-2.16 0.24-3.9199 2.32-3.6 0.08-7.1999-3.2-3.76-5.52-1.68-2.24-1.68-2.7199 0.72-3.76 0.32-1.52-2.72-2.88-0.64-4.08 3.12-2.6399 5.68 0.16 4.7199 1.28 2.24 1.7599 3.36-3.0399 3.6-3.04 1.9999-3.6-2.3999-4 1.9199-3.9999 0.56-4-1.4399-3.52-0.32-5.1199 1.6799-3.44 1.68-5.2 6.96-2 5.7599 2.32 5.52 5.84 6.1599 0.48 3.84 1.68 3.68 6.7999 3.8399 5.36 0.96 5.1999-3.76 2.08-2.8799 3.12 1.76 4.48 1.1999 7.8399 0.96 3.76-1.52 1.68 0.48 2.4 2.64 7.5199 2.64 5.92-3.2 2.7999-3.4399 4.88-7.3599 3.76-3.2v-2.96l-2.08-4-4-3.8399-2.72-0.72-1.68-2.16-1.9199-2.24z" fill="#f2efc1"/>
   <path d="m1672.7 997.09 4.8 0.32 2.9599-2 3.28-3.9199-0.72-5.28-2.24-3.2 0.24-3.9199 2.56-2.48-0.4-3.68-4 0.4-4.3199-0.72-3.6-1.36-4.16 0.88-2.32 4.88-2.0799-0.8-2.8-4.08 1.76-4.08 0.96-5.3599-2.8-4.32-0.88-3.52-3.52-2.3999-5.1199-2.32-4.88 1.68-5.28 4.8799-4.9599 5.36-2.48 4.64 2.8 4.1599 2.6399 3.84-1.6799 1.84-2.16 3.6-4.72 5.9999-1.12 3.68-4.9599 2.32-4.32 3.4399-1.44 4.88 0.48 3.7599 1.12 3.12-0.56 4.8 4.4 7.0399 5.7599 2.08 5.12-1.92 1.68 0.56 6.7999 3.68 4.32 3.5999 6.4799-1.5999 4.64 1.36 3.2-2.16 0.4-3.04 2.9599-4.64 3.52-4.7999-0.24-3.04-2.24-2.96 1.76-3.5999 1.76-2.96 2.56-1.52z" fill="#fefbde"/>
   <path d="m1478.7 958.77h-3.28l-1.5199-1.84-3.2-2.16-2-3.8399-6.24-3.6-4.8799 0.88-4.16 4-2.56 1.12-0.72 2.7199-1.68 3.44h-3.0399l-2 2.16 0.72 5.12 3.6 5.0399 4.2399 2.16h2.48l3.84 0.24 1.68 4.32 0.16 3.6799-3.84 2-0.32 4.32-1.52 3.84-3.2 2.72-2 2.8799-1.1199 5.28-0.16 3.8399 3.4399 8 4 4.5599 6 0.72 8.1599-2 3.6 1.4401 3.9999 0.32 6.72-4 3.52-4.1599-0.8-6.3201-1.44-3.2799 3.12-1.84 3.2799-3.28 4.72-6.3199 0.56-4 1.28-1.28 3.44-0.72 5.9999-5.2799 0.16-6.72-1.68-4.1599-3.9199-7.84-0.96-4.88-2.56-1.5199-4.48-0.16-5.28 1.6799-1.9999 2-2.72 0.32-2.96 0.56z" fill="#f2efc1"/>
   <path d="m1497.2 971.65 2.64-3.9999-0.24-3.52-1.84-4.8-4.96-2-3.84 0.4-3.2799-2.16-0.88-3.4399-3.44-1.52-1.6 3.6799-2.8 3.36-2.8799 2.56-1.36 4 3.1199 4.3999-1.7599 1.44-4.96 0.4-2.64-3.5199-4.16-3.52-5.1199 0.32-3.52-1.04-3.84 1.92-4.4799 3.28-1.04 5.1199 1.68 7.04 2.24 6.8799 2.7999 4.48 4.96-0.4 4.64-0.32 0.8 2.32 1.9999 3.6799 2.88 7.04 2.64 2.7999-0.4 5.44 0.8 5.4399 3.6 3.68 3.4399 1.52 3.28 0.56 3.84 2.8 8.3199-0.32 4.64-4 0.96-5.36 1.28-1.2 6.5599-4.0799 5.2-2 1.84-6.3199 3.5199-3.44-0.3199-3.84-2.4-1.9199-2.56-4.8-2.4-5.44-2.8-1.28-3.6799 0.4-2.32-3.2799-1.68-2.96v-2.96z" fill="#fefbde"/>
   <path d="m1409.7 965.33-2.1599 2.4799-2.32-0.1599-3.84 1.0399-4.16-1.0399-6.7999 2.2399-2.64 4.24 0.24 5.76-0.88 2.6399 1.6 2.4 1.52 3.52-2.08 2.24 0.32 2.96 4.24 2.8799 6.2399 0.64 4.4-1.68 1.68-1.9199 2.7199-2.72 4.32 1.68 2.88 2.2399-1.04 4.16 2.96 3.2 1.92 3.5999-0.16 4.24 0.88 3.44 3.1999 4.3199 2.8 2.64 8.24 2.72h6.0799l4.48-4 3.9199-7.4399 3.52-1.76 2.88-2.72 1.52-7.6799-0.88-5.3599-5.2-3.68-3.4399-1.12 0.72-3.52-0.32-4.56-1.6-7.7599-2.64-3.04-0.16-1.84 1.76-3.0399 0.08-8-4.96-4.5599-4.16-1.6-8.5599-2.16-4.24-2.56-2.7999 0.96-3.12 3.28-2.24 4.9599 0.16 2.88-1.6 2.24-1.52 2.56z" fill="#f2efc1"/>
   <path d="m1431.6 960.05-1.2-4.6399-2.88-2.16-4.8-1.84-4.7199 2.48-2.32 3.0399-3.76 1.04-3.2-1.6-3.3599 1.6 1.68 3.6 0.7199 4.32-0.08 3.8399 2.16 3.76 5.28 0.56v2.24l-3.04 4-4.32-0.4-5.4399 0.8-3.2 4.0799-3.04 1.92-1.12 4.16-0.56 5.5199 3.12 4.16 6.4 3.44 6.6399 2.8799 5.2 0.88 2.96-3.9999 2.8799-3.68 2.24 0.96 4.08 0.88 7.2799 2.5599 3.76-0.16 3.84 3.92 4.6399 3.04 5.12-0.24 3.36-1.6 2.64-2.08 4.6399-1.04 5.28-6.3999 0.08-6.1599-3.36-4.24-0.08-1.84 1.36-7.5199 1.92-5.28-3.6-5.6-0.16-4.8799-3.12-2.32-3.0399 0.56-5.28-1.2-5.68-1.84-2.7999 1.2-2.16 3.04-3.92-0.48-3.36-0.64-2.2399-2z" fill="#fefbde"/>
   <path d="m1447.8 911.33h-3.28l-1.44-1.76-3.28-2.24-2-3.76-6.2399-3.6799-4.88 0.9599-4.16 4-2.5599 1.04-0.72 2.72-1.6 3.44h-3.12l-2 2.2399 0.72 5.04 3.68 5.12 4.16 2.16h2.5599l3.76 0.16 1.68 4.3999 0.16 3.6-3.84 2-0.32 4.3999-1.44 3.84-3.2799 2.72-2 2.88-1.12 5.2799-0.16 3.84 3.44 7.92 3.9999 4.5599 6 0.72 8.1599-2 3.6 1.52 4 0.32 6.7199-4 3.52-4.1599-0.72-6.4-1.52-3.2 3.12-1.8399 3.28-3.28 4.7199-6.4 0.56-3.9999 1.28-1.2 3.44-0.8 5.9999-5.2 0.16-6.7199-1.6-4.24-3.9999-7.7599-0.96-4.96-2.56-1.44-4.48-0.16-5.2799 1.6-2 2-2.72 0.4-2.96 0.56z" fill="#f2efc1"/>
   <path d="m1466.3 924.29 2.64-4-0.24-3.52-1.84-4.8799-4.96-1.92-3.8399 0.32-3.28-2.16-0.88-3.36-3.44-1.52-1.6 3.6-2.7199 3.44-2.96 2.48-1.36 4.0799 3.12 4.4-1.76 1.44-4.96 0.4-2.64-3.52-4.1599-3.52-5.12 0.24-3.52-0.96-3.8399 1.92-4.48 3.28-1.04 5.04 1.68 7.1199 2.24 6.88 2.8 4.4799 4.9599-0.4 4.64-0.4 0.8 2.4 2 3.6 2.8799 7.1199 2.64 2.8-0.4 5.44 0.8 5.4399 3.6 3.68 3.44 1.44 3.2799 0.64 3.92 2.8 8.24-0.32 4.6399-4 0.96-5.3599 1.28-1.2 6.56-4.08 5.2799-2 1.76-6.3999 3.52-3.36-0.32-3.92-2.4-1.84-2.56-4.7999-2.4-5.44-2.7999-1.36-3.68 0.48-2.24-3.28-1.76-2.96v-2.9599z" fill="#fefbde"/>
  </g>
  <path d="m1537.4 442.13-7.84 4.88-3.4399 15.92 2.08 10.56 9.2799 2.48 5.6799-12.08 1.36-14.72z" fill="#f5f5f5" fill-opacity=".46465"/>
  <g fill="#ffe3c7">
   <path d="m1543.1 459.97-4.6399-5.84-3.68-1.76-2.32 4 1.76 0.55999 1.84-0.95998 7.1999 8.8799z"/>
   <path d="m1621.1 460.37 4.5599-5.76 3.76-1.76 2.24 3.92-1.76 0.56-1.76-0.96-7.2799 8.8799z"/>
   <path d="m1328.8 405.09-11.68 13.36-2.8 14.8-6.1599 28.48 3.28 4.96 2.8799-8.6399 1.68-13.28 3.76-12.8 9.5199-12.4z"/>
   <path d="m1826.7 403.41 11.36 11.68 5.1999 7.7599 12.4 29.84v5.36l-6.2399-1.68v-7.04l-8.64-22.72-4.9599 0.88-9.9199-9.9999z"/>
   <path d="m1414.8 363.57-51.84 6.16-23.28 12.4-9.28 14-6.9599 37.92 19.36 71.999 44.16 31.76 51.84 8.5599 39.52-6.24 46.48-29.44 20.88-36.4 8.56-43.36-7.76-33.28-11.6-17.04-30.24-13.92-35.6-1.6zm35.44 5.6 48.72 2.24 30.88 12.4 12.08 15.84 5.1999 32-7.6799 43.2-21.92 34-42.16 25.76-38.88 4.32-37.76-4.32-14.8-7.12-37.2-26.88-18.08-66.8 6.96-34.24 5.5199-10.96 22.56-12.32 46.56-6z"/>
   <path d="m1745.3 364.53 46.88 3.6 24 14.72 9.28 13.92 7.1199 35.6-16 73.119-40.32 35.68-54.96 8.4799-39.52-6.16-43.36-29.44-20.88-36.4-3.92-43.36 7.76-33.36 11.6-17.04 27.92-17.76 35.6-1.6zm-31.52 5.68-47.2 0.64-28.56 16.24-12.08 15.92-5.1999 31.92 3.0399 43.28 21.84 33.92 39.12 25.76 38.88 4.4 40.88-4.4 14.8-7.12 33.36-30.72 14.8-67.92-7.1999-31.92-5.52-10.96-23.36-14.56-41.52-3.44z"/>
   <path d="m1551.2 422.45 4.56-7.0399 5.8399-3.28 23.52-0.79999 22.32 2 11.2 7.04-1.28 4.16-14-6.24-13.28-0.79999-20.24-0.79998-10.72 2.88-9.5199 12z"/>
  </g>
  <path d="m1604.2 579.95-40.462 1.153-73.384 9.7377-43.086 25.083-0.4148 43.219 10.191 13.631 41.682-24.006 76.773-14.525 82.998 10.375 29.049 8.2998 33.43 12.335 6.2248-20.749-6.0734-29.93-21.629-21.896-55.757-5.5812z" fill="#bf8b63" fill-opacity=".24194" stroke-dasharray="16, 8" stroke-width="8"/>
  <path transform="translate(0 28.362)" d="m1452.2 636.78c-3.8466-5.6498-4.1245-7.763-3.6478-27.741l0.5161-21.626 41.949-24.395 30.094-3.9948c16.552-2.1971 41.763-4.7038 56.026-5.5704 22.536-1.3693 28.388-1.1074 44.685 1.9997 10.314 1.9664 31.885 4.8847 47.935 6.485l29.182 2.9097 10.705 10.546c10.348 10.195 10.806 11.055 13.758 25.814 2.7828 13.911 2.804 16.125 0.2388 24.925-2.0504 7.0337-6.8987 15.27-8.8912 14.644-1.5047-0.4722-8.7438-7.9963-20.898-11.081-32.44-8.233-78.25-18.717-107.9-18.888-34.561-0.19881-67.042 3.4484-90.187 13.349-9.7806 4.1837-18.423 5.9088-18.423 6.9648 0 1.4428-16.246 15.061-18.638 14.989-0.2286-7e-3 -4.2107-5.9669-6.5008-9.3306z" fill="#cf9873" stroke-width="1.8239"/>
  <path d="m1488.4 367.37 191.56-0.3771" fill="none" stroke="#ffe3c7" stroke-width="5"/>
 </g>
</svg>
