<svg width="160.68mm" height="36.089mm" version="1.1" viewBox="0 0 160.68 36.089" xmlns="http://www.w3.org/2000/svg">
 <g transform="translate(-8.1577 -23.99)">
  <g transform="scale(.26458)" fill="rgb(27, 54, 95)" style="shape-inside:url(#rect627);white-space:pre" aria-label="Jerrypop">
   <path d="m130.57 91.606c-9.8666 0.13333-15.467-0.93333-22.133-0.93333-30.4 0-44.4 20.4-44.4 39.2 0 16.667 12 23.333 22.4 23.333 11.467 0 18.8-8.5333 18.8-18 0-6.8-4.2667-10.8-9.6-10.8-5.8667 0-8.2666 4.9333-11.2 4.9333-1.4667 0-2.6667-1.2-2.6667-3.8666 0-6.6666 7.3333-17.6 21.2-17.6 11.2 0 16 6.2666 16 15.067 0 11.2-8.9333 33.333-19.867 54.133-8.2666 15.6-14.8 26.4-28.267 26.4-14.133 0-15.867-10-27.067-10-10.133 0-12.933 7.7333-12.933 12.933 0 9.6 10.267 20.667 33.467 20.667 28.933 0 39.733-19.067 47.067-35.2 3.8666-8.6666 21.067-49.867 28.533-66.933 7.2-16.4 14.4-23.467 14.4-29.6 0-2.5333-1.2-4.6667-8.2666-4.6667-4.9333 0-7.2 0.8-15.467 0.93333z"/>
   <path d="m166.14 149.74c-1.8667 0-2.5333-0.53333-2.5333-1.8667 0-4.1333 10.8-15.867 16.8-15.867 2.8 0 3.7333 1.6 3.7333 3.8667 0 6.4-11.067 13.867-18 13.867zm28.533 17.467c0-2.8-1.6-5.6-5.4666-5.6-7.8666 0-14.133 11.067-24.133 11.067-6.1333 0-8.8-3.8667-8.8-8.2666 0-2.8 0.93333-5.3333 4.5333-5.3333 2.2667 0 6.1333 0.66667 10.8 0.66667 16.8 0 32.267-14.533 32.267-28.4 0-7.7333-5.6-14.8-17.733-14.8-23.867 0-48.933 28.8-48.933 52.533 0 13.867 8.9333 23.333 22.267 23.333 17.467 0 35.2-15.6 35.2-25.2z"/>
   <path d="m212.97 136.27c3.3333 0.4 4.8 1.6 4.8 5.0666 0 6.4-6.1333 18.533-11.6 28.133-4.8 8.4-8.9333 12.133-8.9333 16.267 0 5.3333 5.3333 6.8 12.133 6.8 6.1333 0 14.4-2.2667 14.4-8.6666 0-6.4 1.4667-16.4 6.2667-27.2 5.0666-11.733 11.2-18.8 15.333-18.8 2.5333 0 2.2667 2.6667 3.4667 4.8 1.0667 1.7333 2.1333 2.9333 5.7333 2.9333 9.2 0 16.667-10.533 16.667-20.133 0-5.3333-2.9333-8.9333-8.5333-8.9333-5.8666 0-11.867 4.8-15.867 8.5333-3.2 2.9333-5.0666 5.8666-6.8 5.8666-2.1333 0 1.0667-5.0666 1.0667-9.3333 0-3.4667-2-5.0666-6.5333-5.0666-11.867 0-25.867 10.4-25.867 15.6 0 2.1333 1.4667 3.7333 4.2666 4.1333z"/>
   <path d="m277.81 136.27c3.3333 0.4 4.8 1.6 4.8 5.0666 0 6.4-6.1333 18.533-11.6 28.133-4.8 8.4-8.9333 12.133-8.9333 16.267 0 5.3333 5.3333 6.8 12.133 6.8 6.1333 0 14.4-2.2667 14.4-8.6666 0-6.4 1.4667-16.4 6.2666-27.2 5.0666-11.733 11.2-18.8 15.333-18.8 2.5333 0 2.2667 2.6667 3.4667 4.8 1.0667 1.7333 2.1333 2.9333 5.7333 2.9333 9.2 0 16.667-10.533 16.667-20.133 0-5.3333-2.9333-8.9333-8.5333-8.9333-5.8666 0-11.867 4.8-15.867 8.5333-3.2 2.9333-5.0666 5.8666-6.8 5.8666-2.1333 0 1.0667-5.0666 1.0667-9.3333 0-3.4667-2-5.0666-6.5333-5.0666-11.867 0-25.867 10.4-25.867 15.6 0 2.1333 1.4667 3.7333 4.2666 4.1333z"/>
   <path d="m363.86 184.01c0.53333 0 1.0667 0.26667 1.0667 1.8667 0 9.3333-11.067 19.467-21.733 19.467-7.7333 0-9.0666-1.6-17.6-1.6-7.8666 0-12.933 3.6-12.933 9.7333 0 9.2 8.6666 13.6 22.533 13.6 22.667 0 34.8-12.267 44.267-35.733 19.2-47.467 32.8-56 32.8-67.466 0-3.7333-1.0667-9.0666-9.0666-9.0666-10.8 0-25.333 11.6-25.333 19.467 0 4.8 6 2 6 7.6 0 10.4-16.667 29.467-24.533 29.467-2.2667 0-3.4667-1.4667-3.4667-4.2667 0-10.267 16.533-25.067 16.533-38.533 0-6.2666-2.4-12-11.067-12-11.733 0-24.133 11.867-24.133 17.6 0 3.2 3.3333 4.1333 6.1333 4.4 3.2 0.26667 4.4 1.4667 4.4 4.4 0 8.9333-14 19.067-14 33.733 0 6.8 3.3333 14.8 14 14.8 9.2 0 13.333-7.4666 16.133-7.4666z"/>
   <path d="m440.18 175.87c-3.0667 0-5.0667-1.4667-5.0667-5.3333 0-3.6 2.1333-9.0666 6.1333-15.467 4.2667-6.8 12-15.867 18.533-15.867 3.3333 0 5.6 2.5333 5.6 6.8 0 10.667-14.133 29.867-25.2 29.867zm-19.6 27.067c0-5.4667 3.7333-18.933 6.8-18.933 2.6667 0 3.8667 8.9333 13.2 8.9333 6.8 0 15.867-4.6666 24-12.667 11.333-11.067 21.733-29.467 21.733-44 0-11.067-4.4-19.733-14.667-19.733-12.267 0-20.133 13.467-23.733 13.467-2.1333 0-1.2-4.1333-1.2-6.9333 0-4.9333-2.8-6.5333-7.3333-6.5333-11.867 0-25.867 10.4-25.867 16 0 1.7333 1.4667 3.3333 4.2666 3.7333 3.3333 0.4 6.4 2.2667 6.4 7.4666 0 6.6666-4.5333 20.4-14.133 37.2-8.9333 15.6-14.133 22.8-14.133 31.467 0 8.1333 3.7333 14.667 14.4 14.667 10.667 0 18.933-6.6666 18.933-11.867s-8.6666-3.6-8.6666-12.267z"/>
   <path d="m505.75 130.14c-11.067 10.533-18.667 25.867-18.667 38.8 0 14.267 8.4 23.467 22.533 23.467 11.067 0 21.467-5.0666 30.133-13.867 10-10.4 18.267-25.867 18.267-39.2 0-13.867-7.3333-22.8-21.333-22.8-11.733 0-22.267 5.3333-30.933 13.6zm32.667 10.267c0 6.9333-4.9333 17.2-10.933 24.667-4.6666 6-9.8666 10.133-14.667 10.133-4 0-6.1333-3.0667-6.1333-7.4666 0-6.5333 4.4-16.533 10.4-24.133 4.6666-5.8666 10.133-10 15.2-10 3.6 0 6.1333 2.2667 6.1333 6.8z"/>
   <path d="m592 175.87c-3.0667 0-5.0667-1.4667-5.0667-5.3333 0-3.6 2.1333-9.0666 6.1333-15.467 4.2667-6.8 12-15.867 18.533-15.867 3.3333 0 5.6 2.5333 5.6 6.8 0 10.667-14.133 29.867-25.2 29.867zm-19.6 27.067c0-5.4667 3.7333-18.933 6.8-18.933 2.6667 0 3.8666 8.9333 13.2 8.9333 6.8 0 15.867-4.6666 24-12.667 11.333-11.067 21.733-29.467 21.733-44 0-11.067-4.4-19.733-14.667-19.733-12.267 0-20.133 13.467-23.733 13.467-2.1333 0-1.2-4.1333-1.2-6.9333 0-4.9333-2.8-6.5333-7.3333-6.5333-11.867 0-25.867 10.4-25.867 16 0 1.7333 1.4667 3.3333 4.2666 3.7333 3.3333 0.4 6.4 2.2667 6.4 7.4666 0 6.6666-4.5333 20.4-14.133 37.2-8.9333 15.6-14.133 22.8-14.133 31.467 0 8.1333 3.7333 14.667 14.4 14.667 10.667 0 18.933-6.6666 18.933-11.867s-8.6666-3.6-8.6666-12.267z"/>
  </g>
 </g>
</svg>
